%TF.GenerationSoftware,KiCad,Pcbnew,5.1.9+dfsg1-1*%
%TF.CreationDate,2021-05-21T09:37:11+02:00*%
%TF.ProjectId,vscp-din-m1-wireless-p1,76736370-2d64-4696-9e2d-6d312d776972,rev?*%
%TF.SameCoordinates,Original*%
%TF.FileFunction,Soldermask,Bot*%
%TF.FilePolarity,Negative*%
%FSLAX46Y46*%
G04 Gerber Fmt 4.6, Leading zero omitted, Abs format (unit mm)*
G04 Created by KiCad (PCBNEW 5.1.9+dfsg1-1) date 2021-05-21 09:37:11*
%MOMM*%
%LPD*%
G01*
G04 APERTURE LIST*
%ADD10O,1.700000X1.700000*%
%ADD11R,1.700000X1.700000*%
%ADD12C,1.600000*%
%ADD13R,1.600000X1.600000*%
%ADD14R,1.050000X1.500000*%
%ADD15O,1.050000X1.500000*%
G04 APERTURE END LIST*
D10*
%TO.C,J3*%
X72110600Y-99695000D03*
X72110600Y-97155000D03*
X72110600Y-94615000D03*
X72110600Y-92075000D03*
X72110600Y-89535000D03*
D11*
X72110600Y-86995000D03*
%TD*%
%TO.C,R8*%
G36*
G01*
X115284200Y-91102601D02*
X115284200Y-90202599D01*
G75*
G02*
X115534199Y-89952600I249999J0D01*
G01*
X116059201Y-89952600D01*
G75*
G02*
X116309200Y-90202599I0J-249999D01*
G01*
X116309200Y-91102601D01*
G75*
G02*
X116059201Y-91352600I-249999J0D01*
G01*
X115534199Y-91352600D01*
G75*
G02*
X115284200Y-91102601I0J249999D01*
G01*
G37*
G36*
G01*
X113459200Y-91102601D02*
X113459200Y-90202599D01*
G75*
G02*
X113709199Y-89952600I249999J0D01*
G01*
X114234201Y-89952600D01*
G75*
G02*
X114484200Y-90202599I0J-249999D01*
G01*
X114484200Y-91102601D01*
G75*
G02*
X114234201Y-91352600I-249999J0D01*
G01*
X113709199Y-91352600D01*
G75*
G02*
X113459200Y-91102601I0J249999D01*
G01*
G37*
%TD*%
%TO.C,R4*%
G36*
G01*
X110700400Y-90177600D02*
X110700400Y-91127600D01*
G75*
G02*
X110450400Y-91377600I-250000J0D01*
G01*
X109950400Y-91377600D01*
G75*
G02*
X109700400Y-91127600I0J250000D01*
G01*
X109700400Y-90177600D01*
G75*
G02*
X109950400Y-89927600I250000J0D01*
G01*
X110450400Y-89927600D01*
G75*
G02*
X110700400Y-90177600I0J-250000D01*
G01*
G37*
G36*
G01*
X112600400Y-90177600D02*
X112600400Y-91127600D01*
G75*
G02*
X112350400Y-91377600I-250000J0D01*
G01*
X111850400Y-91377600D01*
G75*
G02*
X111600400Y-91127600I0J250000D01*
G01*
X111600400Y-90177600D01*
G75*
G02*
X111850400Y-89927600I250000J0D01*
G01*
X112350400Y-89927600D01*
G75*
G02*
X112600400Y-90177600I0J-250000D01*
G01*
G37*
%TD*%
%TO.C,R3*%
G36*
G01*
X111411599Y-72815400D02*
X112311601Y-72815400D01*
G75*
G02*
X112561600Y-73065399I0J-249999D01*
G01*
X112561600Y-73590401D01*
G75*
G02*
X112311601Y-73840400I-249999J0D01*
G01*
X111411599Y-73840400D01*
G75*
G02*
X111161600Y-73590401I0J249999D01*
G01*
X111161600Y-73065399D01*
G75*
G02*
X111411599Y-72815400I249999J0D01*
G01*
G37*
G36*
G01*
X111411599Y-70990400D02*
X112311601Y-70990400D01*
G75*
G02*
X112561600Y-71240399I0J-249999D01*
G01*
X112561600Y-71765401D01*
G75*
G02*
X112311601Y-72015400I-249999J0D01*
G01*
X111411599Y-72015400D01*
G75*
G02*
X111161600Y-71765401I0J249999D01*
G01*
X111161600Y-71240399D01*
G75*
G02*
X111411599Y-70990400I249999J0D01*
G01*
G37*
%TD*%
%TO.C,R2*%
G36*
G01*
X112311601Y-75673000D02*
X111411599Y-75673000D01*
G75*
G02*
X111161600Y-75423001I0J249999D01*
G01*
X111161600Y-74897999D01*
G75*
G02*
X111411599Y-74648000I249999J0D01*
G01*
X112311601Y-74648000D01*
G75*
G02*
X112561600Y-74897999I0J-249999D01*
G01*
X112561600Y-75423001D01*
G75*
G02*
X112311601Y-75673000I-249999J0D01*
G01*
G37*
G36*
G01*
X112311601Y-77498000D02*
X111411599Y-77498000D01*
G75*
G02*
X111161600Y-77248001I0J249999D01*
G01*
X111161600Y-76722999D01*
G75*
G02*
X111411599Y-76473000I249999J0D01*
G01*
X112311601Y-76473000D01*
G75*
G02*
X112561600Y-76722999I0J-249999D01*
G01*
X112561600Y-77248001D01*
G75*
G02*
X112311601Y-77498000I-249999J0D01*
G01*
G37*
%TD*%
%TO.C,C4*%
G36*
G01*
X89908400Y-72219400D02*
X88958400Y-72219400D01*
G75*
G02*
X88708400Y-71969400I0J250000D01*
G01*
X88708400Y-71469400D01*
G75*
G02*
X88958400Y-71219400I250000J0D01*
G01*
X89908400Y-71219400D01*
G75*
G02*
X90158400Y-71469400I0J-250000D01*
G01*
X90158400Y-71969400D01*
G75*
G02*
X89908400Y-72219400I-250000J0D01*
G01*
G37*
G36*
G01*
X89908400Y-74119400D02*
X88958400Y-74119400D01*
G75*
G02*
X88708400Y-73869400I0J250000D01*
G01*
X88708400Y-73369400D01*
G75*
G02*
X88958400Y-73119400I250000J0D01*
G01*
X89908400Y-73119400D01*
G75*
G02*
X90158400Y-73369400I0J-250000D01*
G01*
X90158400Y-73869400D01*
G75*
G02*
X89908400Y-74119400I-250000J0D01*
G01*
G37*
%TD*%
%TO.C,C3*%
G36*
G01*
X105021400Y-72168600D02*
X104071400Y-72168600D01*
G75*
G02*
X103821400Y-71918600I0J250000D01*
G01*
X103821400Y-71418600D01*
G75*
G02*
X104071400Y-71168600I250000J0D01*
G01*
X105021400Y-71168600D01*
G75*
G02*
X105271400Y-71418600I0J-250000D01*
G01*
X105271400Y-71918600D01*
G75*
G02*
X105021400Y-72168600I-250000J0D01*
G01*
G37*
G36*
G01*
X105021400Y-74068600D02*
X104071400Y-74068600D01*
G75*
G02*
X103821400Y-73818600I0J250000D01*
G01*
X103821400Y-73318600D01*
G75*
G02*
X104071400Y-73068600I250000J0D01*
G01*
X105021400Y-73068600D01*
G75*
G02*
X105271400Y-73318600I0J-250000D01*
G01*
X105271400Y-73818600D01*
G75*
G02*
X105021400Y-74068600I-250000J0D01*
G01*
G37*
%TD*%
D12*
%TO.C,C2*%
X106500000Y-93000000D03*
D13*
X104000000Y-93000000D03*
%TD*%
D14*
%TO.C,Q1*%
X127381000Y-91465400D03*
D15*
X124841000Y-91465400D03*
X126111000Y-91465400D03*
%TD*%
D10*
%TO.C,J2*%
X129413000Y-118135400D03*
X126873000Y-118135400D03*
X124333000Y-118135400D03*
D11*
X121793000Y-118135400D03*
%TD*%
D10*
%TO.C,J1*%
X85344000Y-118160800D03*
X82804000Y-118160800D03*
X80264000Y-118160800D03*
D11*
X77724000Y-118160800D03*
%TD*%
M02*
