%TF.GenerationSoftware,KiCad,Pcbnew,5.1.9+dfsg1-1*%
%TF.CreationDate,2021-05-21T09:37:11+02:00*%
%TF.ProjectId,vscp-din-m1-wireless-p1,76736370-2d64-4696-9e2d-6d312d776972,rev?*%
%TF.SameCoordinates,Original*%
%TF.FileFunction,Legend,Top*%
%TF.FilePolarity,Positive*%
%FSLAX46Y46*%
G04 Gerber Fmt 4.6, Leading zero omitted, Abs format (unit mm)*
G04 Created by KiCad (PCBNEW 5.1.9+dfsg1-1) date 2021-05-21 09:37:11*
%MOMM*%
%LPD*%
G01*
G04 APERTURE LIST*
%ADD10C,0.300000*%
%ADD11C,0.120000*%
%ADD12C,0.150000*%
G04 APERTURE END LIST*
D10*
X101642542Y-105767600D02*
X101499685Y-105696171D01*
X101285400Y-105696171D01*
X101071114Y-105767600D01*
X100928257Y-105910457D01*
X100856828Y-106053314D01*
X100785400Y-106339028D01*
X100785400Y-106553314D01*
X100856828Y-106839028D01*
X100928257Y-106981885D01*
X101071114Y-107124742D01*
X101285400Y-107196171D01*
X101428257Y-107196171D01*
X101642542Y-107124742D01*
X101713971Y-107053314D01*
X101713971Y-106553314D01*
X101428257Y-106553314D01*
X102356828Y-107196171D02*
X102356828Y-106196171D01*
X102356828Y-106481885D02*
X102428257Y-106339028D01*
X102499685Y-106267600D01*
X102642542Y-106196171D01*
X102785400Y-106196171D01*
X103499685Y-107196171D02*
X103356828Y-107124742D01*
X103285400Y-107053314D01*
X103213971Y-106910457D01*
X103213971Y-106481885D01*
X103285400Y-106339028D01*
X103356828Y-106267600D01*
X103499685Y-106196171D01*
X103713971Y-106196171D01*
X103856828Y-106267600D01*
X103928257Y-106339028D01*
X103999685Y-106481885D01*
X103999685Y-106910457D01*
X103928257Y-107053314D01*
X103856828Y-107124742D01*
X103713971Y-107196171D01*
X103499685Y-107196171D01*
X105285400Y-107196171D02*
X105285400Y-105696171D01*
X105285400Y-107124742D02*
X105142542Y-107196171D01*
X104856828Y-107196171D01*
X104713971Y-107124742D01*
X104642542Y-107053314D01*
X104571114Y-106910457D01*
X104571114Y-106481885D01*
X104642542Y-106339028D01*
X104713971Y-106267600D01*
X104856828Y-106196171D01*
X105142542Y-106196171D01*
X105285400Y-106267600D01*
X106642542Y-107196171D02*
X106642542Y-106410457D01*
X106571114Y-106267600D01*
X106428257Y-106196171D01*
X106142542Y-106196171D01*
X105999685Y-106267600D01*
X106642542Y-107124742D02*
X106499685Y-107196171D01*
X106142542Y-107196171D01*
X105999685Y-107124742D01*
X105928257Y-106981885D01*
X105928257Y-106839028D01*
X105999685Y-106696171D01*
X106142542Y-106624742D01*
X106499685Y-106624742D01*
X106642542Y-106553314D01*
X107356828Y-106196171D02*
X107356828Y-107196171D01*
X107356828Y-106339028D02*
X107428257Y-106267600D01*
X107571114Y-106196171D01*
X107785400Y-106196171D01*
X107928257Y-106267600D01*
X107999685Y-106410457D01*
X107999685Y-107196171D01*
X108642542Y-107124742D02*
X108785400Y-107196171D01*
X109071114Y-107196171D01*
X109213971Y-107124742D01*
X109285400Y-106981885D01*
X109285400Y-106910457D01*
X109213971Y-106767600D01*
X109071114Y-106696171D01*
X108856828Y-106696171D01*
X108713971Y-106624742D01*
X108642542Y-106481885D01*
X108642542Y-106410457D01*
X108713971Y-106267600D01*
X108856828Y-106196171D01*
X109071114Y-106196171D01*
X109213971Y-106267600D01*
X111071114Y-107196171D02*
X111071114Y-105696171D01*
X111642542Y-105696171D01*
X111785400Y-105767600D01*
X111856828Y-105839028D01*
X111928257Y-105981885D01*
X111928257Y-106196171D01*
X111856828Y-106339028D01*
X111785400Y-106410457D01*
X111642542Y-106481885D01*
X111071114Y-106481885D01*
X113213971Y-107196171D02*
X113213971Y-106410457D01*
X113142542Y-106267600D01*
X112999685Y-106196171D01*
X112713971Y-106196171D01*
X112571114Y-106267600D01*
X113213971Y-107124742D02*
X113071114Y-107196171D01*
X112713971Y-107196171D01*
X112571114Y-107124742D01*
X112499685Y-106981885D01*
X112499685Y-106839028D01*
X112571114Y-106696171D01*
X112713971Y-106624742D01*
X113071114Y-106624742D01*
X113213971Y-106553314D01*
X113928257Y-107196171D02*
X113928257Y-106196171D01*
X113928257Y-106481885D02*
X113999685Y-106339028D01*
X114071114Y-106267600D01*
X114213971Y-106196171D01*
X114356828Y-106196171D01*
X115499685Y-107196171D02*
X115499685Y-106410457D01*
X115428257Y-106267600D01*
X115285400Y-106196171D01*
X114999685Y-106196171D01*
X114856828Y-106267600D01*
X115499685Y-107124742D02*
X115356828Y-107196171D01*
X114999685Y-107196171D01*
X114856828Y-107124742D01*
X114785400Y-106981885D01*
X114785400Y-106839028D01*
X114856828Y-106696171D01*
X114999685Y-106624742D01*
X115356828Y-106624742D01*
X115499685Y-106553314D01*
X116856828Y-107196171D02*
X116856828Y-105696171D01*
X116856828Y-107124742D02*
X116713971Y-107196171D01*
X116428257Y-107196171D01*
X116285400Y-107124742D01*
X116213971Y-107053314D01*
X116142542Y-106910457D01*
X116142542Y-106481885D01*
X116213971Y-106339028D01*
X116285400Y-106267600D01*
X116428257Y-106196171D01*
X116713971Y-106196171D01*
X116856828Y-106267600D01*
X117571114Y-107196171D02*
X117571114Y-106196171D01*
X117571114Y-105696171D02*
X117499685Y-105767600D01*
X117571114Y-105839028D01*
X117642542Y-105767600D01*
X117571114Y-105696171D01*
X117571114Y-105839028D01*
X118213971Y-107124742D02*
X118356828Y-107196171D01*
X118642542Y-107196171D01*
X118785400Y-107124742D01*
X118856828Y-106981885D01*
X118856828Y-106910457D01*
X118785400Y-106767600D01*
X118642542Y-106696171D01*
X118428257Y-106696171D01*
X118285400Y-106624742D01*
X118213971Y-106481885D01*
X118213971Y-106410457D01*
X118285400Y-106267600D01*
X118428257Y-106196171D01*
X118642542Y-106196171D01*
X118785400Y-106267600D01*
X120571114Y-106767600D02*
X121285400Y-106767600D01*
X120428257Y-107196171D02*
X120928257Y-105696171D01*
X121428257Y-107196171D01*
X122428257Y-106410457D02*
X122642542Y-106481885D01*
X122713971Y-106553314D01*
X122785400Y-106696171D01*
X122785400Y-106910457D01*
X122713971Y-107053314D01*
X122642542Y-107124742D01*
X122499685Y-107196171D01*
X121928257Y-107196171D01*
X121928257Y-105696171D01*
X122428257Y-105696171D01*
X122571114Y-105767600D01*
X122642542Y-105839028D01*
X122713971Y-105981885D01*
X122713971Y-106124742D01*
X122642542Y-106267600D01*
X122571114Y-106339028D01*
X122428257Y-106410457D01*
X121928257Y-106410457D01*
X93392542Y-109746171D02*
X93392542Y-108246171D01*
X94035400Y-109746171D02*
X94035400Y-108960457D01*
X93963971Y-108817600D01*
X93821114Y-108746171D01*
X93606828Y-108746171D01*
X93463971Y-108817600D01*
X93392542Y-108889028D01*
X94535400Y-108746171D02*
X95106828Y-108746171D01*
X94749685Y-108246171D02*
X94749685Y-109531885D01*
X94821114Y-109674742D01*
X94963971Y-109746171D01*
X95106828Y-109746171D01*
X95392542Y-108746171D02*
X95963971Y-108746171D01*
X95606828Y-108246171D02*
X95606828Y-109531885D01*
X95678257Y-109674742D01*
X95821114Y-109746171D01*
X95963971Y-109746171D01*
X96463971Y-108746171D02*
X96463971Y-110246171D01*
X96463971Y-108817600D02*
X96606828Y-108746171D01*
X96892542Y-108746171D01*
X97035400Y-108817600D01*
X97106828Y-108889028D01*
X97178257Y-109031885D01*
X97178257Y-109460457D01*
X97106828Y-109603314D01*
X97035400Y-109674742D01*
X96892542Y-109746171D01*
X96606828Y-109746171D01*
X96463971Y-109674742D01*
X97749685Y-109674742D02*
X97892542Y-109746171D01*
X98178257Y-109746171D01*
X98321114Y-109674742D01*
X98392542Y-109531885D01*
X98392542Y-109460457D01*
X98321114Y-109317600D01*
X98178257Y-109246171D01*
X97963971Y-109246171D01*
X97821114Y-109174742D01*
X97749685Y-109031885D01*
X97749685Y-108960457D01*
X97821114Y-108817600D01*
X97963971Y-108746171D01*
X98178257Y-108746171D01*
X98321114Y-108817600D01*
X99035400Y-109603314D02*
X99106828Y-109674742D01*
X99035400Y-109746171D01*
X98963971Y-109674742D01*
X99035400Y-109603314D01*
X99035400Y-109746171D01*
X99035400Y-108817600D02*
X99106828Y-108889028D01*
X99035400Y-108960457D01*
X98963971Y-108889028D01*
X99035400Y-108817600D01*
X99035400Y-108960457D01*
X100821114Y-108174742D02*
X99535400Y-110103314D01*
X102392542Y-108174742D02*
X101106828Y-110103314D01*
X102749685Y-108746171D02*
X103035400Y-109746171D01*
X103321114Y-109031885D01*
X103606828Y-109746171D01*
X103892542Y-108746171D01*
X104321114Y-108746171D02*
X104606828Y-109746171D01*
X104892542Y-109031885D01*
X105178257Y-109746171D01*
X105463971Y-108746171D01*
X105892542Y-108746171D02*
X106178257Y-109746171D01*
X106463971Y-109031885D01*
X106749685Y-109746171D01*
X107035400Y-108746171D01*
X107606828Y-109603314D02*
X107678257Y-109674742D01*
X107606828Y-109746171D01*
X107535400Y-109674742D01*
X107606828Y-109603314D01*
X107606828Y-109746171D01*
X108963971Y-108746171D02*
X108963971Y-109960457D01*
X108892542Y-110103314D01*
X108821114Y-110174742D01*
X108678257Y-110246171D01*
X108463971Y-110246171D01*
X108321114Y-110174742D01*
X108963971Y-109674742D02*
X108821114Y-109746171D01*
X108535400Y-109746171D01*
X108392542Y-109674742D01*
X108321114Y-109603314D01*
X108249685Y-109460457D01*
X108249685Y-109031885D01*
X108321114Y-108889028D01*
X108392542Y-108817600D01*
X108535400Y-108746171D01*
X108821114Y-108746171D01*
X108963971Y-108817600D01*
X109678257Y-109746171D02*
X109678257Y-108746171D01*
X109678257Y-109031885D02*
X109749685Y-108889028D01*
X109821114Y-108817600D01*
X109963971Y-108746171D01*
X110106828Y-108746171D01*
X110821114Y-109746171D02*
X110678257Y-109674742D01*
X110606828Y-109603314D01*
X110535400Y-109460457D01*
X110535400Y-109031885D01*
X110606828Y-108889028D01*
X110678257Y-108817600D01*
X110821114Y-108746171D01*
X111035400Y-108746171D01*
X111178257Y-108817600D01*
X111249685Y-108889028D01*
X111321114Y-109031885D01*
X111321114Y-109460457D01*
X111249685Y-109603314D01*
X111178257Y-109674742D01*
X111035400Y-109746171D01*
X110821114Y-109746171D01*
X112606828Y-109746171D02*
X112606828Y-108246171D01*
X112606828Y-109674742D02*
X112463971Y-109746171D01*
X112178257Y-109746171D01*
X112035400Y-109674742D01*
X111963971Y-109603314D01*
X111892542Y-109460457D01*
X111892542Y-109031885D01*
X111963971Y-108889028D01*
X112035400Y-108817600D01*
X112178257Y-108746171D01*
X112463971Y-108746171D01*
X112606828Y-108817600D01*
X113963971Y-109746171D02*
X113963971Y-108960457D01*
X113892542Y-108817600D01*
X113749685Y-108746171D01*
X113463971Y-108746171D01*
X113321114Y-108817600D01*
X113963971Y-109674742D02*
X113821114Y-109746171D01*
X113463971Y-109746171D01*
X113321114Y-109674742D01*
X113249685Y-109531885D01*
X113249685Y-109389028D01*
X113321114Y-109246171D01*
X113463971Y-109174742D01*
X113821114Y-109174742D01*
X113963971Y-109103314D01*
X114678257Y-108746171D02*
X114678257Y-109746171D01*
X114678257Y-108889028D02*
X114749685Y-108817600D01*
X114892542Y-108746171D01*
X115106828Y-108746171D01*
X115249685Y-108817600D01*
X115321114Y-108960457D01*
X115321114Y-109746171D01*
X115963971Y-109674742D02*
X116106828Y-109746171D01*
X116392542Y-109746171D01*
X116535400Y-109674742D01*
X116606828Y-109531885D01*
X116606828Y-109460457D01*
X116535400Y-109317600D01*
X116392542Y-109246171D01*
X116178257Y-109246171D01*
X116035400Y-109174742D01*
X115963971Y-109031885D01*
X115963971Y-108960457D01*
X116035400Y-108817600D01*
X116178257Y-108746171D01*
X116392542Y-108746171D01*
X116535400Y-108817600D01*
X117249685Y-108746171D02*
X117249685Y-110246171D01*
X117249685Y-108817600D02*
X117392542Y-108746171D01*
X117678257Y-108746171D01*
X117821114Y-108817600D01*
X117892542Y-108889028D01*
X117963971Y-109031885D01*
X117963971Y-109460457D01*
X117892542Y-109603314D01*
X117821114Y-109674742D01*
X117678257Y-109746171D01*
X117392542Y-109746171D01*
X117249685Y-109674742D01*
X119249685Y-109746171D02*
X119249685Y-108960457D01*
X119178257Y-108817600D01*
X119035400Y-108746171D01*
X118749685Y-108746171D01*
X118606828Y-108817600D01*
X119249685Y-109674742D02*
X119106828Y-109746171D01*
X118749685Y-109746171D01*
X118606828Y-109674742D01*
X118535400Y-109531885D01*
X118535400Y-109389028D01*
X118606828Y-109246171D01*
X118749685Y-109174742D01*
X119106828Y-109174742D01*
X119249685Y-109103314D01*
X119963971Y-109746171D02*
X119963971Y-108746171D01*
X119963971Y-109031885D02*
X120035400Y-108889028D01*
X120106828Y-108817600D01*
X120249685Y-108746171D01*
X120392542Y-108746171D01*
X121535400Y-109746171D02*
X121535400Y-108960457D01*
X121463971Y-108817600D01*
X121321114Y-108746171D01*
X121035400Y-108746171D01*
X120892542Y-108817600D01*
X121535400Y-109674742D02*
X121392542Y-109746171D01*
X121035400Y-109746171D01*
X120892542Y-109674742D01*
X120821114Y-109531885D01*
X120821114Y-109389028D01*
X120892542Y-109246171D01*
X121035400Y-109174742D01*
X121392542Y-109174742D01*
X121535400Y-109103314D01*
X122892542Y-109746171D02*
X122892542Y-108246171D01*
X122892542Y-109674742D02*
X122749685Y-109746171D01*
X122463971Y-109746171D01*
X122321114Y-109674742D01*
X122249685Y-109603314D01*
X122178257Y-109460457D01*
X122178257Y-109031885D01*
X122249685Y-108889028D01*
X122321114Y-108817600D01*
X122463971Y-108746171D01*
X122749685Y-108746171D01*
X122892542Y-108817600D01*
X123606828Y-109746171D02*
X123606828Y-108746171D01*
X123606828Y-108246171D02*
X123535400Y-108317600D01*
X123606828Y-108389028D01*
X123678257Y-108317600D01*
X123606828Y-108246171D01*
X123606828Y-108389028D01*
X124249685Y-109674742D02*
X124392542Y-109746171D01*
X124678257Y-109746171D01*
X124821114Y-109674742D01*
X124892542Y-109531885D01*
X124892542Y-109460457D01*
X124821114Y-109317600D01*
X124678257Y-109246171D01*
X124463971Y-109246171D01*
X124321114Y-109174742D01*
X124249685Y-109031885D01*
X124249685Y-108960457D01*
X124321114Y-108817600D01*
X124463971Y-108746171D01*
X124678257Y-108746171D01*
X124821114Y-108817600D01*
X125535400Y-109603314D02*
X125606828Y-109674742D01*
X125535400Y-109746171D01*
X125463971Y-109674742D01*
X125535400Y-109603314D01*
X125535400Y-109746171D01*
X126892542Y-109674742D02*
X126749685Y-109746171D01*
X126463971Y-109746171D01*
X126321114Y-109674742D01*
X126249685Y-109603314D01*
X126178257Y-109460457D01*
X126178257Y-109031885D01*
X126249685Y-108889028D01*
X126321114Y-108817600D01*
X126463971Y-108746171D01*
X126749685Y-108746171D01*
X126892542Y-108817600D01*
X127749685Y-109746171D02*
X127606828Y-109674742D01*
X127535400Y-109603314D01*
X127463971Y-109460457D01*
X127463971Y-109031885D01*
X127535400Y-108889028D01*
X127606828Y-108817600D01*
X127749685Y-108746171D01*
X127963971Y-108746171D01*
X128106828Y-108817600D01*
X128178257Y-108889028D01*
X128249685Y-109031885D01*
X128249685Y-109460457D01*
X128178257Y-109603314D01*
X128106828Y-109674742D01*
X127963971Y-109746171D01*
X127749685Y-109746171D01*
X128892542Y-109746171D02*
X128892542Y-108746171D01*
X128892542Y-108889028D02*
X128963971Y-108817600D01*
X129106828Y-108746171D01*
X129321114Y-108746171D01*
X129463971Y-108817600D01*
X129535400Y-108960457D01*
X129535400Y-109746171D01*
X129535400Y-108960457D02*
X129606828Y-108817600D01*
X129749685Y-108746171D01*
X129963971Y-108746171D01*
X130106828Y-108817600D01*
X130178257Y-108960457D01*
X130178257Y-109746171D01*
X99999685Y-112296171D02*
X99999685Y-110796171D01*
X100642542Y-112296171D02*
X100642542Y-111510457D01*
X100571114Y-111367600D01*
X100428257Y-111296171D01*
X100213971Y-111296171D01*
X100071114Y-111367600D01*
X99999685Y-111439028D01*
X101142542Y-111296171D02*
X101713971Y-111296171D01*
X101356828Y-110796171D02*
X101356828Y-112081885D01*
X101428257Y-112224742D01*
X101571114Y-112296171D01*
X101713971Y-112296171D01*
X101999685Y-111296171D02*
X102571114Y-111296171D01*
X102213971Y-110796171D02*
X102213971Y-112081885D01*
X102285400Y-112224742D01*
X102428257Y-112296171D01*
X102571114Y-112296171D01*
X103071114Y-111296171D02*
X103071114Y-112796171D01*
X103071114Y-111367600D02*
X103213971Y-111296171D01*
X103499685Y-111296171D01*
X103642542Y-111367600D01*
X103713971Y-111439028D01*
X103785400Y-111581885D01*
X103785400Y-112010457D01*
X103713971Y-112153314D01*
X103642542Y-112224742D01*
X103499685Y-112296171D01*
X103213971Y-112296171D01*
X103071114Y-112224742D01*
X104356828Y-112224742D02*
X104499685Y-112296171D01*
X104785400Y-112296171D01*
X104928257Y-112224742D01*
X104999685Y-112081885D01*
X104999685Y-112010457D01*
X104928257Y-111867600D01*
X104785400Y-111796171D01*
X104571114Y-111796171D01*
X104428257Y-111724742D01*
X104356828Y-111581885D01*
X104356828Y-111510457D01*
X104428257Y-111367600D01*
X104571114Y-111296171D01*
X104785400Y-111296171D01*
X104928257Y-111367600D01*
X105642542Y-112153314D02*
X105713971Y-112224742D01*
X105642542Y-112296171D01*
X105571114Y-112224742D01*
X105642542Y-112153314D01*
X105642542Y-112296171D01*
X105642542Y-111367600D02*
X105713971Y-111439028D01*
X105642542Y-111510457D01*
X105571114Y-111439028D01*
X105642542Y-111367600D01*
X105642542Y-111510457D01*
X107428257Y-110724742D02*
X106142542Y-112653314D01*
X108999685Y-110724742D02*
X107713971Y-112653314D01*
X109356828Y-111296171D02*
X109642542Y-112296171D01*
X109928257Y-111581885D01*
X110213971Y-112296171D01*
X110499685Y-111296171D01*
X110928257Y-111296171D02*
X111213971Y-112296171D01*
X111499685Y-111581885D01*
X111785400Y-112296171D01*
X112071114Y-111296171D01*
X112499685Y-111296171D02*
X112785400Y-112296171D01*
X113071114Y-111581885D01*
X113356828Y-112296171D01*
X113642542Y-111296171D01*
X114213971Y-112153314D02*
X114285400Y-112224742D01*
X114213971Y-112296171D01*
X114142542Y-112224742D01*
X114213971Y-112153314D01*
X114213971Y-112296171D01*
X114785400Y-111296171D02*
X115142542Y-112296171D01*
X115499685Y-111296171D01*
X115999685Y-112224742D02*
X116142542Y-112296171D01*
X116428257Y-112296171D01*
X116571114Y-112224742D01*
X116642542Y-112081885D01*
X116642542Y-112010457D01*
X116571114Y-111867600D01*
X116428257Y-111796171D01*
X116213971Y-111796171D01*
X116071114Y-111724742D01*
X115999685Y-111581885D01*
X115999685Y-111510457D01*
X116071114Y-111367600D01*
X116213971Y-111296171D01*
X116428257Y-111296171D01*
X116571114Y-111367600D01*
X117928257Y-112224742D02*
X117785400Y-112296171D01*
X117499685Y-112296171D01*
X117356828Y-112224742D01*
X117285400Y-112153314D01*
X117213971Y-112010457D01*
X117213971Y-111581885D01*
X117285400Y-111439028D01*
X117356828Y-111367600D01*
X117499685Y-111296171D01*
X117785400Y-111296171D01*
X117928257Y-111367600D01*
X118571114Y-111296171D02*
X118571114Y-112796171D01*
X118571114Y-111367600D02*
X118713971Y-111296171D01*
X118999685Y-111296171D01*
X119142542Y-111367600D01*
X119213971Y-111439028D01*
X119285400Y-111581885D01*
X119285400Y-112010457D01*
X119213971Y-112153314D01*
X119142542Y-112224742D01*
X118999685Y-112296171D01*
X118713971Y-112296171D01*
X118571114Y-112224742D01*
X119928257Y-112153314D02*
X119999685Y-112224742D01*
X119928257Y-112296171D01*
X119856828Y-112224742D01*
X119928257Y-112153314D01*
X119928257Y-112296171D01*
X120856828Y-112296171D02*
X120713971Y-112224742D01*
X120642542Y-112153314D01*
X120571114Y-112010457D01*
X120571114Y-111581885D01*
X120642542Y-111439028D01*
X120713971Y-111367600D01*
X120856828Y-111296171D01*
X121071114Y-111296171D01*
X121213971Y-111367600D01*
X121285400Y-111439028D01*
X121356828Y-111581885D01*
X121356828Y-112010457D01*
X121285400Y-112153314D01*
X121213971Y-112224742D01*
X121071114Y-112296171D01*
X120856828Y-112296171D01*
X121999685Y-112296171D02*
X121999685Y-111296171D01*
X121999685Y-111581885D02*
X122071114Y-111439028D01*
X122142542Y-111367600D01*
X122285400Y-111296171D01*
X122428257Y-111296171D01*
X123571114Y-111296171D02*
X123571114Y-112510457D01*
X123499685Y-112653314D01*
X123428257Y-112724742D01*
X123285400Y-112796171D01*
X123071114Y-112796171D01*
X122928257Y-112724742D01*
X123571114Y-112224742D02*
X123428257Y-112296171D01*
X123142542Y-112296171D01*
X122999685Y-112224742D01*
X122928257Y-112153314D01*
X122856828Y-112010457D01*
X122856828Y-111581885D01*
X122928257Y-111439028D01*
X122999685Y-111367600D01*
X123142542Y-111296171D01*
X123428257Y-111296171D01*
X123571114Y-111367600D01*
X86480857Y-100906971D02*
X86480857Y-99406971D01*
X86838000Y-99406971D01*
X87052285Y-99478400D01*
X87195142Y-99621257D01*
X87266571Y-99764114D01*
X87338000Y-100049828D01*
X87338000Y-100264114D01*
X87266571Y-100549828D01*
X87195142Y-100692685D01*
X87052285Y-100835542D01*
X86838000Y-100906971D01*
X86480857Y-100906971D01*
X87980857Y-100906971D02*
X87980857Y-99406971D01*
X88695142Y-100906971D02*
X88695142Y-99406971D01*
X89552285Y-100906971D01*
X89552285Y-99406971D01*
X91266571Y-99406971D02*
X91623714Y-100906971D01*
X91909428Y-99835542D01*
X92195142Y-100906971D01*
X92552285Y-99406971D01*
X93123714Y-100906971D02*
X93123714Y-99906971D01*
X93123714Y-99406971D02*
X93052285Y-99478400D01*
X93123714Y-99549828D01*
X93195142Y-99478400D01*
X93123714Y-99406971D01*
X93123714Y-99549828D01*
X93838000Y-100906971D02*
X93838000Y-99906971D01*
X93838000Y-100192685D02*
X93909428Y-100049828D01*
X93980857Y-99978400D01*
X94123714Y-99906971D01*
X94266571Y-99906971D01*
X95338000Y-100835542D02*
X95195142Y-100906971D01*
X94909428Y-100906971D01*
X94766571Y-100835542D01*
X94695142Y-100692685D01*
X94695142Y-100121257D01*
X94766571Y-99978400D01*
X94909428Y-99906971D01*
X95195142Y-99906971D01*
X95338000Y-99978400D01*
X95409428Y-100121257D01*
X95409428Y-100264114D01*
X94695142Y-100406971D01*
X96266571Y-100906971D02*
X96123714Y-100835542D01*
X96052285Y-100692685D01*
X96052285Y-99406971D01*
X97409428Y-100835542D02*
X97266571Y-100906971D01*
X96980857Y-100906971D01*
X96838000Y-100835542D01*
X96766571Y-100692685D01*
X96766571Y-100121257D01*
X96838000Y-99978400D01*
X96980857Y-99906971D01*
X97266571Y-99906971D01*
X97409428Y-99978400D01*
X97480857Y-100121257D01*
X97480857Y-100264114D01*
X96766571Y-100406971D01*
X98052285Y-100835542D02*
X98195142Y-100906971D01*
X98480857Y-100906971D01*
X98623714Y-100835542D01*
X98695142Y-100692685D01*
X98695142Y-100621257D01*
X98623714Y-100478400D01*
X98480857Y-100406971D01*
X98266571Y-100406971D01*
X98123714Y-100335542D01*
X98052285Y-100192685D01*
X98052285Y-100121257D01*
X98123714Y-99978400D01*
X98266571Y-99906971D01*
X98480857Y-99906971D01*
X98623714Y-99978400D01*
X101338000Y-100764114D02*
X101266571Y-100835542D01*
X101052285Y-100906971D01*
X100909428Y-100906971D01*
X100695142Y-100835542D01*
X100552285Y-100692685D01*
X100480857Y-100549828D01*
X100409428Y-100264114D01*
X100409428Y-100049828D01*
X100480857Y-99764114D01*
X100552285Y-99621257D01*
X100695142Y-99478400D01*
X100909428Y-99406971D01*
X101052285Y-99406971D01*
X101266571Y-99478400D01*
X101338000Y-99549828D01*
X102195142Y-100906971D02*
X102052285Y-100835542D01*
X101980857Y-100764114D01*
X101909428Y-100621257D01*
X101909428Y-100192685D01*
X101980857Y-100049828D01*
X102052285Y-99978400D01*
X102195142Y-99906971D01*
X102409428Y-99906971D01*
X102552285Y-99978400D01*
X102623714Y-100049828D01*
X102695142Y-100192685D01*
X102695142Y-100621257D01*
X102623714Y-100764114D01*
X102552285Y-100835542D01*
X102409428Y-100906971D01*
X102195142Y-100906971D01*
X103338000Y-99906971D02*
X103338000Y-100906971D01*
X103338000Y-100049828D02*
X103409428Y-99978400D01*
X103552285Y-99906971D01*
X103766571Y-99906971D01*
X103909428Y-99978400D01*
X103980857Y-100121257D01*
X103980857Y-100906971D01*
X104480857Y-99906971D02*
X105052285Y-99906971D01*
X104695142Y-99406971D02*
X104695142Y-100692685D01*
X104766571Y-100835542D01*
X104909428Y-100906971D01*
X105052285Y-100906971D01*
X105552285Y-100906971D02*
X105552285Y-99906971D01*
X105552285Y-100192685D02*
X105623714Y-100049828D01*
X105695142Y-99978400D01*
X105838000Y-99906971D01*
X105980857Y-99906971D01*
X106695142Y-100906971D02*
X106552285Y-100835542D01*
X106480857Y-100764114D01*
X106409428Y-100621257D01*
X106409428Y-100192685D01*
X106480857Y-100049828D01*
X106552285Y-99978400D01*
X106695142Y-99906971D01*
X106909428Y-99906971D01*
X107052285Y-99978400D01*
X107123714Y-100049828D01*
X107195142Y-100192685D01*
X107195142Y-100621257D01*
X107123714Y-100764114D01*
X107052285Y-100835542D01*
X106909428Y-100906971D01*
X106695142Y-100906971D01*
X108052285Y-100906971D02*
X107909428Y-100835542D01*
X107838000Y-100692685D01*
X107838000Y-99406971D01*
X108838000Y-100906971D02*
X108695142Y-100835542D01*
X108623714Y-100692685D01*
X108623714Y-99406971D01*
X109980857Y-100835542D02*
X109838000Y-100906971D01*
X109552285Y-100906971D01*
X109409428Y-100835542D01*
X109338000Y-100692685D01*
X109338000Y-100121257D01*
X109409428Y-99978400D01*
X109552285Y-99906971D01*
X109838000Y-99906971D01*
X109980857Y-99978400D01*
X110052285Y-100121257D01*
X110052285Y-100264114D01*
X109338000Y-100406971D01*
X110695142Y-100906971D02*
X110695142Y-99906971D01*
X110695142Y-100192685D02*
X110766571Y-100049828D01*
X110838000Y-99978400D01*
X110980857Y-99906971D01*
X111123714Y-99906971D01*
X112766571Y-100906971D02*
X112766571Y-99406971D01*
X113266571Y-100478400D01*
X113766571Y-99406971D01*
X113766571Y-100906971D01*
X115266571Y-100906971D02*
X114409428Y-100906971D01*
X114838000Y-100906971D02*
X114838000Y-99406971D01*
X114695142Y-99621257D01*
X114552285Y-99764114D01*
X114409428Y-99835542D01*
D11*
%TO.C,J3*%
X70780600Y-85665000D02*
X72110600Y-85665000D01*
X70780600Y-86995000D02*
X70780600Y-85665000D01*
X70780600Y-88265000D02*
X73440600Y-88265000D01*
X73440600Y-88265000D02*
X73440600Y-101025000D01*
X70780600Y-88265000D02*
X70780600Y-101025000D01*
X70780600Y-101025000D02*
X73440600Y-101025000D01*
%TO.C,R19*%
X73610736Y-116990800D02*
X74064864Y-116990800D01*
X73610736Y-115520800D02*
X74064864Y-115520800D01*
%TO.C,U2*%
X106880000Y-70500000D02*
X106270000Y-70500000D01*
X106880000Y-70500000D02*
X106880000Y-62880000D01*
X106880000Y-87120000D02*
X106880000Y-86500000D01*
X109000000Y-87120000D02*
X106880000Y-87120000D01*
X123120000Y-87120000D02*
X121000000Y-87120000D01*
X123120000Y-86500000D02*
X123120000Y-87120000D01*
X123120000Y-62880000D02*
X123120000Y-70500000D01*
X106880000Y-62880000D02*
X123120000Y-62880000D01*
%TO.C,R18*%
X83793064Y-105894200D02*
X83338936Y-105894200D01*
X83793064Y-107364200D02*
X83338936Y-107364200D01*
%TO.C,R17*%
X74649064Y-105970400D02*
X74194936Y-105970400D01*
X74649064Y-107440400D02*
X74194936Y-107440400D01*
%TO.C,R16*%
X84151736Y-96137400D02*
X84605864Y-96137400D01*
X84151736Y-94667400D02*
X84605864Y-94667400D01*
%TO.C,R15*%
X73989836Y-114730200D02*
X74443964Y-114730200D01*
X73989836Y-113260200D02*
X74443964Y-113260200D01*
%TO.C,R14*%
X83338936Y-109802600D02*
X83793064Y-109802600D01*
X83338936Y-108332600D02*
X83793064Y-108332600D01*
%TO.C,R13*%
X74066036Y-109929600D02*
X74520164Y-109929600D01*
X74066036Y-108459600D02*
X74520164Y-108459600D01*
%TO.C,R12*%
X74067936Y-112241000D02*
X74522064Y-112241000D01*
X74067936Y-110771000D02*
X74522064Y-110771000D01*
%TO.C,R11*%
X131849864Y-89358800D02*
X131395736Y-89358800D01*
X131849864Y-90828800D02*
X131395736Y-90828800D01*
%TO.C,R10*%
X131873364Y-85828200D02*
X131419236Y-85828200D01*
X131873364Y-87298200D02*
X131419236Y-87298200D01*
%TO.C,R9*%
X122426400Y-91921064D02*
X122426400Y-91466936D01*
X120956400Y-91921064D02*
X120956400Y-91466936D01*
%TO.C,R7*%
X77227064Y-86265000D02*
X76772936Y-86265000D01*
X77227064Y-87735000D02*
X76772936Y-87735000D01*
%TO.C,R6*%
X127989064Y-85802800D02*
X127534936Y-85802800D01*
X127989064Y-87272800D02*
X127534936Y-87272800D01*
%TO.C,R5*%
X80897400Y-87907864D02*
X80897400Y-87453736D01*
X79427400Y-87907864D02*
X79427400Y-87453736D01*
%TO.C,R1*%
X105306800Y-76630264D02*
X105306800Y-76176136D01*
X103836800Y-76630264D02*
X103836800Y-76176136D01*
%TO.C,C6*%
X83279348Y-113130000D02*
X83801852Y-113130000D01*
X83279348Y-111660000D02*
X83801852Y-111660000D01*
%TO.C,C5*%
X134618400Y-117456852D02*
X134618400Y-116934348D01*
X133148400Y-117456852D02*
X133148400Y-116934348D01*
%TO.C,C2*%
X102695225Y-91275000D02*
X102695225Y-91775000D01*
X102445225Y-91525000D02*
X102945225Y-91525000D01*
X107851000Y-92716000D02*
X107851000Y-93284000D01*
X107811000Y-92482000D02*
X107811000Y-93518000D01*
X107771000Y-92323000D02*
X107771000Y-93677000D01*
X107731000Y-92195000D02*
X107731000Y-93805000D01*
X107691000Y-92085000D02*
X107691000Y-93915000D01*
X107651000Y-91989000D02*
X107651000Y-94011000D01*
X107611000Y-91902000D02*
X107611000Y-94098000D01*
X107571000Y-91822000D02*
X107571000Y-94178000D01*
X107531000Y-94040000D02*
X107531000Y-94251000D01*
X107531000Y-91749000D02*
X107531000Y-91960000D01*
X107491000Y-94040000D02*
X107491000Y-94319000D01*
X107491000Y-91681000D02*
X107491000Y-91960000D01*
X107451000Y-94040000D02*
X107451000Y-94383000D01*
X107451000Y-91617000D02*
X107451000Y-91960000D01*
X107411000Y-94040000D02*
X107411000Y-94443000D01*
X107411000Y-91557000D02*
X107411000Y-91960000D01*
X107371000Y-94040000D02*
X107371000Y-94500000D01*
X107371000Y-91500000D02*
X107371000Y-91960000D01*
X107331000Y-94040000D02*
X107331000Y-94554000D01*
X107331000Y-91446000D02*
X107331000Y-91960000D01*
X107291000Y-94040000D02*
X107291000Y-94605000D01*
X107291000Y-91395000D02*
X107291000Y-91960000D01*
X107251000Y-94040000D02*
X107251000Y-94653000D01*
X107251000Y-91347000D02*
X107251000Y-91960000D01*
X107211000Y-94040000D02*
X107211000Y-94699000D01*
X107211000Y-91301000D02*
X107211000Y-91960000D01*
X107171000Y-94040000D02*
X107171000Y-94743000D01*
X107171000Y-91257000D02*
X107171000Y-91960000D01*
X107131000Y-94040000D02*
X107131000Y-94785000D01*
X107131000Y-91215000D02*
X107131000Y-91960000D01*
X107091000Y-94040000D02*
X107091000Y-94826000D01*
X107091000Y-91174000D02*
X107091000Y-91960000D01*
X107051000Y-94040000D02*
X107051000Y-94864000D01*
X107051000Y-91136000D02*
X107051000Y-91960000D01*
X107011000Y-94040000D02*
X107011000Y-94901000D01*
X107011000Y-91099000D02*
X107011000Y-91960000D01*
X106971000Y-94040000D02*
X106971000Y-94937000D01*
X106971000Y-91063000D02*
X106971000Y-91960000D01*
X106931000Y-94040000D02*
X106931000Y-94971000D01*
X106931000Y-91029000D02*
X106931000Y-91960000D01*
X106891000Y-94040000D02*
X106891000Y-95004000D01*
X106891000Y-90996000D02*
X106891000Y-91960000D01*
X106851000Y-94040000D02*
X106851000Y-95035000D01*
X106851000Y-90965000D02*
X106851000Y-91960000D01*
X106811000Y-94040000D02*
X106811000Y-95065000D01*
X106811000Y-90935000D02*
X106811000Y-91960000D01*
X106771000Y-94040000D02*
X106771000Y-95095000D01*
X106771000Y-90905000D02*
X106771000Y-91960000D01*
X106731000Y-94040000D02*
X106731000Y-95122000D01*
X106731000Y-90878000D02*
X106731000Y-91960000D01*
X106691000Y-94040000D02*
X106691000Y-95149000D01*
X106691000Y-90851000D02*
X106691000Y-91960000D01*
X106651000Y-94040000D02*
X106651000Y-95175000D01*
X106651000Y-90825000D02*
X106651000Y-91960000D01*
X106611000Y-94040000D02*
X106611000Y-95200000D01*
X106611000Y-90800000D02*
X106611000Y-91960000D01*
X106571000Y-94040000D02*
X106571000Y-95224000D01*
X106571000Y-90776000D02*
X106571000Y-91960000D01*
X106531000Y-94040000D02*
X106531000Y-95247000D01*
X106531000Y-90753000D02*
X106531000Y-91960000D01*
X106491000Y-94040000D02*
X106491000Y-95268000D01*
X106491000Y-90732000D02*
X106491000Y-91960000D01*
X106451000Y-94040000D02*
X106451000Y-95290000D01*
X106451000Y-90710000D02*
X106451000Y-91960000D01*
X106411000Y-94040000D02*
X106411000Y-95310000D01*
X106411000Y-90690000D02*
X106411000Y-91960000D01*
X106371000Y-94040000D02*
X106371000Y-95329000D01*
X106371000Y-90671000D02*
X106371000Y-91960000D01*
X106331000Y-94040000D02*
X106331000Y-95348000D01*
X106331000Y-90652000D02*
X106331000Y-91960000D01*
X106291000Y-94040000D02*
X106291000Y-95365000D01*
X106291000Y-90635000D02*
X106291000Y-91960000D01*
X106251000Y-94040000D02*
X106251000Y-95382000D01*
X106251000Y-90618000D02*
X106251000Y-91960000D01*
X106211000Y-94040000D02*
X106211000Y-95398000D01*
X106211000Y-90602000D02*
X106211000Y-91960000D01*
X106171000Y-94040000D02*
X106171000Y-95414000D01*
X106171000Y-90586000D02*
X106171000Y-91960000D01*
X106131000Y-94040000D02*
X106131000Y-95428000D01*
X106131000Y-90572000D02*
X106131000Y-91960000D01*
X106091000Y-94040000D02*
X106091000Y-95442000D01*
X106091000Y-90558000D02*
X106091000Y-91960000D01*
X106051000Y-94040000D02*
X106051000Y-95455000D01*
X106051000Y-90545000D02*
X106051000Y-91960000D01*
X106011000Y-94040000D02*
X106011000Y-95468000D01*
X106011000Y-90532000D02*
X106011000Y-91960000D01*
X105971000Y-94040000D02*
X105971000Y-95480000D01*
X105971000Y-90520000D02*
X105971000Y-91960000D01*
X105930000Y-94040000D02*
X105930000Y-95491000D01*
X105930000Y-90509000D02*
X105930000Y-91960000D01*
X105890000Y-94040000D02*
X105890000Y-95501000D01*
X105890000Y-90499000D02*
X105890000Y-91960000D01*
X105850000Y-94040000D02*
X105850000Y-95511000D01*
X105850000Y-90489000D02*
X105850000Y-91960000D01*
X105810000Y-94040000D02*
X105810000Y-95520000D01*
X105810000Y-90480000D02*
X105810000Y-91960000D01*
X105770000Y-94040000D02*
X105770000Y-95528000D01*
X105770000Y-90472000D02*
X105770000Y-91960000D01*
X105730000Y-94040000D02*
X105730000Y-95536000D01*
X105730000Y-90464000D02*
X105730000Y-91960000D01*
X105690000Y-94040000D02*
X105690000Y-95543000D01*
X105690000Y-90457000D02*
X105690000Y-91960000D01*
X105650000Y-94040000D02*
X105650000Y-95550000D01*
X105650000Y-90450000D02*
X105650000Y-91960000D01*
X105610000Y-94040000D02*
X105610000Y-95556000D01*
X105610000Y-90444000D02*
X105610000Y-91960000D01*
X105570000Y-94040000D02*
X105570000Y-95561000D01*
X105570000Y-90439000D02*
X105570000Y-91960000D01*
X105530000Y-94040000D02*
X105530000Y-95565000D01*
X105530000Y-90435000D02*
X105530000Y-91960000D01*
X105490000Y-94040000D02*
X105490000Y-95569000D01*
X105490000Y-90431000D02*
X105490000Y-91960000D01*
X105450000Y-90427000D02*
X105450000Y-95573000D01*
X105410000Y-90424000D02*
X105410000Y-95576000D01*
X105370000Y-90422000D02*
X105370000Y-95578000D01*
X105330000Y-90421000D02*
X105330000Y-95579000D01*
X105290000Y-90420000D02*
X105290000Y-95580000D01*
X105250000Y-90420000D02*
X105250000Y-95580000D01*
X107870000Y-93000000D02*
G75*
G03*
X107870000Y-93000000I-2620000J0D01*
G01*
%TO.C,C1*%
X110924748Y-91413000D02*
X111447252Y-91413000D01*
X110924748Y-89943000D02*
X111447252Y-89943000D01*
%TO.C,U1*%
X83880000Y-70555000D02*
X83500000Y-70555000D01*
X83880000Y-64135000D02*
X83880000Y-70555000D01*
X102120000Y-64135000D02*
X102120000Y-70555000D01*
X83880000Y-64135000D02*
X102120000Y-64135000D01*
X102120000Y-89880000D02*
X101120000Y-89880000D01*
X102120000Y-89100000D02*
X102120000Y-89880000D01*
X83880000Y-89880000D02*
X84880000Y-89880000D01*
X83880000Y-89100000D02*
X83880000Y-89880000D01*
%TO.C,Q1*%
X127911000Y-89615400D02*
X124311000Y-89615400D01*
X124272522Y-89626922D02*
G75*
G03*
X126111000Y-94065400I1838478J-1838478D01*
G01*
X127949478Y-89626922D02*
G75*
G02*
X126111000Y-94065400I-1838478J-1838478D01*
G01*
%TO.C,J2*%
X120463000Y-119465400D02*
X120463000Y-118135400D01*
X121793000Y-119465400D02*
X120463000Y-119465400D01*
X123063000Y-119465400D02*
X123063000Y-116805400D01*
X123063000Y-116805400D02*
X130743000Y-116805400D01*
X123063000Y-119465400D02*
X130743000Y-119465400D01*
X130743000Y-119465400D02*
X130743000Y-116805400D01*
%TO.C,J1*%
X76394000Y-119490800D02*
X76394000Y-118160800D01*
X77724000Y-119490800D02*
X76394000Y-119490800D01*
X78994000Y-119490800D02*
X78994000Y-116830800D01*
X78994000Y-116830800D02*
X86674000Y-116830800D01*
X78994000Y-119490800D02*
X86674000Y-119490800D01*
X86674000Y-119490800D02*
X86674000Y-116830800D01*
%TO.C,J3*%
D12*
X74774466Y-93686380D02*
X74774466Y-94400666D01*
X74726847Y-94543523D01*
X74631609Y-94638761D01*
X74488752Y-94686380D01*
X74393514Y-94686380D01*
X75155419Y-93686380D02*
X75774466Y-93686380D01*
X75441133Y-94067333D01*
X75583990Y-94067333D01*
X75679228Y-94114952D01*
X75726847Y-94162571D01*
X75774466Y-94257809D01*
X75774466Y-94495904D01*
X75726847Y-94591142D01*
X75679228Y-94638761D01*
X75583990Y-94686380D01*
X75298276Y-94686380D01*
X75203038Y-94638761D01*
X75155419Y-94591142D01*
%TO.C,R19*%
X71823342Y-118663980D02*
X71490009Y-118187790D01*
X71251914Y-118663980D02*
X71251914Y-117663980D01*
X71632866Y-117663980D01*
X71728104Y-117711600D01*
X71775723Y-117759219D01*
X71823342Y-117854457D01*
X71823342Y-117997314D01*
X71775723Y-118092552D01*
X71728104Y-118140171D01*
X71632866Y-118187790D01*
X71251914Y-118187790D01*
X72775723Y-118663980D02*
X72204295Y-118663980D01*
X72490009Y-118663980D02*
X72490009Y-117663980D01*
X72394771Y-117806838D01*
X72299533Y-117902076D01*
X72204295Y-117949695D01*
X73251914Y-118663980D02*
X73442390Y-118663980D01*
X73537628Y-118616361D01*
X73585247Y-118568742D01*
X73680485Y-118425885D01*
X73728104Y-118235409D01*
X73728104Y-117854457D01*
X73680485Y-117759219D01*
X73632866Y-117711600D01*
X73537628Y-117663980D01*
X73347152Y-117663980D01*
X73251914Y-117711600D01*
X73204295Y-117759219D01*
X73156676Y-117854457D01*
X73156676Y-118092552D01*
X73204295Y-118187790D01*
X73251914Y-118235409D01*
X73347152Y-118283028D01*
X73537628Y-118283028D01*
X73632866Y-118235409D01*
X73680485Y-118187790D01*
X73728104Y-118092552D01*
%TO.C,U2*%
X118287895Y-89673180D02*
X118287895Y-90482704D01*
X118335514Y-90577942D01*
X118383133Y-90625561D01*
X118478371Y-90673180D01*
X118668847Y-90673180D01*
X118764085Y-90625561D01*
X118811704Y-90577942D01*
X118859323Y-90482704D01*
X118859323Y-89673180D01*
X119287895Y-89768419D02*
X119335514Y-89720800D01*
X119430752Y-89673180D01*
X119668847Y-89673180D01*
X119764085Y-89720800D01*
X119811704Y-89768419D01*
X119859323Y-89863657D01*
X119859323Y-89958895D01*
X119811704Y-90101752D01*
X119240276Y-90673180D01*
X119859323Y-90673180D01*
%TO.C,R18*%
X86529942Y-107157780D02*
X86196609Y-106681590D01*
X85958514Y-107157780D02*
X85958514Y-106157780D01*
X86339466Y-106157780D01*
X86434704Y-106205400D01*
X86482323Y-106253019D01*
X86529942Y-106348257D01*
X86529942Y-106491114D01*
X86482323Y-106586352D01*
X86434704Y-106633971D01*
X86339466Y-106681590D01*
X85958514Y-106681590D01*
X87482323Y-107157780D02*
X86910895Y-107157780D01*
X87196609Y-107157780D02*
X87196609Y-106157780D01*
X87101371Y-106300638D01*
X87006133Y-106395876D01*
X86910895Y-106443495D01*
X88053752Y-106586352D02*
X87958514Y-106538733D01*
X87910895Y-106491114D01*
X87863276Y-106395876D01*
X87863276Y-106348257D01*
X87910895Y-106253019D01*
X87958514Y-106205400D01*
X88053752Y-106157780D01*
X88244228Y-106157780D01*
X88339466Y-106205400D01*
X88387085Y-106253019D01*
X88434704Y-106348257D01*
X88434704Y-106395876D01*
X88387085Y-106491114D01*
X88339466Y-106538733D01*
X88244228Y-106586352D01*
X88053752Y-106586352D01*
X87958514Y-106633971D01*
X87910895Y-106681590D01*
X87863276Y-106776828D01*
X87863276Y-106967304D01*
X87910895Y-107062542D01*
X87958514Y-107110161D01*
X88053752Y-107157780D01*
X88244228Y-107157780D01*
X88339466Y-107110161D01*
X88387085Y-107062542D01*
X88434704Y-106967304D01*
X88434704Y-106776828D01*
X88387085Y-106681590D01*
X88339466Y-106633971D01*
X88244228Y-106586352D01*
%TO.C,R17*%
X77258942Y-107157780D02*
X76925609Y-106681590D01*
X76687514Y-107157780D02*
X76687514Y-106157780D01*
X77068466Y-106157780D01*
X77163704Y-106205400D01*
X77211323Y-106253019D01*
X77258942Y-106348257D01*
X77258942Y-106491114D01*
X77211323Y-106586352D01*
X77163704Y-106633971D01*
X77068466Y-106681590D01*
X76687514Y-106681590D01*
X78211323Y-107157780D02*
X77639895Y-107157780D01*
X77925609Y-107157780D02*
X77925609Y-106157780D01*
X77830371Y-106300638D01*
X77735133Y-106395876D01*
X77639895Y-106443495D01*
X78544657Y-106157780D02*
X79211323Y-106157780D01*
X78782752Y-107157780D01*
%TO.C,R16*%
X87291942Y-95803980D02*
X86958609Y-95327790D01*
X86720514Y-95803980D02*
X86720514Y-94803980D01*
X87101466Y-94803980D01*
X87196704Y-94851600D01*
X87244323Y-94899219D01*
X87291942Y-94994457D01*
X87291942Y-95137314D01*
X87244323Y-95232552D01*
X87196704Y-95280171D01*
X87101466Y-95327790D01*
X86720514Y-95327790D01*
X88244323Y-95803980D02*
X87672895Y-95803980D01*
X87958609Y-95803980D02*
X87958609Y-94803980D01*
X87863371Y-94946838D01*
X87768133Y-95042076D01*
X87672895Y-95089695D01*
X89101466Y-94803980D02*
X88910990Y-94803980D01*
X88815752Y-94851600D01*
X88768133Y-94899219D01*
X88672895Y-95042076D01*
X88625276Y-95232552D01*
X88625276Y-95613504D01*
X88672895Y-95708742D01*
X88720514Y-95756361D01*
X88815752Y-95803980D01*
X89006228Y-95803980D01*
X89101466Y-95756361D01*
X89149085Y-95708742D01*
X89196704Y-95613504D01*
X89196704Y-95375409D01*
X89149085Y-95280171D01*
X89101466Y-95232552D01*
X89006228Y-95184933D01*
X88815752Y-95184933D01*
X88720514Y-95232552D01*
X88672895Y-95280171D01*
X88625276Y-95375409D01*
%TO.C,R15*%
X77258942Y-114244380D02*
X76925609Y-113768190D01*
X76687514Y-114244380D02*
X76687514Y-113244380D01*
X77068466Y-113244380D01*
X77163704Y-113292000D01*
X77211323Y-113339619D01*
X77258942Y-113434857D01*
X77258942Y-113577714D01*
X77211323Y-113672952D01*
X77163704Y-113720571D01*
X77068466Y-113768190D01*
X76687514Y-113768190D01*
X78211323Y-114244380D02*
X77639895Y-114244380D01*
X77925609Y-114244380D02*
X77925609Y-113244380D01*
X77830371Y-113387238D01*
X77735133Y-113482476D01*
X77639895Y-113530095D01*
X79116085Y-113244380D02*
X78639895Y-113244380D01*
X78592276Y-113720571D01*
X78639895Y-113672952D01*
X78735133Y-113625333D01*
X78973228Y-113625333D01*
X79068466Y-113672952D01*
X79116085Y-113720571D01*
X79163704Y-113815809D01*
X79163704Y-114053904D01*
X79116085Y-114149142D01*
X79068466Y-114196761D01*
X78973228Y-114244380D01*
X78735133Y-114244380D01*
X78639895Y-114196761D01*
X78592276Y-114149142D01*
%TO.C,R14*%
X86479142Y-109367580D02*
X86145809Y-108891390D01*
X85907714Y-109367580D02*
X85907714Y-108367580D01*
X86288666Y-108367580D01*
X86383904Y-108415200D01*
X86431523Y-108462819D01*
X86479142Y-108558057D01*
X86479142Y-108700914D01*
X86431523Y-108796152D01*
X86383904Y-108843771D01*
X86288666Y-108891390D01*
X85907714Y-108891390D01*
X87431523Y-109367580D02*
X86860095Y-109367580D01*
X87145809Y-109367580D02*
X87145809Y-108367580D01*
X87050571Y-108510438D01*
X86955333Y-108605676D01*
X86860095Y-108653295D01*
X88288666Y-108700914D02*
X88288666Y-109367580D01*
X88050571Y-108319961D02*
X87812476Y-109034247D01*
X88431523Y-109034247D01*
%TO.C,R13*%
X77258942Y-109646980D02*
X76925609Y-109170790D01*
X76687514Y-109646980D02*
X76687514Y-108646980D01*
X77068466Y-108646980D01*
X77163704Y-108694600D01*
X77211323Y-108742219D01*
X77258942Y-108837457D01*
X77258942Y-108980314D01*
X77211323Y-109075552D01*
X77163704Y-109123171D01*
X77068466Y-109170790D01*
X76687514Y-109170790D01*
X78211323Y-109646980D02*
X77639895Y-109646980D01*
X77925609Y-109646980D02*
X77925609Y-108646980D01*
X77830371Y-108789838D01*
X77735133Y-108885076D01*
X77639895Y-108932695D01*
X78544657Y-108646980D02*
X79163704Y-108646980D01*
X78830371Y-109027933D01*
X78973228Y-109027933D01*
X79068466Y-109075552D01*
X79116085Y-109123171D01*
X79163704Y-109218409D01*
X79163704Y-109456504D01*
X79116085Y-109551742D01*
X79068466Y-109599361D01*
X78973228Y-109646980D01*
X78687514Y-109646980D01*
X78592276Y-109599361D01*
X78544657Y-109551742D01*
%TO.C,R12*%
X77208142Y-111958380D02*
X76874809Y-111482190D01*
X76636714Y-111958380D02*
X76636714Y-110958380D01*
X77017666Y-110958380D01*
X77112904Y-111006000D01*
X77160523Y-111053619D01*
X77208142Y-111148857D01*
X77208142Y-111291714D01*
X77160523Y-111386952D01*
X77112904Y-111434571D01*
X77017666Y-111482190D01*
X76636714Y-111482190D01*
X78160523Y-111958380D02*
X77589095Y-111958380D01*
X77874809Y-111958380D02*
X77874809Y-110958380D01*
X77779571Y-111101238D01*
X77684333Y-111196476D01*
X77589095Y-111244095D01*
X78541476Y-111053619D02*
X78589095Y-111006000D01*
X78684333Y-110958380D01*
X78922428Y-110958380D01*
X79017666Y-111006000D01*
X79065285Y-111053619D01*
X79112904Y-111148857D01*
X79112904Y-111244095D01*
X79065285Y-111386952D01*
X78493857Y-111958380D01*
X79112904Y-111958380D01*
%TO.C,R11*%
X130979942Y-92196180D02*
X130646609Y-91719990D01*
X130408514Y-92196180D02*
X130408514Y-91196180D01*
X130789466Y-91196180D01*
X130884704Y-91243800D01*
X130932323Y-91291419D01*
X130979942Y-91386657D01*
X130979942Y-91529514D01*
X130932323Y-91624752D01*
X130884704Y-91672371D01*
X130789466Y-91719990D01*
X130408514Y-91719990D01*
X131932323Y-92196180D02*
X131360895Y-92196180D01*
X131646609Y-92196180D02*
X131646609Y-91196180D01*
X131551371Y-91339038D01*
X131456133Y-91434276D01*
X131360895Y-91481895D01*
X132884704Y-92196180D02*
X132313276Y-92196180D01*
X132598990Y-92196180D02*
X132598990Y-91196180D01*
X132503752Y-91339038D01*
X132408514Y-91434276D01*
X132313276Y-91481895D01*
%TO.C,R10*%
X131003442Y-88665580D02*
X130670109Y-88189390D01*
X130432014Y-88665580D02*
X130432014Y-87665580D01*
X130812966Y-87665580D01*
X130908204Y-87713200D01*
X130955823Y-87760819D01*
X131003442Y-87856057D01*
X131003442Y-87998914D01*
X130955823Y-88094152D01*
X130908204Y-88141771D01*
X130812966Y-88189390D01*
X130432014Y-88189390D01*
X131955823Y-88665580D02*
X131384395Y-88665580D01*
X131670109Y-88665580D02*
X131670109Y-87665580D01*
X131574871Y-87808438D01*
X131479633Y-87903676D01*
X131384395Y-87951295D01*
X132574871Y-87665580D02*
X132670109Y-87665580D01*
X132765347Y-87713200D01*
X132812966Y-87760819D01*
X132860585Y-87856057D01*
X132908204Y-88046533D01*
X132908204Y-88284628D01*
X132860585Y-88475104D01*
X132812966Y-88570342D01*
X132765347Y-88617961D01*
X132670109Y-88665580D01*
X132574871Y-88665580D01*
X132479633Y-88617961D01*
X132432014Y-88570342D01*
X132384395Y-88475104D01*
X132336776Y-88284628D01*
X132336776Y-88046533D01*
X132384395Y-87856057D01*
X132432014Y-87760819D01*
X132479633Y-87713200D01*
X132574871Y-87665580D01*
%TO.C,R9*%
X121473933Y-94787980D02*
X121140600Y-94311790D01*
X120902504Y-94787980D02*
X120902504Y-93787980D01*
X121283457Y-93787980D01*
X121378695Y-93835600D01*
X121426314Y-93883219D01*
X121473933Y-93978457D01*
X121473933Y-94121314D01*
X121426314Y-94216552D01*
X121378695Y-94264171D01*
X121283457Y-94311790D01*
X120902504Y-94311790D01*
X121950123Y-94787980D02*
X122140600Y-94787980D01*
X122235838Y-94740361D01*
X122283457Y-94692742D01*
X122378695Y-94549885D01*
X122426314Y-94359409D01*
X122426314Y-93978457D01*
X122378695Y-93883219D01*
X122331076Y-93835600D01*
X122235838Y-93787980D01*
X122045361Y-93787980D01*
X121950123Y-93835600D01*
X121902504Y-93883219D01*
X121854885Y-93978457D01*
X121854885Y-94216552D01*
X121902504Y-94311790D01*
X121950123Y-94359409D01*
X122045361Y-94407028D01*
X122235838Y-94407028D01*
X122331076Y-94359409D01*
X122378695Y-94311790D01*
X122426314Y-94216552D01*
%TO.C,R7*%
X76833333Y-89102380D02*
X76500000Y-88626190D01*
X76261904Y-89102380D02*
X76261904Y-88102380D01*
X76642857Y-88102380D01*
X76738095Y-88150000D01*
X76785714Y-88197619D01*
X76833333Y-88292857D01*
X76833333Y-88435714D01*
X76785714Y-88530952D01*
X76738095Y-88578571D01*
X76642857Y-88626190D01*
X76261904Y-88626190D01*
X77166666Y-88102380D02*
X77833333Y-88102380D01*
X77404761Y-89102380D01*
%TO.C,R6*%
X127595333Y-88640180D02*
X127262000Y-88163990D01*
X127023904Y-88640180D02*
X127023904Y-87640180D01*
X127404857Y-87640180D01*
X127500095Y-87687800D01*
X127547714Y-87735419D01*
X127595333Y-87830657D01*
X127595333Y-87973514D01*
X127547714Y-88068752D01*
X127500095Y-88116371D01*
X127404857Y-88163990D01*
X127023904Y-88163990D01*
X128452476Y-87640180D02*
X128262000Y-87640180D01*
X128166761Y-87687800D01*
X128119142Y-87735419D01*
X128023904Y-87878276D01*
X127976285Y-88068752D01*
X127976285Y-88449704D01*
X128023904Y-88544942D01*
X128071523Y-88592561D01*
X128166761Y-88640180D01*
X128357238Y-88640180D01*
X128452476Y-88592561D01*
X128500095Y-88544942D01*
X128547714Y-88449704D01*
X128547714Y-88211609D01*
X128500095Y-88116371D01*
X128452476Y-88068752D01*
X128357238Y-88021133D01*
X128166761Y-88021133D01*
X128071523Y-88068752D01*
X128023904Y-88116371D01*
X127976285Y-88211609D01*
%TO.C,R5*%
X80021133Y-90825580D02*
X79687800Y-90349390D01*
X79449704Y-90825580D02*
X79449704Y-89825580D01*
X79830657Y-89825580D01*
X79925895Y-89873200D01*
X79973514Y-89920819D01*
X80021133Y-90016057D01*
X80021133Y-90158914D01*
X79973514Y-90254152D01*
X79925895Y-90301771D01*
X79830657Y-90349390D01*
X79449704Y-90349390D01*
X80925895Y-89825580D02*
X80449704Y-89825580D01*
X80402085Y-90301771D01*
X80449704Y-90254152D01*
X80544942Y-90206533D01*
X80783038Y-90206533D01*
X80878276Y-90254152D01*
X80925895Y-90301771D01*
X80973514Y-90397009D01*
X80973514Y-90635104D01*
X80925895Y-90730342D01*
X80878276Y-90777961D01*
X80783038Y-90825580D01*
X80544942Y-90825580D01*
X80449704Y-90777961D01*
X80402085Y-90730342D01*
%TO.C,R1*%
X105049580Y-73801266D02*
X104573390Y-74134600D01*
X105049580Y-74372695D02*
X104049580Y-74372695D01*
X104049580Y-73991742D01*
X104097200Y-73896504D01*
X104144819Y-73848885D01*
X104240057Y-73801266D01*
X104382914Y-73801266D01*
X104478152Y-73848885D01*
X104525771Y-73896504D01*
X104573390Y-73991742D01*
X104573390Y-74372695D01*
X105049580Y-72848885D02*
X105049580Y-73420314D01*
X105049580Y-73134600D02*
X104049580Y-73134600D01*
X104192438Y-73229838D01*
X104287676Y-73325076D01*
X104335295Y-73420314D01*
%TO.C,C6*%
X86371133Y-112650542D02*
X86323514Y-112698161D01*
X86180657Y-112745780D01*
X86085419Y-112745780D01*
X85942561Y-112698161D01*
X85847323Y-112602923D01*
X85799704Y-112507685D01*
X85752085Y-112317209D01*
X85752085Y-112174352D01*
X85799704Y-111983876D01*
X85847323Y-111888638D01*
X85942561Y-111793400D01*
X86085419Y-111745780D01*
X86180657Y-111745780D01*
X86323514Y-111793400D01*
X86371133Y-111841019D01*
X87228276Y-111745780D02*
X87037800Y-111745780D01*
X86942561Y-111793400D01*
X86894942Y-111841019D01*
X86799704Y-111983876D01*
X86752085Y-112174352D01*
X86752085Y-112555304D01*
X86799704Y-112650542D01*
X86847323Y-112698161D01*
X86942561Y-112745780D01*
X87133038Y-112745780D01*
X87228276Y-112698161D01*
X87275895Y-112650542D01*
X87323514Y-112555304D01*
X87323514Y-112317209D01*
X87275895Y-112221971D01*
X87228276Y-112174352D01*
X87133038Y-112126733D01*
X86942561Y-112126733D01*
X86847323Y-112174352D01*
X86799704Y-112221971D01*
X86752085Y-112317209D01*
%TO.C,C5*%
X133716733Y-114707942D02*
X133669114Y-114755561D01*
X133526257Y-114803180D01*
X133431019Y-114803180D01*
X133288161Y-114755561D01*
X133192923Y-114660323D01*
X133145304Y-114565085D01*
X133097685Y-114374609D01*
X133097685Y-114231752D01*
X133145304Y-114041276D01*
X133192923Y-113946038D01*
X133288161Y-113850800D01*
X133431019Y-113803180D01*
X133526257Y-113803180D01*
X133669114Y-113850800D01*
X133716733Y-113898419D01*
X134621495Y-113803180D02*
X134145304Y-113803180D01*
X134097685Y-114279371D01*
X134145304Y-114231752D01*
X134240542Y-114184133D01*
X134478638Y-114184133D01*
X134573876Y-114231752D01*
X134621495Y-114279371D01*
X134669114Y-114374609D01*
X134669114Y-114612704D01*
X134621495Y-114707942D01*
X134573876Y-114755561D01*
X134478638Y-114803180D01*
X134240542Y-114803180D01*
X134145304Y-114755561D01*
X134097685Y-114707942D01*
%TO.C,C2*%
X105083333Y-89607142D02*
X105035714Y-89654761D01*
X104892857Y-89702380D01*
X104797619Y-89702380D01*
X104654761Y-89654761D01*
X104559523Y-89559523D01*
X104511904Y-89464285D01*
X104464285Y-89273809D01*
X104464285Y-89130952D01*
X104511904Y-88940476D01*
X104559523Y-88845238D01*
X104654761Y-88750000D01*
X104797619Y-88702380D01*
X104892857Y-88702380D01*
X105035714Y-88750000D01*
X105083333Y-88797619D01*
X105464285Y-88797619D02*
X105511904Y-88750000D01*
X105607142Y-88702380D01*
X105845238Y-88702380D01*
X105940476Y-88750000D01*
X105988095Y-88797619D01*
X106035714Y-88892857D01*
X106035714Y-88988095D01*
X105988095Y-89130952D01*
X105416666Y-89702380D01*
X106035714Y-89702380D01*
%TO.C,C1*%
X111019333Y-89355142D02*
X110971714Y-89402761D01*
X110828857Y-89450380D01*
X110733619Y-89450380D01*
X110590761Y-89402761D01*
X110495523Y-89307523D01*
X110447904Y-89212285D01*
X110400285Y-89021809D01*
X110400285Y-88878952D01*
X110447904Y-88688476D01*
X110495523Y-88593238D01*
X110590761Y-88498000D01*
X110733619Y-88450380D01*
X110828857Y-88450380D01*
X110971714Y-88498000D01*
X111019333Y-88545619D01*
X111971714Y-89450380D02*
X111400285Y-89450380D01*
X111686000Y-89450380D02*
X111686000Y-88450380D01*
X111590761Y-88593238D01*
X111495523Y-88688476D01*
X111400285Y-88736095D01*
%TO.C,U1*%
X85445695Y-92390980D02*
X85445695Y-93200504D01*
X85493314Y-93295742D01*
X85540933Y-93343361D01*
X85636171Y-93390980D01*
X85826647Y-93390980D01*
X85921885Y-93343361D01*
X85969504Y-93295742D01*
X86017123Y-93200504D01*
X86017123Y-92390980D01*
X87017123Y-93390980D02*
X86445695Y-93390980D01*
X86731409Y-93390980D02*
X86731409Y-92390980D01*
X86636171Y-92533838D01*
X86540933Y-92629076D01*
X86445695Y-92676695D01*
%TO.C,Q1*%
X126015761Y-95573019D02*
X125920523Y-95525400D01*
X125825285Y-95430161D01*
X125682428Y-95287304D01*
X125587190Y-95239685D01*
X125491952Y-95239685D01*
X125539571Y-95477780D02*
X125444333Y-95430161D01*
X125349095Y-95334923D01*
X125301476Y-95144447D01*
X125301476Y-94811114D01*
X125349095Y-94620638D01*
X125444333Y-94525400D01*
X125539571Y-94477780D01*
X125730047Y-94477780D01*
X125825285Y-94525400D01*
X125920523Y-94620638D01*
X125968142Y-94811114D01*
X125968142Y-95144447D01*
X125920523Y-95334923D01*
X125825285Y-95430161D01*
X125730047Y-95477780D01*
X125539571Y-95477780D01*
X126920523Y-95477780D02*
X126349095Y-95477780D01*
X126634809Y-95477780D02*
X126634809Y-94477780D01*
X126539571Y-94620638D01*
X126444333Y-94715876D01*
X126349095Y-94763495D01*
%TO.C,J2*%
X118915380Y-118468733D02*
X119629666Y-118468733D01*
X119772523Y-118516352D01*
X119867761Y-118611590D01*
X119915380Y-118754447D01*
X119915380Y-118849685D01*
X119010619Y-118040161D02*
X118963000Y-117992542D01*
X118915380Y-117897304D01*
X118915380Y-117659209D01*
X118963000Y-117563971D01*
X119010619Y-117516352D01*
X119105857Y-117468733D01*
X119201095Y-117468733D01*
X119343952Y-117516352D01*
X119915380Y-118087780D01*
X119915380Y-117468733D01*
%TO.C,J1*%
X74846380Y-118494133D02*
X75560666Y-118494133D01*
X75703523Y-118541752D01*
X75798761Y-118636990D01*
X75846380Y-118779847D01*
X75846380Y-118875085D01*
X75846380Y-117494133D02*
X75846380Y-118065561D01*
X75846380Y-117779847D02*
X74846380Y-117779847D01*
X74989238Y-117875085D01*
X75084476Y-117970323D01*
X75132095Y-118065561D01*
%TD*%
M02*
