%TF.GenerationSoftware,KiCad,Pcbnew,5.1.9+dfsg1-1*%
%TF.CreationDate,2021-05-21T09:37:11+02:00*%
%TF.ProjectId,vscp-din-m1-wireless-p1,76736370-2d64-4696-9e2d-6d312d776972,rev?*%
%TF.SameCoordinates,Original*%
%TF.FileFunction,Copper,L2,Bot*%
%TF.FilePolarity,Positive*%
%FSLAX46Y46*%
G04 Gerber Fmt 4.6, Leading zero omitted, Abs format (unit mm)*
G04 Created by KiCad (PCBNEW 5.1.9+dfsg1-1) date 2021-05-21 09:37:11*
%MOMM*%
%LPD*%
G01*
G04 APERTURE LIST*
%TA.AperFunction,ComponentPad*%
%ADD10O,1.700000X1.700000*%
%TD*%
%TA.AperFunction,ComponentPad*%
%ADD11R,1.700000X1.700000*%
%TD*%
%TA.AperFunction,ComponentPad*%
%ADD12C,1.600000*%
%TD*%
%TA.AperFunction,ComponentPad*%
%ADD13R,1.600000X1.600000*%
%TD*%
%TA.AperFunction,ComponentPad*%
%ADD14R,1.050000X1.500000*%
%TD*%
%TA.AperFunction,ComponentPad*%
%ADD15O,1.050000X1.500000*%
%TD*%
%TA.AperFunction,ViaPad*%
%ADD16C,0.800000*%
%TD*%
%TA.AperFunction,Conductor*%
%ADD17C,0.250000*%
%TD*%
%TA.AperFunction,Conductor*%
%ADD18C,0.500000*%
%TD*%
%TA.AperFunction,Conductor*%
%ADD19C,0.254000*%
%TD*%
%TA.AperFunction,Conductor*%
%ADD20C,0.100000*%
%TD*%
G04 APERTURE END LIST*
D10*
%TO.P,J3,6*%
%TO.N,GND*%
X72110600Y-99695000D03*
%TO.P,J3,5*%
%TO.N,VCC*%
X72110600Y-97155000D03*
%TO.P,J3,4*%
%TO.N,/RESET*%
X72110600Y-94615000D03*
%TO.P,J3,3*%
%TO.N,/RXD*%
X72110600Y-92075000D03*
%TO.P,J3,2*%
%TO.N,/TXD*%
X72110600Y-89535000D03*
D11*
%TO.P,J3,1*%
%TO.N,/FLASH*%
X72110600Y-86995000D03*
%TD*%
%TO.P,R8,2*%
%TO.N,Net-(R8-Pad2)*%
%TA.AperFunction,SMDPad,CuDef*%
G36*
G01*
X115284200Y-91102601D02*
X115284200Y-90202599D01*
G75*
G02*
X115534199Y-89952600I249999J0D01*
G01*
X116059201Y-89952600D01*
G75*
G02*
X116309200Y-90202599I0J-249999D01*
G01*
X116309200Y-91102601D01*
G75*
G02*
X116059201Y-91352600I-249999J0D01*
G01*
X115534199Y-91352600D01*
G75*
G02*
X115284200Y-91102601I0J249999D01*
G01*
G37*
%TD.AperFunction*%
%TO.P,R8,1*%
%TO.N,GND*%
%TA.AperFunction,SMDPad,CuDef*%
G36*
G01*
X113459200Y-91102601D02*
X113459200Y-90202599D01*
G75*
G02*
X113709199Y-89952600I249999J0D01*
G01*
X114234201Y-89952600D01*
G75*
G02*
X114484200Y-90202599I0J-249999D01*
G01*
X114484200Y-91102601D01*
G75*
G02*
X114234201Y-91352600I-249999J0D01*
G01*
X113709199Y-91352600D01*
G75*
G02*
X113459200Y-91102601I0J249999D01*
G01*
G37*
%TD.AperFunction*%
%TD*%
%TO.P,R4,2*%
%TO.N,Net-(R4-Pad2)*%
%TA.AperFunction,SMDPad,CuDef*%
G36*
G01*
X110700400Y-90177600D02*
X110700400Y-91127600D01*
G75*
G02*
X110450400Y-91377600I-250000J0D01*
G01*
X109950400Y-91377600D01*
G75*
G02*
X109700400Y-91127600I0J250000D01*
G01*
X109700400Y-90177600D01*
G75*
G02*
X109950400Y-89927600I250000J0D01*
G01*
X110450400Y-89927600D01*
G75*
G02*
X110700400Y-90177600I0J-250000D01*
G01*
G37*
%TD.AperFunction*%
%TO.P,R4,1*%
%TO.N,/RESET*%
%TA.AperFunction,SMDPad,CuDef*%
G36*
G01*
X112600400Y-90177600D02*
X112600400Y-91127600D01*
G75*
G02*
X112350400Y-91377600I-250000J0D01*
G01*
X111850400Y-91377600D01*
G75*
G02*
X111600400Y-91127600I0J250000D01*
G01*
X111600400Y-90177600D01*
G75*
G02*
X111850400Y-89927600I250000J0D01*
G01*
X112350400Y-89927600D01*
G75*
G02*
X112600400Y-90177600I0J-250000D01*
G01*
G37*
%TD.AperFunction*%
%TD*%
%TO.P,R3,2*%
%TO.N,/RESET*%
%TA.AperFunction,SMDPad,CuDef*%
G36*
G01*
X111411599Y-72815400D02*
X112311601Y-72815400D01*
G75*
G02*
X112561600Y-73065399I0J-249999D01*
G01*
X112561600Y-73590401D01*
G75*
G02*
X112311601Y-73840400I-249999J0D01*
G01*
X111411599Y-73840400D01*
G75*
G02*
X111161600Y-73590401I0J249999D01*
G01*
X111161600Y-73065399D01*
G75*
G02*
X111411599Y-72815400I249999J0D01*
G01*
G37*
%TD.AperFunction*%
%TO.P,R3,1*%
%TO.N,Net-(R3-Pad1)*%
%TA.AperFunction,SMDPad,CuDef*%
G36*
G01*
X111411599Y-70990400D02*
X112311601Y-70990400D01*
G75*
G02*
X112561600Y-71240399I0J-249999D01*
G01*
X112561600Y-71765401D01*
G75*
G02*
X112311601Y-72015400I-249999J0D01*
G01*
X111411599Y-72015400D01*
G75*
G02*
X111161600Y-71765401I0J249999D01*
G01*
X111161600Y-71240399D01*
G75*
G02*
X111411599Y-70990400I249999J0D01*
G01*
G37*
%TD.AperFunction*%
%TD*%
%TO.P,R2,2*%
%TO.N,/RESET*%
%TA.AperFunction,SMDPad,CuDef*%
G36*
G01*
X112311601Y-75673000D02*
X111411599Y-75673000D01*
G75*
G02*
X111161600Y-75423001I0J249999D01*
G01*
X111161600Y-74897999D01*
G75*
G02*
X111411599Y-74648000I249999J0D01*
G01*
X112311601Y-74648000D01*
G75*
G02*
X112561600Y-74897999I0J-249999D01*
G01*
X112561600Y-75423001D01*
G75*
G02*
X112311601Y-75673000I-249999J0D01*
G01*
G37*
%TD.AperFunction*%
%TO.P,R2,1*%
%TO.N,VCC*%
%TA.AperFunction,SMDPad,CuDef*%
G36*
G01*
X112311601Y-77498000D02*
X111411599Y-77498000D01*
G75*
G02*
X111161600Y-77248001I0J249999D01*
G01*
X111161600Y-76722999D01*
G75*
G02*
X111411599Y-76473000I249999J0D01*
G01*
X112311601Y-76473000D01*
G75*
G02*
X112561600Y-76722999I0J-249999D01*
G01*
X112561600Y-77248001D01*
G75*
G02*
X112311601Y-77498000I-249999J0D01*
G01*
G37*
%TD.AperFunction*%
%TD*%
%TO.P,C4,2*%
%TO.N,GND*%
%TA.AperFunction,SMDPad,CuDef*%
G36*
G01*
X89908400Y-72219400D02*
X88958400Y-72219400D01*
G75*
G02*
X88708400Y-71969400I0J250000D01*
G01*
X88708400Y-71469400D01*
G75*
G02*
X88958400Y-71219400I250000J0D01*
G01*
X89908400Y-71219400D01*
G75*
G02*
X90158400Y-71469400I0J-250000D01*
G01*
X90158400Y-71969400D01*
G75*
G02*
X89908400Y-72219400I-250000J0D01*
G01*
G37*
%TD.AperFunction*%
%TO.P,C4,1*%
%TO.N,VCC*%
%TA.AperFunction,SMDPad,CuDef*%
G36*
G01*
X89908400Y-74119400D02*
X88958400Y-74119400D01*
G75*
G02*
X88708400Y-73869400I0J250000D01*
G01*
X88708400Y-73369400D01*
G75*
G02*
X88958400Y-73119400I250000J0D01*
G01*
X89908400Y-73119400D01*
G75*
G02*
X90158400Y-73369400I0J-250000D01*
G01*
X90158400Y-73869400D01*
G75*
G02*
X89908400Y-74119400I-250000J0D01*
G01*
G37*
%TD.AperFunction*%
%TD*%
%TO.P,C3,2*%
%TO.N,GND*%
%TA.AperFunction,SMDPad,CuDef*%
G36*
G01*
X105021400Y-72168600D02*
X104071400Y-72168600D01*
G75*
G02*
X103821400Y-71918600I0J250000D01*
G01*
X103821400Y-71418600D01*
G75*
G02*
X104071400Y-71168600I250000J0D01*
G01*
X105021400Y-71168600D01*
G75*
G02*
X105271400Y-71418600I0J-250000D01*
G01*
X105271400Y-71918600D01*
G75*
G02*
X105021400Y-72168600I-250000J0D01*
G01*
G37*
%TD.AperFunction*%
%TO.P,C3,1*%
%TO.N,/RESET*%
%TA.AperFunction,SMDPad,CuDef*%
G36*
G01*
X105021400Y-74068600D02*
X104071400Y-74068600D01*
G75*
G02*
X103821400Y-73818600I0J250000D01*
G01*
X103821400Y-73318600D01*
G75*
G02*
X104071400Y-73068600I250000J0D01*
G01*
X105021400Y-73068600D01*
G75*
G02*
X105271400Y-73318600I0J-250000D01*
G01*
X105271400Y-73818600D01*
G75*
G02*
X105021400Y-74068600I-250000J0D01*
G01*
G37*
%TD.AperFunction*%
%TD*%
D12*
%TO.P,C2,2*%
%TO.N,GND*%
X106500000Y-93000000D03*
D13*
%TO.P,C2,1*%
%TO.N,VCC*%
X104000000Y-93000000D03*
%TD*%
D14*
%TO.P,Q1,1*%
%TO.N,Net-(Q1-Pad1)*%
X127381000Y-91465400D03*
D15*
%TO.P,Q1,3*%
%TO.N,GND*%
X124841000Y-91465400D03*
%TO.P,Q1,2*%
%TO.N,Net-(J1-Pad3)*%
X126111000Y-91465400D03*
%TD*%
D10*
%TO.P,J2,4*%
%TO.N,VCC*%
X129413000Y-118135400D03*
%TO.P,J2,3*%
%TO.N,Net-(J2-Pad3)*%
X126873000Y-118135400D03*
%TO.P,J2,2*%
%TO.N,Net-(J2-Pad2)*%
X124333000Y-118135400D03*
D11*
%TO.P,J2,1*%
%TO.N,GND*%
X121793000Y-118135400D03*
%TD*%
D10*
%TO.P,J1,4*%
%TO.N,GND*%
X85344000Y-118160800D03*
%TO.P,J1,3*%
%TO.N,Net-(J1-Pad3)*%
X82804000Y-118160800D03*
%TO.P,J1,2*%
%TO.N,Net-(J1-Pad2)*%
X80264000Y-118160800D03*
D11*
%TO.P,J1,1*%
%TO.N,VDD*%
X77724000Y-118160800D03*
%TD*%
D16*
%TO.N,Net-(J1-Pad3)*%
X80797400Y-110769400D03*
%TO.N,Net-(J1-Pad2)*%
X80264000Y-118160800D03*
%TO.N,GND*%
X115011200Y-78155800D03*
X108051600Y-102971600D03*
X91973400Y-84124800D03*
X87299800Y-91490800D03*
X97688400Y-72440800D03*
X122199400Y-102793800D03*
X118313200Y-78028800D03*
X124968000Y-87452200D03*
X112039400Y-82753200D03*
X80467200Y-100228400D03*
X80060800Y-107315000D03*
X77393800Y-94335600D03*
X71805800Y-112699800D03*
%TO.N,VCC*%
X86817200Y-72999600D03*
X104546400Y-79146400D03*
X118668800Y-95732600D03*
X104165400Y-82550000D03*
X96951800Y-82397600D03*
X99009200Y-79121000D03*
%TO.N,/RESET*%
X87122000Y-78765400D03*
X84099400Y-91033600D03*
%TO.N,Net-(R3-Pad1)*%
X109982000Y-71551800D03*
%TO.N,Net-(R4-Pad2)*%
X112242600Y-79705200D03*
%TO.N,Net-(R5-Pad2)*%
X87325200Y-86766400D03*
X76657200Y-85625000D03*
%TO.N,Net-(R8-Pad2)*%
X115925600Y-82600800D03*
%TO.N,/RXD*%
X115925600Y-74396600D03*
%TO.N,Net-(R16-Pad2)*%
X89865200Y-94538800D03*
X88214200Y-82423000D03*
%TD*%
D17*
%TO.N,Net-(J1-Pad3)*%
X80797400Y-110769400D02*
X80797400Y-113284000D01*
X82804000Y-115290600D02*
X82804000Y-118160800D01*
X80797400Y-113284000D02*
X82804000Y-115290600D01*
%TO.N,GND*%
X122021600Y-102971600D02*
X122199400Y-102793800D01*
X108051600Y-102971600D02*
X122021600Y-102971600D01*
X124968000Y-91338400D02*
X124841000Y-91465400D01*
X124968000Y-87452200D02*
X124968000Y-91338400D01*
D18*
%TO.N,VCC*%
X89433400Y-73619400D02*
X87894200Y-73619400D01*
X87274400Y-72999600D02*
X86817200Y-72999600D01*
X87894200Y-73619400D02*
X87274400Y-72999600D01*
X118668800Y-95732600D02*
X104876600Y-95732600D01*
X104000000Y-94856000D02*
X104000000Y-93000000D01*
X104876600Y-95732600D02*
X104000000Y-94856000D01*
X109700700Y-79146400D02*
X111861600Y-76985500D01*
X104546400Y-79146400D02*
X109700700Y-79146400D01*
X104165400Y-82550000D02*
X97256600Y-82550000D01*
X97104200Y-82397600D02*
X96951800Y-82397600D01*
X97256600Y-82550000D02*
X97104200Y-82397600D01*
X104521000Y-79121000D02*
X104546400Y-79146400D01*
X99009200Y-79121000D02*
X104521000Y-79121000D01*
%TO.N,/RESET*%
X111861600Y-75160500D02*
X111861600Y-73327900D01*
D17*
X111861600Y-73327900D02*
X110847500Y-73327900D01*
X110606800Y-73568600D02*
X104546400Y-73568600D01*
X110847500Y-73327900D02*
X110606800Y-73568600D01*
X111861600Y-75160500D02*
X112494700Y-75160500D01*
X112100400Y-85352998D02*
X112100400Y-90652600D01*
X116650601Y-80802797D02*
X112100400Y-85352998D01*
X113983601Y-73671599D02*
X116273601Y-73671599D01*
X116650601Y-74048599D02*
X116650601Y-80802797D01*
X116273601Y-73671599D02*
X116650601Y-74048599D01*
X112494700Y-75160500D02*
X113983601Y-73671599D01*
X104546400Y-73568600D02*
X102473800Y-75641200D01*
X102473800Y-75641200D02*
X87452200Y-75641200D01*
X87452200Y-75641200D02*
X87122000Y-75971400D01*
X87122000Y-75971400D02*
X87122000Y-78765400D01*
X84099400Y-91033600D02*
X77749400Y-91033600D01*
X74168000Y-94615000D02*
X72110600Y-94615000D01*
X77749400Y-91033600D02*
X74168000Y-94615000D01*
%TO.N,Net-(R3-Pad1)*%
X110030900Y-71502900D02*
X109982000Y-71551800D01*
X111861600Y-71502900D02*
X110030900Y-71502900D01*
%TO.N,Net-(R4-Pad2)*%
X112242600Y-79705200D02*
X111633000Y-79705200D01*
X110200400Y-81137800D02*
X110200400Y-90652600D01*
X111633000Y-79705200D02*
X110200400Y-81137800D01*
%TO.N,Net-(R5-Pad2)*%
X72674601Y-90710001D02*
X74276790Y-89107812D01*
X70935599Y-91510999D02*
X71736597Y-90710001D01*
X71736597Y-90710001D02*
X72674601Y-90710001D01*
X71546599Y-93250001D02*
X70935599Y-92639001D01*
X70935599Y-92639001D02*
X70935599Y-91510999D01*
X72674601Y-93250001D02*
X71546599Y-93250001D01*
X74276790Y-87748400D02*
X76401790Y-85623400D01*
X78682792Y-87241810D02*
X72674601Y-93250001D01*
X74276790Y-89107812D02*
X74276790Y-87748400D01*
X86849790Y-87241810D02*
X78682792Y-87241810D01*
X87325200Y-86766400D02*
X86849790Y-87241810D01*
X76655600Y-85623400D02*
X76657200Y-85625000D01*
X76401790Y-85623400D02*
X76655600Y-85623400D01*
%TO.N,Net-(R8-Pad2)*%
X115925600Y-90523700D02*
X115796700Y-90652600D01*
X115925600Y-82600800D02*
X115925600Y-90523700D01*
%TO.N,/RXD*%
X115925600Y-74396600D02*
X114503200Y-75819000D01*
X114503200Y-75869590D02*
X109499190Y-80873600D01*
X114503200Y-75819000D02*
X114503200Y-75869590D01*
X109499190Y-80873600D02*
X83083400Y-80873600D01*
X81350010Y-82606990D02*
X81350010Y-85400990D01*
X83083400Y-80873600D02*
X81350010Y-82606990D01*
X81350010Y-85400990D02*
X79959200Y-86791800D01*
X79959200Y-86791800D02*
X75869800Y-86791800D01*
X75869800Y-86791800D02*
X74752200Y-87909400D01*
X74752200Y-88632402D02*
X74726800Y-88657802D01*
X74752200Y-87909400D02*
X74752200Y-88632402D01*
X74726800Y-88657802D02*
X74726800Y-90500200D01*
X73152000Y-92075000D02*
X72110600Y-92075000D01*
X74726800Y-90500200D02*
X73152000Y-92075000D01*
%TO.N,Net-(R16-Pad2)*%
X89865200Y-94538800D02*
X90805000Y-93599000D01*
X90805000Y-93599000D02*
X90805000Y-85242400D01*
X90805000Y-85242400D02*
X88061800Y-82499200D01*
X88138000Y-82499200D02*
X88214200Y-82423000D01*
X88061800Y-82499200D02*
X88138000Y-82499200D01*
%TD*%
D19*
%TO.N,GND*%
X125247400Y-85318600D02*
X125249840Y-85343376D01*
X125257067Y-85367201D01*
X125268803Y-85389157D01*
X125284597Y-85408403D01*
X125303843Y-85424197D01*
X125325799Y-85435933D01*
X125349624Y-85443160D01*
X125373008Y-85445592D01*
X125513145Y-85447129D01*
X125531052Y-85468948D01*
X125631550Y-85551425D01*
X125746207Y-85612710D01*
X125870617Y-85650450D01*
X126000000Y-85663193D01*
X126032419Y-85660000D01*
X136340001Y-85660000D01*
X136340000Y-109644061D01*
X136146540Y-119202439D01*
X130435072Y-119213435D01*
X130566475Y-119082032D01*
X130728990Y-118838811D01*
X130840932Y-118568558D01*
X130898000Y-118281660D01*
X130898000Y-117989140D01*
X130840932Y-117702242D01*
X130728990Y-117431989D01*
X130566475Y-117188768D01*
X130359632Y-116981925D01*
X130116411Y-116819410D01*
X129846158Y-116707468D01*
X129559260Y-116650400D01*
X129266740Y-116650400D01*
X128979842Y-116707468D01*
X128709589Y-116819410D01*
X128466368Y-116981925D01*
X128259525Y-117188768D01*
X128143000Y-117363160D01*
X128026475Y-117188768D01*
X127819632Y-116981925D01*
X127576411Y-116819410D01*
X127306158Y-116707468D01*
X127019260Y-116650400D01*
X126726740Y-116650400D01*
X126439842Y-116707468D01*
X126169589Y-116819410D01*
X125926368Y-116981925D01*
X125719525Y-117188768D01*
X125603000Y-117363160D01*
X125486475Y-117188768D01*
X125279632Y-116981925D01*
X125036411Y-116819410D01*
X124766158Y-116707468D01*
X124479260Y-116650400D01*
X124186740Y-116650400D01*
X123899842Y-116707468D01*
X123629589Y-116819410D01*
X123386368Y-116981925D01*
X123254513Y-117113780D01*
X123232502Y-117041220D01*
X123173537Y-116930906D01*
X123094185Y-116834215D01*
X122997494Y-116754863D01*
X122887180Y-116695898D01*
X122767482Y-116659588D01*
X122643000Y-116647328D01*
X122078750Y-116650400D01*
X121920000Y-116809150D01*
X121920000Y-118008400D01*
X121940000Y-118008400D01*
X121940000Y-118262400D01*
X121920000Y-118262400D01*
X121920000Y-118282400D01*
X121666000Y-118282400D01*
X121666000Y-118262400D01*
X120466750Y-118262400D01*
X120308000Y-118421150D01*
X120304928Y-118985400D01*
X120317188Y-119109882D01*
X120353498Y-119229580D01*
X120355242Y-119232842D01*
X86290590Y-119298427D01*
X86344269Y-119258388D01*
X86539178Y-119042155D01*
X86688157Y-118792052D01*
X86785481Y-118517691D01*
X86664814Y-118287800D01*
X85471000Y-118287800D01*
X85471000Y-118307800D01*
X85217000Y-118307800D01*
X85217000Y-118287800D01*
X85197000Y-118287800D01*
X85197000Y-118033800D01*
X85217000Y-118033800D01*
X85217000Y-116840645D01*
X85471000Y-116840645D01*
X85471000Y-118033800D01*
X86664814Y-118033800D01*
X86785481Y-117803909D01*
X86688157Y-117529548D01*
X86542726Y-117285400D01*
X120304928Y-117285400D01*
X120308000Y-117849650D01*
X120466750Y-118008400D01*
X121666000Y-118008400D01*
X121666000Y-116809150D01*
X121507250Y-116650400D01*
X120943000Y-116647328D01*
X120818518Y-116659588D01*
X120698820Y-116695898D01*
X120588506Y-116754863D01*
X120491815Y-116834215D01*
X120412463Y-116930906D01*
X120353498Y-117041220D01*
X120317188Y-117160918D01*
X120304928Y-117285400D01*
X86542726Y-117285400D01*
X86539178Y-117279445D01*
X86344269Y-117063212D01*
X86110920Y-116889159D01*
X85848099Y-116763975D01*
X85700890Y-116719324D01*
X85471000Y-116840645D01*
X85217000Y-116840645D01*
X84987110Y-116719324D01*
X84839901Y-116763975D01*
X84577080Y-116889159D01*
X84343731Y-117063212D01*
X84148822Y-117279445D01*
X84079195Y-117396334D01*
X83957475Y-117214168D01*
X83750632Y-117007325D01*
X83564000Y-116882622D01*
X83564000Y-115327923D01*
X83567676Y-115290600D01*
X83564000Y-115253277D01*
X83564000Y-115253267D01*
X83553003Y-115141614D01*
X83509546Y-114998353D01*
X83438975Y-114866325D01*
X83438974Y-114866323D01*
X83367799Y-114779597D01*
X83344001Y-114750599D01*
X83315004Y-114726802D01*
X81557400Y-112969199D01*
X81557400Y-111473111D01*
X81601337Y-111429174D01*
X81714605Y-111259656D01*
X81792626Y-111071298D01*
X81832400Y-110871339D01*
X81832400Y-110667461D01*
X81792626Y-110467502D01*
X81714605Y-110279144D01*
X81601337Y-110109626D01*
X81457174Y-109965463D01*
X81287656Y-109852195D01*
X81099298Y-109774174D01*
X80899339Y-109734400D01*
X80695461Y-109734400D01*
X80495502Y-109774174D01*
X80307144Y-109852195D01*
X80137626Y-109965463D01*
X79993463Y-110109626D01*
X79880195Y-110279144D01*
X79802174Y-110467502D01*
X79762400Y-110667461D01*
X79762400Y-110871339D01*
X79802174Y-111071298D01*
X79880195Y-111259656D01*
X79993463Y-111429174D01*
X80037400Y-111473111D01*
X80037401Y-113246668D01*
X80033724Y-113284000D01*
X80048398Y-113432985D01*
X80091854Y-113576246D01*
X80162426Y-113708276D01*
X80233601Y-113795002D01*
X80257400Y-113824001D01*
X80286398Y-113847799D01*
X82044000Y-115605402D01*
X82044001Y-116882621D01*
X81857368Y-117007325D01*
X81650525Y-117214168D01*
X81534000Y-117388560D01*
X81417475Y-117214168D01*
X81210632Y-117007325D01*
X80967411Y-116844810D01*
X80697158Y-116732868D01*
X80410260Y-116675800D01*
X80117740Y-116675800D01*
X79830842Y-116732868D01*
X79560589Y-116844810D01*
X79317368Y-117007325D01*
X79185513Y-117139180D01*
X79163502Y-117066620D01*
X79104537Y-116956306D01*
X79025185Y-116859615D01*
X78928494Y-116780263D01*
X78818180Y-116721298D01*
X78698482Y-116684988D01*
X78574000Y-116672728D01*
X76874000Y-116672728D01*
X76749518Y-116684988D01*
X76629820Y-116721298D01*
X76519506Y-116780263D01*
X76422815Y-116859615D01*
X76343463Y-116956306D01*
X76284498Y-117066620D01*
X76248188Y-117186318D01*
X76235928Y-117310800D01*
X76235928Y-119010800D01*
X76248188Y-119135282D01*
X76284498Y-119254980D01*
X76317984Y-119317627D01*
X70660000Y-119328520D01*
X70660000Y-99822002D01*
X70790444Y-99822002D01*
X70669124Y-100051890D01*
X70713775Y-100199099D01*
X70838959Y-100461920D01*
X71013012Y-100695269D01*
X71229245Y-100890178D01*
X71479348Y-101039157D01*
X71753709Y-101136481D01*
X71983600Y-101015814D01*
X71983600Y-99822000D01*
X72237600Y-99822000D01*
X72237600Y-101015814D01*
X72467491Y-101136481D01*
X72741852Y-101039157D01*
X72991955Y-100890178D01*
X73208188Y-100695269D01*
X73382241Y-100461920D01*
X73507425Y-100199099D01*
X73552076Y-100051890D01*
X73430755Y-99822000D01*
X72237600Y-99822000D01*
X71983600Y-99822000D01*
X71963600Y-99822000D01*
X71963600Y-99568000D01*
X71983600Y-99568000D01*
X71983600Y-99548000D01*
X72237600Y-99548000D01*
X72237600Y-99568000D01*
X73430755Y-99568000D01*
X73552076Y-99338110D01*
X73507425Y-99190901D01*
X73382241Y-98928080D01*
X73208188Y-98694731D01*
X72991955Y-98499822D01*
X72875066Y-98430195D01*
X73057232Y-98308475D01*
X73264075Y-98101632D01*
X73426590Y-97858411D01*
X73538532Y-97588158D01*
X73595600Y-97301260D01*
X73595600Y-97008740D01*
X73538532Y-96721842D01*
X73426590Y-96451589D01*
X73264075Y-96208368D01*
X73057232Y-96001525D01*
X72882840Y-95885000D01*
X73057232Y-95768475D01*
X73264075Y-95561632D01*
X73388778Y-95375000D01*
X74130678Y-95375000D01*
X74168000Y-95378676D01*
X74205322Y-95375000D01*
X74205333Y-95375000D01*
X74316986Y-95364003D01*
X74460247Y-95320546D01*
X74592276Y-95249974D01*
X74708001Y-95155001D01*
X74731804Y-95125997D01*
X78064203Y-91793600D01*
X83395689Y-91793600D01*
X83439626Y-91837537D01*
X83609144Y-91950805D01*
X83797502Y-92028826D01*
X83997461Y-92068600D01*
X84201339Y-92068600D01*
X84401298Y-92028826D01*
X84589656Y-91950805D01*
X84759174Y-91837537D01*
X84903337Y-91693374D01*
X85016605Y-91523856D01*
X85094626Y-91335498D01*
X85134400Y-91135539D01*
X85134400Y-90931661D01*
X85094626Y-90731702D01*
X85016605Y-90543344D01*
X84903337Y-90373826D01*
X84759174Y-90229663D01*
X84589656Y-90116395D01*
X84401298Y-90038374D01*
X84201339Y-89998600D01*
X83997461Y-89998600D01*
X83797502Y-90038374D01*
X83609144Y-90116395D01*
X83439626Y-90229663D01*
X83395689Y-90273600D01*
X77786722Y-90273600D01*
X77749399Y-90269924D01*
X77712076Y-90273600D01*
X77712067Y-90273600D01*
X77600414Y-90284597D01*
X77457153Y-90328054D01*
X77325124Y-90398626D01*
X77325122Y-90398627D01*
X77325123Y-90398627D01*
X77238396Y-90469801D01*
X77238392Y-90469805D01*
X77209399Y-90493599D01*
X77185605Y-90522592D01*
X73853199Y-93855000D01*
X73388778Y-93855000D01*
X73290895Y-93708508D01*
X78997594Y-88001810D01*
X86812468Y-88001810D01*
X86849790Y-88005486D01*
X86887112Y-88001810D01*
X86887123Y-88001810D01*
X86998776Y-87990813D01*
X87142037Y-87947356D01*
X87274066Y-87876784D01*
X87365922Y-87801400D01*
X87427139Y-87801400D01*
X87627098Y-87761626D01*
X87815456Y-87683605D01*
X87984974Y-87570337D01*
X88129137Y-87426174D01*
X88242405Y-87256656D01*
X88320426Y-87068298D01*
X88360200Y-86868339D01*
X88360200Y-86664461D01*
X88320426Y-86464502D01*
X88242405Y-86276144D01*
X88129137Y-86106626D01*
X87984974Y-85962463D01*
X87815456Y-85849195D01*
X87627098Y-85771174D01*
X87427139Y-85731400D01*
X87223261Y-85731400D01*
X87023302Y-85771174D01*
X86834944Y-85849195D01*
X86665426Y-85962463D01*
X86521263Y-86106626D01*
X86407995Y-86276144D01*
X86329974Y-86464502D01*
X86326531Y-86481810D01*
X81343992Y-86481810D01*
X81861013Y-85964789D01*
X81890011Y-85940991D01*
X81984984Y-85825266D01*
X82055556Y-85693237D01*
X82099013Y-85549976D01*
X82110010Y-85438323D01*
X82110010Y-85438314D01*
X82113686Y-85400991D01*
X82110010Y-85363668D01*
X82110010Y-82921791D01*
X83398202Y-81633600D01*
X87539889Y-81633600D01*
X87410263Y-81763226D01*
X87296995Y-81932744D01*
X87218974Y-82121102D01*
X87179200Y-82321061D01*
X87179200Y-82524939D01*
X87218974Y-82724898D01*
X87296995Y-82913256D01*
X87410263Y-83082774D01*
X87554426Y-83226937D01*
X87723944Y-83340205D01*
X87901586Y-83413787D01*
X90045001Y-85557203D01*
X90045000Y-93284198D01*
X89825398Y-93503800D01*
X89763261Y-93503800D01*
X89563302Y-93543574D01*
X89374944Y-93621595D01*
X89205426Y-93734863D01*
X89061263Y-93879026D01*
X88947995Y-94048544D01*
X88869974Y-94236902D01*
X88830200Y-94436861D01*
X88830200Y-94640739D01*
X88869974Y-94840698D01*
X88947995Y-95029056D01*
X89061263Y-95198574D01*
X89205426Y-95342737D01*
X89374944Y-95456005D01*
X89563302Y-95534026D01*
X89763261Y-95573800D01*
X89967139Y-95573800D01*
X90167098Y-95534026D01*
X90355456Y-95456005D01*
X90524974Y-95342737D01*
X90669137Y-95198574D01*
X90782405Y-95029056D01*
X90860426Y-94840698D01*
X90900200Y-94640739D01*
X90900200Y-94578602D01*
X91316004Y-94162798D01*
X91345001Y-94139001D01*
X91397526Y-94074999D01*
X91439974Y-94023277D01*
X91510546Y-93891247D01*
X91521541Y-93855000D01*
X91554003Y-93747986D01*
X91565000Y-93636333D01*
X91565000Y-93636323D01*
X91568676Y-93599000D01*
X91565000Y-93561677D01*
X91565000Y-92200000D01*
X102561928Y-92200000D01*
X102561928Y-93800000D01*
X102574188Y-93924482D01*
X102610498Y-94044180D01*
X102669463Y-94154494D01*
X102748815Y-94251185D01*
X102845506Y-94330537D01*
X102955820Y-94389502D01*
X103075518Y-94425812D01*
X103115000Y-94429701D01*
X103115000Y-94812531D01*
X103110719Y-94856000D01*
X103115000Y-94899469D01*
X103115000Y-94899476D01*
X103127805Y-95029489D01*
X103178411Y-95196312D01*
X103260589Y-95350058D01*
X103371183Y-95484817D01*
X103404956Y-95512534D01*
X104220070Y-96327649D01*
X104247783Y-96361417D01*
X104281551Y-96389130D01*
X104281553Y-96389132D01*
X104382541Y-96472011D01*
X104536286Y-96554189D01*
X104703110Y-96604795D01*
X104833123Y-96617600D01*
X104833131Y-96617600D01*
X104876600Y-96621881D01*
X104920069Y-96617600D01*
X118130346Y-96617600D01*
X118178544Y-96649805D01*
X118366902Y-96727826D01*
X118566861Y-96767600D01*
X118770739Y-96767600D01*
X118970698Y-96727826D01*
X119159056Y-96649805D01*
X119328574Y-96536537D01*
X119472737Y-96392374D01*
X119586005Y-96222856D01*
X119664026Y-96034498D01*
X119703800Y-95834539D01*
X119703800Y-95630661D01*
X119664026Y-95430702D01*
X119586005Y-95242344D01*
X119472737Y-95072826D01*
X119328574Y-94928663D01*
X119159056Y-94815395D01*
X118970698Y-94737374D01*
X118770739Y-94697600D01*
X118566861Y-94697600D01*
X118366902Y-94737374D01*
X118178544Y-94815395D01*
X118130346Y-94847600D01*
X105243179Y-94847600D01*
X104885000Y-94489422D01*
X104885000Y-94429701D01*
X104924482Y-94425812D01*
X105044180Y-94389502D01*
X105154494Y-94330537D01*
X105251185Y-94251185D01*
X105330537Y-94154494D01*
X105389502Y-94044180D01*
X105405117Y-93992702D01*
X105686903Y-93992702D01*
X105758486Y-94236671D01*
X106013996Y-94357571D01*
X106288184Y-94426300D01*
X106570512Y-94440217D01*
X106850130Y-94398787D01*
X107116292Y-94303603D01*
X107241514Y-94236671D01*
X107313097Y-93992702D01*
X106500000Y-93179605D01*
X105686903Y-93992702D01*
X105405117Y-93992702D01*
X105425812Y-93924482D01*
X105438072Y-93800000D01*
X105438072Y-93792785D01*
X105507298Y-93813097D01*
X106320395Y-93000000D01*
X106679605Y-93000000D01*
X107492702Y-93813097D01*
X107736671Y-93741514D01*
X107857571Y-93486004D01*
X107926300Y-93211816D01*
X107940217Y-92929488D01*
X107898787Y-92649870D01*
X107803603Y-92383708D01*
X107736671Y-92258486D01*
X107492702Y-92186903D01*
X106679605Y-93000000D01*
X106320395Y-93000000D01*
X105507298Y-92186903D01*
X105438072Y-92207215D01*
X105438072Y-92200000D01*
X105425812Y-92075518D01*
X105405118Y-92007298D01*
X105686903Y-92007298D01*
X106500000Y-92820395D01*
X107313097Y-92007298D01*
X107241514Y-91763329D01*
X106986004Y-91642429D01*
X106711816Y-91573700D01*
X106429488Y-91559783D01*
X106149870Y-91601213D01*
X105883708Y-91696397D01*
X105758486Y-91763329D01*
X105686903Y-92007298D01*
X105405118Y-92007298D01*
X105389502Y-91955820D01*
X105330537Y-91845506D01*
X105251185Y-91748815D01*
X105154494Y-91669463D01*
X105044180Y-91610498D01*
X104924482Y-91574188D01*
X104800000Y-91561928D01*
X103200000Y-91561928D01*
X103075518Y-91574188D01*
X102955820Y-91610498D01*
X102845506Y-91669463D01*
X102748815Y-91748815D01*
X102669463Y-91845506D01*
X102610498Y-91955820D01*
X102574188Y-92075518D01*
X102561928Y-92200000D01*
X91565000Y-92200000D01*
X91565000Y-85279725D01*
X91568676Y-85242400D01*
X91565000Y-85205075D01*
X91565000Y-85205067D01*
X91554003Y-85093414D01*
X91510546Y-84950153D01*
X91439974Y-84818124D01*
X91345001Y-84702399D01*
X91316003Y-84678601D01*
X89234789Y-82597388D01*
X89249200Y-82524939D01*
X89249200Y-82321061D01*
X89209426Y-82121102D01*
X89131405Y-81932744D01*
X89018137Y-81763226D01*
X88888511Y-81633600D01*
X96252089Y-81633600D01*
X96147863Y-81737826D01*
X96034595Y-81907344D01*
X95956574Y-82095702D01*
X95916800Y-82295661D01*
X95916800Y-82499539D01*
X95956574Y-82699498D01*
X96034595Y-82887856D01*
X96147863Y-83057374D01*
X96292026Y-83201537D01*
X96461544Y-83314805D01*
X96649902Y-83392826D01*
X96849861Y-83432600D01*
X97053739Y-83432600D01*
X97098452Y-83423706D01*
X97213123Y-83435000D01*
X97213133Y-83435000D01*
X97256599Y-83439281D01*
X97300065Y-83435000D01*
X103626946Y-83435000D01*
X103675144Y-83467205D01*
X103863502Y-83545226D01*
X104063461Y-83585000D01*
X104267339Y-83585000D01*
X104467298Y-83545226D01*
X104655656Y-83467205D01*
X104825174Y-83353937D01*
X104969337Y-83209774D01*
X105082605Y-83040256D01*
X105160626Y-82851898D01*
X105200400Y-82651939D01*
X105200400Y-82448061D01*
X105160626Y-82248102D01*
X105082605Y-82059744D01*
X104969337Y-81890226D01*
X104825174Y-81746063D01*
X104656861Y-81633600D01*
X109440400Y-81633600D01*
X109440401Y-89452829D01*
X109322438Y-89549638D01*
X109211995Y-89684214D01*
X109129928Y-89837750D01*
X109079392Y-90004346D01*
X109062328Y-90177600D01*
X109062328Y-91127600D01*
X109079392Y-91300854D01*
X109129928Y-91467450D01*
X109211995Y-91620986D01*
X109322438Y-91755562D01*
X109457014Y-91866005D01*
X109610550Y-91948072D01*
X109777146Y-91998608D01*
X109950400Y-92015672D01*
X110450400Y-92015672D01*
X110623654Y-91998608D01*
X110790250Y-91948072D01*
X110943786Y-91866005D01*
X111078362Y-91755562D01*
X111150400Y-91667783D01*
X111222438Y-91755562D01*
X111357014Y-91866005D01*
X111510550Y-91948072D01*
X111677146Y-91998608D01*
X111850400Y-92015672D01*
X112350400Y-92015672D01*
X112523654Y-91998608D01*
X112690250Y-91948072D01*
X112843786Y-91866005D01*
X112972433Y-91760428D01*
X113008015Y-91803785D01*
X113104706Y-91883137D01*
X113215020Y-91942102D01*
X113334718Y-91978412D01*
X113459200Y-91990672D01*
X113685950Y-91987600D01*
X113844700Y-91828850D01*
X113844700Y-90779600D01*
X113824700Y-90779600D01*
X113824700Y-90525600D01*
X113844700Y-90525600D01*
X113844700Y-89476350D01*
X113685950Y-89317600D01*
X113459200Y-89314528D01*
X113334718Y-89326788D01*
X113215020Y-89363098D01*
X113104706Y-89422063D01*
X113008015Y-89501415D01*
X112972433Y-89544772D01*
X112860400Y-89452830D01*
X112860400Y-85667799D01*
X115165600Y-83362599D01*
X115165601Y-89397494D01*
X115040813Y-89464195D01*
X114959563Y-89530876D01*
X114935385Y-89501415D01*
X114838694Y-89422063D01*
X114728380Y-89363098D01*
X114608682Y-89326788D01*
X114484200Y-89314528D01*
X114257450Y-89317600D01*
X114098700Y-89476350D01*
X114098700Y-90525600D01*
X114118700Y-90525600D01*
X114118700Y-90779600D01*
X114098700Y-90779600D01*
X114098700Y-91828850D01*
X114257450Y-91987600D01*
X114484200Y-91990672D01*
X114608682Y-91978412D01*
X114728380Y-91942102D01*
X114838694Y-91883137D01*
X114935385Y-91803785D01*
X114959563Y-91774324D01*
X115040813Y-91841005D01*
X115194349Y-91923072D01*
X115360945Y-91973608D01*
X115534199Y-91990672D01*
X116059201Y-91990672D01*
X116232455Y-91973608D01*
X116399051Y-91923072D01*
X116552587Y-91841005D01*
X116631909Y-91775907D01*
X123674669Y-91775907D01*
X123713761Y-92001804D01*
X123796172Y-92215734D01*
X123918736Y-92409476D01*
X124076742Y-92575584D01*
X124264118Y-92707675D01*
X124473663Y-92800672D01*
X124535190Y-92809364D01*
X124714000Y-92683563D01*
X124714000Y-91592400D01*
X123834402Y-91592400D01*
X123674669Y-91775907D01*
X116631909Y-91775907D01*
X116687162Y-91730562D01*
X116797605Y-91595987D01*
X116879672Y-91442451D01*
X116930208Y-91275855D01*
X116942121Y-91154893D01*
X123674669Y-91154893D01*
X123834402Y-91338400D01*
X124714000Y-91338400D01*
X124714000Y-91183421D01*
X124951000Y-91183421D01*
X124951000Y-91747378D01*
X124967785Y-91917799D01*
X124968000Y-91918508D01*
X124968000Y-92683563D01*
X125146810Y-92809364D01*
X125208337Y-92800672D01*
X125417882Y-92707675D01*
X125476331Y-92666471D01*
X125664940Y-92767285D01*
X125883600Y-92833615D01*
X126111000Y-92856012D01*
X126338399Y-92833615D01*
X126547098Y-92770307D01*
X126611820Y-92804902D01*
X126731518Y-92841212D01*
X126856000Y-92853472D01*
X127906000Y-92853472D01*
X128030482Y-92841212D01*
X128150180Y-92804902D01*
X128260494Y-92745937D01*
X128357185Y-92666585D01*
X128436537Y-92569894D01*
X128495502Y-92459580D01*
X128531812Y-92339882D01*
X128544072Y-92215400D01*
X128544072Y-90715400D01*
X128531812Y-90590918D01*
X128495502Y-90471220D01*
X128436537Y-90360906D01*
X128357185Y-90264215D01*
X128260494Y-90184863D01*
X128150180Y-90125898D01*
X128030482Y-90089588D01*
X127906000Y-90077328D01*
X126856000Y-90077328D01*
X126731518Y-90089588D01*
X126611820Y-90125898D01*
X126547098Y-90160493D01*
X126338400Y-90097185D01*
X126111000Y-90074788D01*
X125883601Y-90097185D01*
X125664941Y-90163515D01*
X125476331Y-90264329D01*
X125417882Y-90223125D01*
X125208337Y-90130128D01*
X125146810Y-90121436D01*
X124968000Y-90247237D01*
X124968000Y-91012291D01*
X124967785Y-91013000D01*
X124951000Y-91183421D01*
X124714000Y-91183421D01*
X124714000Y-90247237D01*
X124535190Y-90121436D01*
X124473663Y-90130128D01*
X124264118Y-90223125D01*
X124076742Y-90355216D01*
X123918736Y-90521324D01*
X123796172Y-90715066D01*
X123713761Y-90928996D01*
X123674669Y-91154893D01*
X116942121Y-91154893D01*
X116947272Y-91102601D01*
X116947272Y-90202599D01*
X116930208Y-90029345D01*
X116879672Y-89862749D01*
X116797605Y-89709213D01*
X116687162Y-89574638D01*
X116685600Y-89573356D01*
X116685600Y-83304511D01*
X116729537Y-83260574D01*
X116842805Y-83091056D01*
X116920826Y-82902698D01*
X116960600Y-82702739D01*
X116960600Y-82498861D01*
X116920826Y-82298902D01*
X116842805Y-82110544D01*
X116729537Y-81941026D01*
X116658355Y-81869844D01*
X117161604Y-81366596D01*
X117190602Y-81342798D01*
X117236571Y-81286785D01*
X117285575Y-81227074D01*
X117356147Y-81095044D01*
X117399604Y-80951783D01*
X117410601Y-80840130D01*
X117410601Y-80840120D01*
X117414277Y-80802797D01*
X117410601Y-80765474D01*
X117410601Y-74085932D01*
X117414278Y-74048599D01*
X117399604Y-73899613D01*
X117356147Y-73756352D01*
X117335425Y-73717585D01*
X117285575Y-73624323D01*
X117190602Y-73508598D01*
X117161599Y-73484796D01*
X116837405Y-73160602D01*
X116813602Y-73131598D01*
X116697877Y-73036625D01*
X116565848Y-72966053D01*
X116422587Y-72922596D01*
X116310934Y-72911599D01*
X116310923Y-72911599D01*
X116273601Y-72907923D01*
X116236279Y-72911599D01*
X114020923Y-72911599D01*
X113983601Y-72907923D01*
X113946278Y-72911599D01*
X113946268Y-72911599D01*
X113834615Y-72922596D01*
X113691354Y-72966053D01*
X113559324Y-73036625D01*
X113480227Y-73101539D01*
X113443600Y-73131598D01*
X113419802Y-73160596D01*
X113199672Y-73380726D01*
X113199672Y-73065399D01*
X113182608Y-72892145D01*
X113132072Y-72725549D01*
X113050005Y-72572013D01*
X112939562Y-72437438D01*
X112912709Y-72415400D01*
X112939562Y-72393362D01*
X113050005Y-72258787D01*
X113132072Y-72105251D01*
X113182608Y-71938655D01*
X113199672Y-71765401D01*
X113199672Y-71240399D01*
X113182608Y-71067145D01*
X113132072Y-70900549D01*
X113064761Y-70774619D01*
X125247400Y-70739368D01*
X125247400Y-85318600D01*
%TA.AperFunction,Conductor*%
D20*
G36*
X125247400Y-85318600D02*
G01*
X125249840Y-85343376D01*
X125257067Y-85367201D01*
X125268803Y-85389157D01*
X125284597Y-85408403D01*
X125303843Y-85424197D01*
X125325799Y-85435933D01*
X125349624Y-85443160D01*
X125373008Y-85445592D01*
X125513145Y-85447129D01*
X125531052Y-85468948D01*
X125631550Y-85551425D01*
X125746207Y-85612710D01*
X125870617Y-85650450D01*
X126000000Y-85663193D01*
X126032419Y-85660000D01*
X136340001Y-85660000D01*
X136340000Y-109644061D01*
X136146540Y-119202439D01*
X130435072Y-119213435D01*
X130566475Y-119082032D01*
X130728990Y-118838811D01*
X130840932Y-118568558D01*
X130898000Y-118281660D01*
X130898000Y-117989140D01*
X130840932Y-117702242D01*
X130728990Y-117431989D01*
X130566475Y-117188768D01*
X130359632Y-116981925D01*
X130116411Y-116819410D01*
X129846158Y-116707468D01*
X129559260Y-116650400D01*
X129266740Y-116650400D01*
X128979842Y-116707468D01*
X128709589Y-116819410D01*
X128466368Y-116981925D01*
X128259525Y-117188768D01*
X128143000Y-117363160D01*
X128026475Y-117188768D01*
X127819632Y-116981925D01*
X127576411Y-116819410D01*
X127306158Y-116707468D01*
X127019260Y-116650400D01*
X126726740Y-116650400D01*
X126439842Y-116707468D01*
X126169589Y-116819410D01*
X125926368Y-116981925D01*
X125719525Y-117188768D01*
X125603000Y-117363160D01*
X125486475Y-117188768D01*
X125279632Y-116981925D01*
X125036411Y-116819410D01*
X124766158Y-116707468D01*
X124479260Y-116650400D01*
X124186740Y-116650400D01*
X123899842Y-116707468D01*
X123629589Y-116819410D01*
X123386368Y-116981925D01*
X123254513Y-117113780D01*
X123232502Y-117041220D01*
X123173537Y-116930906D01*
X123094185Y-116834215D01*
X122997494Y-116754863D01*
X122887180Y-116695898D01*
X122767482Y-116659588D01*
X122643000Y-116647328D01*
X122078750Y-116650400D01*
X121920000Y-116809150D01*
X121920000Y-118008400D01*
X121940000Y-118008400D01*
X121940000Y-118262400D01*
X121920000Y-118262400D01*
X121920000Y-118282400D01*
X121666000Y-118282400D01*
X121666000Y-118262400D01*
X120466750Y-118262400D01*
X120308000Y-118421150D01*
X120304928Y-118985400D01*
X120317188Y-119109882D01*
X120353498Y-119229580D01*
X120355242Y-119232842D01*
X86290590Y-119298427D01*
X86344269Y-119258388D01*
X86539178Y-119042155D01*
X86688157Y-118792052D01*
X86785481Y-118517691D01*
X86664814Y-118287800D01*
X85471000Y-118287800D01*
X85471000Y-118307800D01*
X85217000Y-118307800D01*
X85217000Y-118287800D01*
X85197000Y-118287800D01*
X85197000Y-118033800D01*
X85217000Y-118033800D01*
X85217000Y-116840645D01*
X85471000Y-116840645D01*
X85471000Y-118033800D01*
X86664814Y-118033800D01*
X86785481Y-117803909D01*
X86688157Y-117529548D01*
X86542726Y-117285400D01*
X120304928Y-117285400D01*
X120308000Y-117849650D01*
X120466750Y-118008400D01*
X121666000Y-118008400D01*
X121666000Y-116809150D01*
X121507250Y-116650400D01*
X120943000Y-116647328D01*
X120818518Y-116659588D01*
X120698820Y-116695898D01*
X120588506Y-116754863D01*
X120491815Y-116834215D01*
X120412463Y-116930906D01*
X120353498Y-117041220D01*
X120317188Y-117160918D01*
X120304928Y-117285400D01*
X86542726Y-117285400D01*
X86539178Y-117279445D01*
X86344269Y-117063212D01*
X86110920Y-116889159D01*
X85848099Y-116763975D01*
X85700890Y-116719324D01*
X85471000Y-116840645D01*
X85217000Y-116840645D01*
X84987110Y-116719324D01*
X84839901Y-116763975D01*
X84577080Y-116889159D01*
X84343731Y-117063212D01*
X84148822Y-117279445D01*
X84079195Y-117396334D01*
X83957475Y-117214168D01*
X83750632Y-117007325D01*
X83564000Y-116882622D01*
X83564000Y-115327923D01*
X83567676Y-115290600D01*
X83564000Y-115253277D01*
X83564000Y-115253267D01*
X83553003Y-115141614D01*
X83509546Y-114998353D01*
X83438975Y-114866325D01*
X83438974Y-114866323D01*
X83367799Y-114779597D01*
X83344001Y-114750599D01*
X83315004Y-114726802D01*
X81557400Y-112969199D01*
X81557400Y-111473111D01*
X81601337Y-111429174D01*
X81714605Y-111259656D01*
X81792626Y-111071298D01*
X81832400Y-110871339D01*
X81832400Y-110667461D01*
X81792626Y-110467502D01*
X81714605Y-110279144D01*
X81601337Y-110109626D01*
X81457174Y-109965463D01*
X81287656Y-109852195D01*
X81099298Y-109774174D01*
X80899339Y-109734400D01*
X80695461Y-109734400D01*
X80495502Y-109774174D01*
X80307144Y-109852195D01*
X80137626Y-109965463D01*
X79993463Y-110109626D01*
X79880195Y-110279144D01*
X79802174Y-110467502D01*
X79762400Y-110667461D01*
X79762400Y-110871339D01*
X79802174Y-111071298D01*
X79880195Y-111259656D01*
X79993463Y-111429174D01*
X80037400Y-111473111D01*
X80037401Y-113246668D01*
X80033724Y-113284000D01*
X80048398Y-113432985D01*
X80091854Y-113576246D01*
X80162426Y-113708276D01*
X80233601Y-113795002D01*
X80257400Y-113824001D01*
X80286398Y-113847799D01*
X82044000Y-115605402D01*
X82044001Y-116882621D01*
X81857368Y-117007325D01*
X81650525Y-117214168D01*
X81534000Y-117388560D01*
X81417475Y-117214168D01*
X81210632Y-117007325D01*
X80967411Y-116844810D01*
X80697158Y-116732868D01*
X80410260Y-116675800D01*
X80117740Y-116675800D01*
X79830842Y-116732868D01*
X79560589Y-116844810D01*
X79317368Y-117007325D01*
X79185513Y-117139180D01*
X79163502Y-117066620D01*
X79104537Y-116956306D01*
X79025185Y-116859615D01*
X78928494Y-116780263D01*
X78818180Y-116721298D01*
X78698482Y-116684988D01*
X78574000Y-116672728D01*
X76874000Y-116672728D01*
X76749518Y-116684988D01*
X76629820Y-116721298D01*
X76519506Y-116780263D01*
X76422815Y-116859615D01*
X76343463Y-116956306D01*
X76284498Y-117066620D01*
X76248188Y-117186318D01*
X76235928Y-117310800D01*
X76235928Y-119010800D01*
X76248188Y-119135282D01*
X76284498Y-119254980D01*
X76317984Y-119317627D01*
X70660000Y-119328520D01*
X70660000Y-99822002D01*
X70790444Y-99822002D01*
X70669124Y-100051890D01*
X70713775Y-100199099D01*
X70838959Y-100461920D01*
X71013012Y-100695269D01*
X71229245Y-100890178D01*
X71479348Y-101039157D01*
X71753709Y-101136481D01*
X71983600Y-101015814D01*
X71983600Y-99822000D01*
X72237600Y-99822000D01*
X72237600Y-101015814D01*
X72467491Y-101136481D01*
X72741852Y-101039157D01*
X72991955Y-100890178D01*
X73208188Y-100695269D01*
X73382241Y-100461920D01*
X73507425Y-100199099D01*
X73552076Y-100051890D01*
X73430755Y-99822000D01*
X72237600Y-99822000D01*
X71983600Y-99822000D01*
X71963600Y-99822000D01*
X71963600Y-99568000D01*
X71983600Y-99568000D01*
X71983600Y-99548000D01*
X72237600Y-99548000D01*
X72237600Y-99568000D01*
X73430755Y-99568000D01*
X73552076Y-99338110D01*
X73507425Y-99190901D01*
X73382241Y-98928080D01*
X73208188Y-98694731D01*
X72991955Y-98499822D01*
X72875066Y-98430195D01*
X73057232Y-98308475D01*
X73264075Y-98101632D01*
X73426590Y-97858411D01*
X73538532Y-97588158D01*
X73595600Y-97301260D01*
X73595600Y-97008740D01*
X73538532Y-96721842D01*
X73426590Y-96451589D01*
X73264075Y-96208368D01*
X73057232Y-96001525D01*
X72882840Y-95885000D01*
X73057232Y-95768475D01*
X73264075Y-95561632D01*
X73388778Y-95375000D01*
X74130678Y-95375000D01*
X74168000Y-95378676D01*
X74205322Y-95375000D01*
X74205333Y-95375000D01*
X74316986Y-95364003D01*
X74460247Y-95320546D01*
X74592276Y-95249974D01*
X74708001Y-95155001D01*
X74731804Y-95125997D01*
X78064203Y-91793600D01*
X83395689Y-91793600D01*
X83439626Y-91837537D01*
X83609144Y-91950805D01*
X83797502Y-92028826D01*
X83997461Y-92068600D01*
X84201339Y-92068600D01*
X84401298Y-92028826D01*
X84589656Y-91950805D01*
X84759174Y-91837537D01*
X84903337Y-91693374D01*
X85016605Y-91523856D01*
X85094626Y-91335498D01*
X85134400Y-91135539D01*
X85134400Y-90931661D01*
X85094626Y-90731702D01*
X85016605Y-90543344D01*
X84903337Y-90373826D01*
X84759174Y-90229663D01*
X84589656Y-90116395D01*
X84401298Y-90038374D01*
X84201339Y-89998600D01*
X83997461Y-89998600D01*
X83797502Y-90038374D01*
X83609144Y-90116395D01*
X83439626Y-90229663D01*
X83395689Y-90273600D01*
X77786722Y-90273600D01*
X77749399Y-90269924D01*
X77712076Y-90273600D01*
X77712067Y-90273600D01*
X77600414Y-90284597D01*
X77457153Y-90328054D01*
X77325124Y-90398626D01*
X77325122Y-90398627D01*
X77325123Y-90398627D01*
X77238396Y-90469801D01*
X77238392Y-90469805D01*
X77209399Y-90493599D01*
X77185605Y-90522592D01*
X73853199Y-93855000D01*
X73388778Y-93855000D01*
X73290895Y-93708508D01*
X78997594Y-88001810D01*
X86812468Y-88001810D01*
X86849790Y-88005486D01*
X86887112Y-88001810D01*
X86887123Y-88001810D01*
X86998776Y-87990813D01*
X87142037Y-87947356D01*
X87274066Y-87876784D01*
X87365922Y-87801400D01*
X87427139Y-87801400D01*
X87627098Y-87761626D01*
X87815456Y-87683605D01*
X87984974Y-87570337D01*
X88129137Y-87426174D01*
X88242405Y-87256656D01*
X88320426Y-87068298D01*
X88360200Y-86868339D01*
X88360200Y-86664461D01*
X88320426Y-86464502D01*
X88242405Y-86276144D01*
X88129137Y-86106626D01*
X87984974Y-85962463D01*
X87815456Y-85849195D01*
X87627098Y-85771174D01*
X87427139Y-85731400D01*
X87223261Y-85731400D01*
X87023302Y-85771174D01*
X86834944Y-85849195D01*
X86665426Y-85962463D01*
X86521263Y-86106626D01*
X86407995Y-86276144D01*
X86329974Y-86464502D01*
X86326531Y-86481810D01*
X81343992Y-86481810D01*
X81861013Y-85964789D01*
X81890011Y-85940991D01*
X81984984Y-85825266D01*
X82055556Y-85693237D01*
X82099013Y-85549976D01*
X82110010Y-85438323D01*
X82110010Y-85438314D01*
X82113686Y-85400991D01*
X82110010Y-85363668D01*
X82110010Y-82921791D01*
X83398202Y-81633600D01*
X87539889Y-81633600D01*
X87410263Y-81763226D01*
X87296995Y-81932744D01*
X87218974Y-82121102D01*
X87179200Y-82321061D01*
X87179200Y-82524939D01*
X87218974Y-82724898D01*
X87296995Y-82913256D01*
X87410263Y-83082774D01*
X87554426Y-83226937D01*
X87723944Y-83340205D01*
X87901586Y-83413787D01*
X90045001Y-85557203D01*
X90045000Y-93284198D01*
X89825398Y-93503800D01*
X89763261Y-93503800D01*
X89563302Y-93543574D01*
X89374944Y-93621595D01*
X89205426Y-93734863D01*
X89061263Y-93879026D01*
X88947995Y-94048544D01*
X88869974Y-94236902D01*
X88830200Y-94436861D01*
X88830200Y-94640739D01*
X88869974Y-94840698D01*
X88947995Y-95029056D01*
X89061263Y-95198574D01*
X89205426Y-95342737D01*
X89374944Y-95456005D01*
X89563302Y-95534026D01*
X89763261Y-95573800D01*
X89967139Y-95573800D01*
X90167098Y-95534026D01*
X90355456Y-95456005D01*
X90524974Y-95342737D01*
X90669137Y-95198574D01*
X90782405Y-95029056D01*
X90860426Y-94840698D01*
X90900200Y-94640739D01*
X90900200Y-94578602D01*
X91316004Y-94162798D01*
X91345001Y-94139001D01*
X91397526Y-94074999D01*
X91439974Y-94023277D01*
X91510546Y-93891247D01*
X91521541Y-93855000D01*
X91554003Y-93747986D01*
X91565000Y-93636333D01*
X91565000Y-93636323D01*
X91568676Y-93599000D01*
X91565000Y-93561677D01*
X91565000Y-92200000D01*
X102561928Y-92200000D01*
X102561928Y-93800000D01*
X102574188Y-93924482D01*
X102610498Y-94044180D01*
X102669463Y-94154494D01*
X102748815Y-94251185D01*
X102845506Y-94330537D01*
X102955820Y-94389502D01*
X103075518Y-94425812D01*
X103115000Y-94429701D01*
X103115000Y-94812531D01*
X103110719Y-94856000D01*
X103115000Y-94899469D01*
X103115000Y-94899476D01*
X103127805Y-95029489D01*
X103178411Y-95196312D01*
X103260589Y-95350058D01*
X103371183Y-95484817D01*
X103404956Y-95512534D01*
X104220070Y-96327649D01*
X104247783Y-96361417D01*
X104281551Y-96389130D01*
X104281553Y-96389132D01*
X104382541Y-96472011D01*
X104536286Y-96554189D01*
X104703110Y-96604795D01*
X104833123Y-96617600D01*
X104833131Y-96617600D01*
X104876600Y-96621881D01*
X104920069Y-96617600D01*
X118130346Y-96617600D01*
X118178544Y-96649805D01*
X118366902Y-96727826D01*
X118566861Y-96767600D01*
X118770739Y-96767600D01*
X118970698Y-96727826D01*
X119159056Y-96649805D01*
X119328574Y-96536537D01*
X119472737Y-96392374D01*
X119586005Y-96222856D01*
X119664026Y-96034498D01*
X119703800Y-95834539D01*
X119703800Y-95630661D01*
X119664026Y-95430702D01*
X119586005Y-95242344D01*
X119472737Y-95072826D01*
X119328574Y-94928663D01*
X119159056Y-94815395D01*
X118970698Y-94737374D01*
X118770739Y-94697600D01*
X118566861Y-94697600D01*
X118366902Y-94737374D01*
X118178544Y-94815395D01*
X118130346Y-94847600D01*
X105243179Y-94847600D01*
X104885000Y-94489422D01*
X104885000Y-94429701D01*
X104924482Y-94425812D01*
X105044180Y-94389502D01*
X105154494Y-94330537D01*
X105251185Y-94251185D01*
X105330537Y-94154494D01*
X105389502Y-94044180D01*
X105405117Y-93992702D01*
X105686903Y-93992702D01*
X105758486Y-94236671D01*
X106013996Y-94357571D01*
X106288184Y-94426300D01*
X106570512Y-94440217D01*
X106850130Y-94398787D01*
X107116292Y-94303603D01*
X107241514Y-94236671D01*
X107313097Y-93992702D01*
X106500000Y-93179605D01*
X105686903Y-93992702D01*
X105405117Y-93992702D01*
X105425812Y-93924482D01*
X105438072Y-93800000D01*
X105438072Y-93792785D01*
X105507298Y-93813097D01*
X106320395Y-93000000D01*
X106679605Y-93000000D01*
X107492702Y-93813097D01*
X107736671Y-93741514D01*
X107857571Y-93486004D01*
X107926300Y-93211816D01*
X107940217Y-92929488D01*
X107898787Y-92649870D01*
X107803603Y-92383708D01*
X107736671Y-92258486D01*
X107492702Y-92186903D01*
X106679605Y-93000000D01*
X106320395Y-93000000D01*
X105507298Y-92186903D01*
X105438072Y-92207215D01*
X105438072Y-92200000D01*
X105425812Y-92075518D01*
X105405118Y-92007298D01*
X105686903Y-92007298D01*
X106500000Y-92820395D01*
X107313097Y-92007298D01*
X107241514Y-91763329D01*
X106986004Y-91642429D01*
X106711816Y-91573700D01*
X106429488Y-91559783D01*
X106149870Y-91601213D01*
X105883708Y-91696397D01*
X105758486Y-91763329D01*
X105686903Y-92007298D01*
X105405118Y-92007298D01*
X105389502Y-91955820D01*
X105330537Y-91845506D01*
X105251185Y-91748815D01*
X105154494Y-91669463D01*
X105044180Y-91610498D01*
X104924482Y-91574188D01*
X104800000Y-91561928D01*
X103200000Y-91561928D01*
X103075518Y-91574188D01*
X102955820Y-91610498D01*
X102845506Y-91669463D01*
X102748815Y-91748815D01*
X102669463Y-91845506D01*
X102610498Y-91955820D01*
X102574188Y-92075518D01*
X102561928Y-92200000D01*
X91565000Y-92200000D01*
X91565000Y-85279725D01*
X91568676Y-85242400D01*
X91565000Y-85205075D01*
X91565000Y-85205067D01*
X91554003Y-85093414D01*
X91510546Y-84950153D01*
X91439974Y-84818124D01*
X91345001Y-84702399D01*
X91316003Y-84678601D01*
X89234789Y-82597388D01*
X89249200Y-82524939D01*
X89249200Y-82321061D01*
X89209426Y-82121102D01*
X89131405Y-81932744D01*
X89018137Y-81763226D01*
X88888511Y-81633600D01*
X96252089Y-81633600D01*
X96147863Y-81737826D01*
X96034595Y-81907344D01*
X95956574Y-82095702D01*
X95916800Y-82295661D01*
X95916800Y-82499539D01*
X95956574Y-82699498D01*
X96034595Y-82887856D01*
X96147863Y-83057374D01*
X96292026Y-83201537D01*
X96461544Y-83314805D01*
X96649902Y-83392826D01*
X96849861Y-83432600D01*
X97053739Y-83432600D01*
X97098452Y-83423706D01*
X97213123Y-83435000D01*
X97213133Y-83435000D01*
X97256599Y-83439281D01*
X97300065Y-83435000D01*
X103626946Y-83435000D01*
X103675144Y-83467205D01*
X103863502Y-83545226D01*
X104063461Y-83585000D01*
X104267339Y-83585000D01*
X104467298Y-83545226D01*
X104655656Y-83467205D01*
X104825174Y-83353937D01*
X104969337Y-83209774D01*
X105082605Y-83040256D01*
X105160626Y-82851898D01*
X105200400Y-82651939D01*
X105200400Y-82448061D01*
X105160626Y-82248102D01*
X105082605Y-82059744D01*
X104969337Y-81890226D01*
X104825174Y-81746063D01*
X104656861Y-81633600D01*
X109440400Y-81633600D01*
X109440401Y-89452829D01*
X109322438Y-89549638D01*
X109211995Y-89684214D01*
X109129928Y-89837750D01*
X109079392Y-90004346D01*
X109062328Y-90177600D01*
X109062328Y-91127600D01*
X109079392Y-91300854D01*
X109129928Y-91467450D01*
X109211995Y-91620986D01*
X109322438Y-91755562D01*
X109457014Y-91866005D01*
X109610550Y-91948072D01*
X109777146Y-91998608D01*
X109950400Y-92015672D01*
X110450400Y-92015672D01*
X110623654Y-91998608D01*
X110790250Y-91948072D01*
X110943786Y-91866005D01*
X111078362Y-91755562D01*
X111150400Y-91667783D01*
X111222438Y-91755562D01*
X111357014Y-91866005D01*
X111510550Y-91948072D01*
X111677146Y-91998608D01*
X111850400Y-92015672D01*
X112350400Y-92015672D01*
X112523654Y-91998608D01*
X112690250Y-91948072D01*
X112843786Y-91866005D01*
X112972433Y-91760428D01*
X113008015Y-91803785D01*
X113104706Y-91883137D01*
X113215020Y-91942102D01*
X113334718Y-91978412D01*
X113459200Y-91990672D01*
X113685950Y-91987600D01*
X113844700Y-91828850D01*
X113844700Y-90779600D01*
X113824700Y-90779600D01*
X113824700Y-90525600D01*
X113844700Y-90525600D01*
X113844700Y-89476350D01*
X113685950Y-89317600D01*
X113459200Y-89314528D01*
X113334718Y-89326788D01*
X113215020Y-89363098D01*
X113104706Y-89422063D01*
X113008015Y-89501415D01*
X112972433Y-89544772D01*
X112860400Y-89452830D01*
X112860400Y-85667799D01*
X115165600Y-83362599D01*
X115165601Y-89397494D01*
X115040813Y-89464195D01*
X114959563Y-89530876D01*
X114935385Y-89501415D01*
X114838694Y-89422063D01*
X114728380Y-89363098D01*
X114608682Y-89326788D01*
X114484200Y-89314528D01*
X114257450Y-89317600D01*
X114098700Y-89476350D01*
X114098700Y-90525600D01*
X114118700Y-90525600D01*
X114118700Y-90779600D01*
X114098700Y-90779600D01*
X114098700Y-91828850D01*
X114257450Y-91987600D01*
X114484200Y-91990672D01*
X114608682Y-91978412D01*
X114728380Y-91942102D01*
X114838694Y-91883137D01*
X114935385Y-91803785D01*
X114959563Y-91774324D01*
X115040813Y-91841005D01*
X115194349Y-91923072D01*
X115360945Y-91973608D01*
X115534199Y-91990672D01*
X116059201Y-91990672D01*
X116232455Y-91973608D01*
X116399051Y-91923072D01*
X116552587Y-91841005D01*
X116631909Y-91775907D01*
X123674669Y-91775907D01*
X123713761Y-92001804D01*
X123796172Y-92215734D01*
X123918736Y-92409476D01*
X124076742Y-92575584D01*
X124264118Y-92707675D01*
X124473663Y-92800672D01*
X124535190Y-92809364D01*
X124714000Y-92683563D01*
X124714000Y-91592400D01*
X123834402Y-91592400D01*
X123674669Y-91775907D01*
X116631909Y-91775907D01*
X116687162Y-91730562D01*
X116797605Y-91595987D01*
X116879672Y-91442451D01*
X116930208Y-91275855D01*
X116942121Y-91154893D01*
X123674669Y-91154893D01*
X123834402Y-91338400D01*
X124714000Y-91338400D01*
X124714000Y-91183421D01*
X124951000Y-91183421D01*
X124951000Y-91747378D01*
X124967785Y-91917799D01*
X124968000Y-91918508D01*
X124968000Y-92683563D01*
X125146810Y-92809364D01*
X125208337Y-92800672D01*
X125417882Y-92707675D01*
X125476331Y-92666471D01*
X125664940Y-92767285D01*
X125883600Y-92833615D01*
X126111000Y-92856012D01*
X126338399Y-92833615D01*
X126547098Y-92770307D01*
X126611820Y-92804902D01*
X126731518Y-92841212D01*
X126856000Y-92853472D01*
X127906000Y-92853472D01*
X128030482Y-92841212D01*
X128150180Y-92804902D01*
X128260494Y-92745937D01*
X128357185Y-92666585D01*
X128436537Y-92569894D01*
X128495502Y-92459580D01*
X128531812Y-92339882D01*
X128544072Y-92215400D01*
X128544072Y-90715400D01*
X128531812Y-90590918D01*
X128495502Y-90471220D01*
X128436537Y-90360906D01*
X128357185Y-90264215D01*
X128260494Y-90184863D01*
X128150180Y-90125898D01*
X128030482Y-90089588D01*
X127906000Y-90077328D01*
X126856000Y-90077328D01*
X126731518Y-90089588D01*
X126611820Y-90125898D01*
X126547098Y-90160493D01*
X126338400Y-90097185D01*
X126111000Y-90074788D01*
X125883601Y-90097185D01*
X125664941Y-90163515D01*
X125476331Y-90264329D01*
X125417882Y-90223125D01*
X125208337Y-90130128D01*
X125146810Y-90121436D01*
X124968000Y-90247237D01*
X124968000Y-91012291D01*
X124967785Y-91013000D01*
X124951000Y-91183421D01*
X124714000Y-91183421D01*
X124714000Y-90247237D01*
X124535190Y-90121436D01*
X124473663Y-90130128D01*
X124264118Y-90223125D01*
X124076742Y-90355216D01*
X123918736Y-90521324D01*
X123796172Y-90715066D01*
X123713761Y-90928996D01*
X123674669Y-91154893D01*
X116942121Y-91154893D01*
X116947272Y-91102601D01*
X116947272Y-90202599D01*
X116930208Y-90029345D01*
X116879672Y-89862749D01*
X116797605Y-89709213D01*
X116687162Y-89574638D01*
X116685600Y-89573356D01*
X116685600Y-83304511D01*
X116729537Y-83260574D01*
X116842805Y-83091056D01*
X116920826Y-82902698D01*
X116960600Y-82702739D01*
X116960600Y-82498861D01*
X116920826Y-82298902D01*
X116842805Y-82110544D01*
X116729537Y-81941026D01*
X116658355Y-81869844D01*
X117161604Y-81366596D01*
X117190602Y-81342798D01*
X117236571Y-81286785D01*
X117285575Y-81227074D01*
X117356147Y-81095044D01*
X117399604Y-80951783D01*
X117410601Y-80840130D01*
X117410601Y-80840120D01*
X117414277Y-80802797D01*
X117410601Y-80765474D01*
X117410601Y-74085932D01*
X117414278Y-74048599D01*
X117399604Y-73899613D01*
X117356147Y-73756352D01*
X117335425Y-73717585D01*
X117285575Y-73624323D01*
X117190602Y-73508598D01*
X117161599Y-73484796D01*
X116837405Y-73160602D01*
X116813602Y-73131598D01*
X116697877Y-73036625D01*
X116565848Y-72966053D01*
X116422587Y-72922596D01*
X116310934Y-72911599D01*
X116310923Y-72911599D01*
X116273601Y-72907923D01*
X116236279Y-72911599D01*
X114020923Y-72911599D01*
X113983601Y-72907923D01*
X113946278Y-72911599D01*
X113946268Y-72911599D01*
X113834615Y-72922596D01*
X113691354Y-72966053D01*
X113559324Y-73036625D01*
X113480227Y-73101539D01*
X113443600Y-73131598D01*
X113419802Y-73160596D01*
X113199672Y-73380726D01*
X113199672Y-73065399D01*
X113182608Y-72892145D01*
X113132072Y-72725549D01*
X113050005Y-72572013D01*
X112939562Y-72437438D01*
X112912709Y-72415400D01*
X112939562Y-72393362D01*
X113050005Y-72258787D01*
X113132072Y-72105251D01*
X113182608Y-71938655D01*
X113199672Y-71765401D01*
X113199672Y-71240399D01*
X113182608Y-71067145D01*
X113132072Y-70900549D01*
X113064761Y-70774619D01*
X125247400Y-70739368D01*
X125247400Y-85318600D01*
G37*
%TD.AperFunction*%
D19*
X115890602Y-80487994D02*
X111589403Y-84789194D01*
X111560399Y-84812997D01*
X111521013Y-84860990D01*
X111465426Y-84928722D01*
X111395469Y-85059601D01*
X111394854Y-85060752D01*
X111351397Y-85204013D01*
X111340400Y-85315666D01*
X111340400Y-85315676D01*
X111336724Y-85352998D01*
X111340400Y-85390321D01*
X111340401Y-89452829D01*
X111222438Y-89549638D01*
X111150400Y-89637417D01*
X111078362Y-89549638D01*
X110960400Y-89452830D01*
X110960400Y-81452601D01*
X111779393Y-80633609D01*
X111940702Y-80700426D01*
X112140661Y-80740200D01*
X112344539Y-80740200D01*
X112544498Y-80700426D01*
X112732856Y-80622405D01*
X112902374Y-80509137D01*
X113046537Y-80364974D01*
X113159805Y-80195456D01*
X113237826Y-80007098D01*
X113277600Y-79807139D01*
X113277600Y-79603261D01*
X113237826Y-79403302D01*
X113159805Y-79214944D01*
X113046537Y-79045426D01*
X112902374Y-78901263D01*
X112732856Y-78787995D01*
X112681054Y-78766538D01*
X115014203Y-76433389D01*
X115043201Y-76409591D01*
X115086621Y-76356683D01*
X115138174Y-76293866D01*
X115178410Y-76218591D01*
X115890601Y-75506400D01*
X115890602Y-80487994D01*
%TA.AperFunction,Conductor*%
D20*
G36*
X115890602Y-80487994D02*
G01*
X111589403Y-84789194D01*
X111560399Y-84812997D01*
X111521013Y-84860990D01*
X111465426Y-84928722D01*
X111395469Y-85059601D01*
X111394854Y-85060752D01*
X111351397Y-85204013D01*
X111340400Y-85315666D01*
X111340400Y-85315676D01*
X111336724Y-85352998D01*
X111340400Y-85390321D01*
X111340401Y-89452829D01*
X111222438Y-89549638D01*
X111150400Y-89637417D01*
X111078362Y-89549638D01*
X110960400Y-89452830D01*
X110960400Y-81452601D01*
X111779393Y-80633609D01*
X111940702Y-80700426D01*
X112140661Y-80740200D01*
X112344539Y-80740200D01*
X112544498Y-80700426D01*
X112732856Y-80622405D01*
X112902374Y-80509137D01*
X113046537Y-80364974D01*
X113159805Y-80195456D01*
X113237826Y-80007098D01*
X113277600Y-79807139D01*
X113277600Y-79603261D01*
X113237826Y-79403302D01*
X113159805Y-79214944D01*
X113046537Y-79045426D01*
X112902374Y-78901263D01*
X112732856Y-78787995D01*
X112681054Y-78766538D01*
X115014203Y-76433389D01*
X115043201Y-76409591D01*
X115086621Y-76356683D01*
X115138174Y-76293866D01*
X115178410Y-76218591D01*
X115890601Y-75506400D01*
X115890602Y-80487994D01*
G37*
%TD.AperFunction*%
D19*
X109178063Y-70892026D02*
X109064795Y-71061544D01*
X108986774Y-71249902D01*
X108947000Y-71449861D01*
X108947000Y-71653739D01*
X108986774Y-71853698D01*
X109064795Y-72042056D01*
X109178063Y-72211574D01*
X109322226Y-72355737D01*
X109491744Y-72469005D01*
X109680102Y-72547026D01*
X109880061Y-72586800D01*
X110083939Y-72586800D01*
X110283898Y-72547026D01*
X110472256Y-72469005D01*
X110641774Y-72355737D01*
X110702733Y-72294778D01*
X110783638Y-72393362D01*
X110810491Y-72415400D01*
X110783638Y-72437438D01*
X110673195Y-72572013D01*
X110663904Y-72589396D01*
X110555253Y-72622354D01*
X110423224Y-72692926D01*
X110307499Y-72787899D01*
X110290510Y-72808600D01*
X105746170Y-72808600D01*
X105649362Y-72690638D01*
X105642806Y-72685258D01*
X105722585Y-72619785D01*
X105801937Y-72523094D01*
X105860902Y-72412780D01*
X105897212Y-72293082D01*
X105909472Y-72168600D01*
X105906400Y-71954350D01*
X105747650Y-71795600D01*
X104673400Y-71795600D01*
X104673400Y-71815600D01*
X104419400Y-71815600D01*
X104419400Y-71795600D01*
X103345150Y-71795600D01*
X103186400Y-71954350D01*
X103183328Y-72168600D01*
X103195588Y-72293082D01*
X103231898Y-72412780D01*
X103290863Y-72523094D01*
X103370215Y-72619785D01*
X103449994Y-72685258D01*
X103443438Y-72690638D01*
X103332995Y-72825214D01*
X103250928Y-72978750D01*
X103200392Y-73145346D01*
X103183328Y-73318600D01*
X103183328Y-73818600D01*
X103186759Y-73853439D01*
X102158999Y-74881200D01*
X87489522Y-74881200D01*
X87452199Y-74877524D01*
X87414876Y-74881200D01*
X87414867Y-74881200D01*
X87303214Y-74892197D01*
X87159953Y-74935654D01*
X87027924Y-75006226D01*
X86912199Y-75101199D01*
X86888396Y-75130203D01*
X86611003Y-75407596D01*
X86581999Y-75431399D01*
X86532090Y-75492214D01*
X86487026Y-75547124D01*
X86421339Y-75670015D01*
X86416454Y-75679154D01*
X86372997Y-75822415D01*
X86362000Y-75934068D01*
X86362000Y-75934078D01*
X86358324Y-75971400D01*
X86362000Y-76008723D01*
X86362001Y-78061688D01*
X86318063Y-78105626D01*
X86204795Y-78275144D01*
X86126774Y-78463502D01*
X86087000Y-78663461D01*
X86087000Y-78867339D01*
X86126774Y-79067298D01*
X86204795Y-79255656D01*
X86318063Y-79425174D01*
X86462226Y-79569337D01*
X86631744Y-79682605D01*
X86820102Y-79760626D01*
X87020061Y-79800400D01*
X87223939Y-79800400D01*
X87423898Y-79760626D01*
X87612256Y-79682605D01*
X87781774Y-79569337D01*
X87925937Y-79425174D01*
X88039205Y-79255656D01*
X88117226Y-79067298D01*
X88157000Y-78867339D01*
X88157000Y-78663461D01*
X88117226Y-78463502D01*
X88039205Y-78275144D01*
X87925937Y-78105626D01*
X87882000Y-78061689D01*
X87882000Y-76401200D01*
X102436478Y-76401200D01*
X102473800Y-76404876D01*
X102511122Y-76401200D01*
X102511133Y-76401200D01*
X102622786Y-76390203D01*
X102766047Y-76346746D01*
X102898076Y-76276174D01*
X103013801Y-76181201D01*
X103037604Y-76152197D01*
X104483130Y-74706672D01*
X105021400Y-74706672D01*
X105194654Y-74689608D01*
X105361250Y-74639072D01*
X105514786Y-74557005D01*
X105649362Y-74446562D01*
X105746170Y-74328600D01*
X110569478Y-74328600D01*
X110606800Y-74332276D01*
X110644122Y-74328600D01*
X110644133Y-74328600D01*
X110743619Y-74318801D01*
X110673195Y-74404613D01*
X110591128Y-74558149D01*
X110540592Y-74724745D01*
X110523528Y-74897999D01*
X110523528Y-75423001D01*
X110540592Y-75596255D01*
X110591128Y-75762851D01*
X110673195Y-75916387D01*
X110783638Y-76050962D01*
X110810491Y-76073000D01*
X110783638Y-76095038D01*
X110673195Y-76229613D01*
X110591128Y-76383149D01*
X110540592Y-76549745D01*
X110523528Y-76722999D01*
X110523528Y-77071993D01*
X109334122Y-78261400D01*
X105084854Y-78261400D01*
X105036656Y-78229195D01*
X104848298Y-78151174D01*
X104648339Y-78111400D01*
X104444461Y-78111400D01*
X104244502Y-78151174D01*
X104056144Y-78229195D01*
X104045960Y-78236000D01*
X99547654Y-78236000D01*
X99499456Y-78203795D01*
X99311098Y-78125774D01*
X99111139Y-78086000D01*
X98907261Y-78086000D01*
X98707302Y-78125774D01*
X98518944Y-78203795D01*
X98349426Y-78317063D01*
X98205263Y-78461226D01*
X98091995Y-78630744D01*
X98013974Y-78819102D01*
X97974200Y-79019061D01*
X97974200Y-79222939D01*
X98013974Y-79422898D01*
X98091995Y-79611256D01*
X98205263Y-79780774D01*
X98349426Y-79924937D01*
X98518944Y-80038205D01*
X98700962Y-80113600D01*
X83120725Y-80113600D01*
X83083400Y-80109924D01*
X83046075Y-80113600D01*
X83046067Y-80113600D01*
X82934414Y-80124597D01*
X82791153Y-80168054D01*
X82659124Y-80238626D01*
X82543399Y-80333599D01*
X82519601Y-80362597D01*
X81660000Y-81222199D01*
X81660000Y-72897661D01*
X85782200Y-72897661D01*
X85782200Y-73101539D01*
X85821974Y-73301498D01*
X85899995Y-73489856D01*
X86013263Y-73659374D01*
X86157426Y-73803537D01*
X86326944Y-73916805D01*
X86515302Y-73994826D01*
X86715261Y-74034600D01*
X86919139Y-74034600D01*
X87034813Y-74011591D01*
X87237670Y-74214449D01*
X87265383Y-74248217D01*
X87299151Y-74275930D01*
X87299153Y-74275932D01*
X87400141Y-74358811D01*
X87553886Y-74440989D01*
X87621198Y-74461408D01*
X87720710Y-74491595D01*
X87850723Y-74504400D01*
X87850731Y-74504400D01*
X87894200Y-74508681D01*
X87937669Y-74504400D01*
X88339014Y-74504400D01*
X88465014Y-74607805D01*
X88618550Y-74689872D01*
X88785146Y-74740408D01*
X88958400Y-74757472D01*
X89908400Y-74757472D01*
X90081654Y-74740408D01*
X90248250Y-74689872D01*
X90401786Y-74607805D01*
X90536362Y-74497362D01*
X90646805Y-74362786D01*
X90728872Y-74209250D01*
X90779408Y-74042654D01*
X90796472Y-73869400D01*
X90796472Y-73369400D01*
X90779408Y-73196146D01*
X90728872Y-73029550D01*
X90646805Y-72876014D01*
X90536362Y-72741438D01*
X90529806Y-72736058D01*
X90609585Y-72670585D01*
X90688937Y-72573894D01*
X90747902Y-72463580D01*
X90784212Y-72343882D01*
X90796472Y-72219400D01*
X90793400Y-72005150D01*
X90634650Y-71846400D01*
X89560400Y-71846400D01*
X89560400Y-71866400D01*
X89306400Y-71866400D01*
X89306400Y-71846400D01*
X88232150Y-71846400D01*
X88073400Y-72005150D01*
X88070328Y-72219400D01*
X88082588Y-72343882D01*
X88118898Y-72463580D01*
X88177863Y-72573894D01*
X88257215Y-72670585D01*
X88334974Y-72734400D01*
X88260779Y-72734400D01*
X87930934Y-72404556D01*
X87903217Y-72370783D01*
X87768459Y-72260189D01*
X87614713Y-72178011D01*
X87447890Y-72127405D01*
X87362185Y-72118964D01*
X87307456Y-72082395D01*
X87119098Y-72004374D01*
X86919139Y-71964600D01*
X86715261Y-71964600D01*
X86515302Y-72004374D01*
X86326944Y-72082395D01*
X86157426Y-72195663D01*
X86013263Y-72339826D01*
X85899995Y-72509344D01*
X85821974Y-72697702D01*
X85782200Y-72897661D01*
X81660000Y-72897661D01*
X81660000Y-70865489D01*
X88192898Y-70846586D01*
X88177863Y-70864906D01*
X88118898Y-70975220D01*
X88082588Y-71094918D01*
X88070328Y-71219400D01*
X88073400Y-71433650D01*
X88232150Y-71592400D01*
X89306400Y-71592400D01*
X89306400Y-71572400D01*
X89560400Y-71572400D01*
X89560400Y-71592400D01*
X90634650Y-71592400D01*
X90793400Y-71433650D01*
X90796472Y-71219400D01*
X90784212Y-71094918D01*
X90747902Y-70975220D01*
X90688937Y-70864906D01*
X90668025Y-70839424D01*
X103300082Y-70802873D01*
X103290863Y-70814106D01*
X103231898Y-70924420D01*
X103195588Y-71044118D01*
X103183328Y-71168600D01*
X103186400Y-71382850D01*
X103345150Y-71541600D01*
X104419400Y-71541600D01*
X104419400Y-71521600D01*
X104673400Y-71521600D01*
X104673400Y-71541600D01*
X105747650Y-71541600D01*
X105906400Y-71382850D01*
X105909472Y-71168600D01*
X105897212Y-71044118D01*
X105860902Y-70924420D01*
X105801937Y-70814106D01*
X105786813Y-70795678D01*
X109284532Y-70785557D01*
X109178063Y-70892026D01*
%TA.AperFunction,Conductor*%
D20*
G36*
X109178063Y-70892026D02*
G01*
X109064795Y-71061544D01*
X108986774Y-71249902D01*
X108947000Y-71449861D01*
X108947000Y-71653739D01*
X108986774Y-71853698D01*
X109064795Y-72042056D01*
X109178063Y-72211574D01*
X109322226Y-72355737D01*
X109491744Y-72469005D01*
X109680102Y-72547026D01*
X109880061Y-72586800D01*
X110083939Y-72586800D01*
X110283898Y-72547026D01*
X110472256Y-72469005D01*
X110641774Y-72355737D01*
X110702733Y-72294778D01*
X110783638Y-72393362D01*
X110810491Y-72415400D01*
X110783638Y-72437438D01*
X110673195Y-72572013D01*
X110663904Y-72589396D01*
X110555253Y-72622354D01*
X110423224Y-72692926D01*
X110307499Y-72787899D01*
X110290510Y-72808600D01*
X105746170Y-72808600D01*
X105649362Y-72690638D01*
X105642806Y-72685258D01*
X105722585Y-72619785D01*
X105801937Y-72523094D01*
X105860902Y-72412780D01*
X105897212Y-72293082D01*
X105909472Y-72168600D01*
X105906400Y-71954350D01*
X105747650Y-71795600D01*
X104673400Y-71795600D01*
X104673400Y-71815600D01*
X104419400Y-71815600D01*
X104419400Y-71795600D01*
X103345150Y-71795600D01*
X103186400Y-71954350D01*
X103183328Y-72168600D01*
X103195588Y-72293082D01*
X103231898Y-72412780D01*
X103290863Y-72523094D01*
X103370215Y-72619785D01*
X103449994Y-72685258D01*
X103443438Y-72690638D01*
X103332995Y-72825214D01*
X103250928Y-72978750D01*
X103200392Y-73145346D01*
X103183328Y-73318600D01*
X103183328Y-73818600D01*
X103186759Y-73853439D01*
X102158999Y-74881200D01*
X87489522Y-74881200D01*
X87452199Y-74877524D01*
X87414876Y-74881200D01*
X87414867Y-74881200D01*
X87303214Y-74892197D01*
X87159953Y-74935654D01*
X87027924Y-75006226D01*
X86912199Y-75101199D01*
X86888396Y-75130203D01*
X86611003Y-75407596D01*
X86581999Y-75431399D01*
X86532090Y-75492214D01*
X86487026Y-75547124D01*
X86421339Y-75670015D01*
X86416454Y-75679154D01*
X86372997Y-75822415D01*
X86362000Y-75934068D01*
X86362000Y-75934078D01*
X86358324Y-75971400D01*
X86362000Y-76008723D01*
X86362001Y-78061688D01*
X86318063Y-78105626D01*
X86204795Y-78275144D01*
X86126774Y-78463502D01*
X86087000Y-78663461D01*
X86087000Y-78867339D01*
X86126774Y-79067298D01*
X86204795Y-79255656D01*
X86318063Y-79425174D01*
X86462226Y-79569337D01*
X86631744Y-79682605D01*
X86820102Y-79760626D01*
X87020061Y-79800400D01*
X87223939Y-79800400D01*
X87423898Y-79760626D01*
X87612256Y-79682605D01*
X87781774Y-79569337D01*
X87925937Y-79425174D01*
X88039205Y-79255656D01*
X88117226Y-79067298D01*
X88157000Y-78867339D01*
X88157000Y-78663461D01*
X88117226Y-78463502D01*
X88039205Y-78275144D01*
X87925937Y-78105626D01*
X87882000Y-78061689D01*
X87882000Y-76401200D01*
X102436478Y-76401200D01*
X102473800Y-76404876D01*
X102511122Y-76401200D01*
X102511133Y-76401200D01*
X102622786Y-76390203D01*
X102766047Y-76346746D01*
X102898076Y-76276174D01*
X103013801Y-76181201D01*
X103037604Y-76152197D01*
X104483130Y-74706672D01*
X105021400Y-74706672D01*
X105194654Y-74689608D01*
X105361250Y-74639072D01*
X105514786Y-74557005D01*
X105649362Y-74446562D01*
X105746170Y-74328600D01*
X110569478Y-74328600D01*
X110606800Y-74332276D01*
X110644122Y-74328600D01*
X110644133Y-74328600D01*
X110743619Y-74318801D01*
X110673195Y-74404613D01*
X110591128Y-74558149D01*
X110540592Y-74724745D01*
X110523528Y-74897999D01*
X110523528Y-75423001D01*
X110540592Y-75596255D01*
X110591128Y-75762851D01*
X110673195Y-75916387D01*
X110783638Y-76050962D01*
X110810491Y-76073000D01*
X110783638Y-76095038D01*
X110673195Y-76229613D01*
X110591128Y-76383149D01*
X110540592Y-76549745D01*
X110523528Y-76722999D01*
X110523528Y-77071993D01*
X109334122Y-78261400D01*
X105084854Y-78261400D01*
X105036656Y-78229195D01*
X104848298Y-78151174D01*
X104648339Y-78111400D01*
X104444461Y-78111400D01*
X104244502Y-78151174D01*
X104056144Y-78229195D01*
X104045960Y-78236000D01*
X99547654Y-78236000D01*
X99499456Y-78203795D01*
X99311098Y-78125774D01*
X99111139Y-78086000D01*
X98907261Y-78086000D01*
X98707302Y-78125774D01*
X98518944Y-78203795D01*
X98349426Y-78317063D01*
X98205263Y-78461226D01*
X98091995Y-78630744D01*
X98013974Y-78819102D01*
X97974200Y-79019061D01*
X97974200Y-79222939D01*
X98013974Y-79422898D01*
X98091995Y-79611256D01*
X98205263Y-79780774D01*
X98349426Y-79924937D01*
X98518944Y-80038205D01*
X98700962Y-80113600D01*
X83120725Y-80113600D01*
X83083400Y-80109924D01*
X83046075Y-80113600D01*
X83046067Y-80113600D01*
X82934414Y-80124597D01*
X82791153Y-80168054D01*
X82659124Y-80238626D01*
X82543399Y-80333599D01*
X82519601Y-80362597D01*
X81660000Y-81222199D01*
X81660000Y-72897661D01*
X85782200Y-72897661D01*
X85782200Y-73101539D01*
X85821974Y-73301498D01*
X85899995Y-73489856D01*
X86013263Y-73659374D01*
X86157426Y-73803537D01*
X86326944Y-73916805D01*
X86515302Y-73994826D01*
X86715261Y-74034600D01*
X86919139Y-74034600D01*
X87034813Y-74011591D01*
X87237670Y-74214449D01*
X87265383Y-74248217D01*
X87299151Y-74275930D01*
X87299153Y-74275932D01*
X87400141Y-74358811D01*
X87553886Y-74440989D01*
X87621198Y-74461408D01*
X87720710Y-74491595D01*
X87850723Y-74504400D01*
X87850731Y-74504400D01*
X87894200Y-74508681D01*
X87937669Y-74504400D01*
X88339014Y-74504400D01*
X88465014Y-74607805D01*
X88618550Y-74689872D01*
X88785146Y-74740408D01*
X88958400Y-74757472D01*
X89908400Y-74757472D01*
X90081654Y-74740408D01*
X90248250Y-74689872D01*
X90401786Y-74607805D01*
X90536362Y-74497362D01*
X90646805Y-74362786D01*
X90728872Y-74209250D01*
X90779408Y-74042654D01*
X90796472Y-73869400D01*
X90796472Y-73369400D01*
X90779408Y-73196146D01*
X90728872Y-73029550D01*
X90646805Y-72876014D01*
X90536362Y-72741438D01*
X90529806Y-72736058D01*
X90609585Y-72670585D01*
X90688937Y-72573894D01*
X90747902Y-72463580D01*
X90784212Y-72343882D01*
X90796472Y-72219400D01*
X90793400Y-72005150D01*
X90634650Y-71846400D01*
X89560400Y-71846400D01*
X89560400Y-71866400D01*
X89306400Y-71866400D01*
X89306400Y-71846400D01*
X88232150Y-71846400D01*
X88073400Y-72005150D01*
X88070328Y-72219400D01*
X88082588Y-72343882D01*
X88118898Y-72463580D01*
X88177863Y-72573894D01*
X88257215Y-72670585D01*
X88334974Y-72734400D01*
X88260779Y-72734400D01*
X87930934Y-72404556D01*
X87903217Y-72370783D01*
X87768459Y-72260189D01*
X87614713Y-72178011D01*
X87447890Y-72127405D01*
X87362185Y-72118964D01*
X87307456Y-72082395D01*
X87119098Y-72004374D01*
X86919139Y-71964600D01*
X86715261Y-71964600D01*
X86515302Y-72004374D01*
X86326944Y-72082395D01*
X86157426Y-72195663D01*
X86013263Y-72339826D01*
X85899995Y-72509344D01*
X85821974Y-72697702D01*
X85782200Y-72897661D01*
X81660000Y-72897661D01*
X81660000Y-70865489D01*
X88192898Y-70846586D01*
X88177863Y-70864906D01*
X88118898Y-70975220D01*
X88082588Y-71094918D01*
X88070328Y-71219400D01*
X88073400Y-71433650D01*
X88232150Y-71592400D01*
X89306400Y-71592400D01*
X89306400Y-71572400D01*
X89560400Y-71572400D01*
X89560400Y-71592400D01*
X90634650Y-71592400D01*
X90793400Y-71433650D01*
X90796472Y-71219400D01*
X90784212Y-71094918D01*
X90747902Y-70975220D01*
X90688937Y-70864906D01*
X90668025Y-70839424D01*
X103300082Y-70802873D01*
X103290863Y-70814106D01*
X103231898Y-70924420D01*
X103195588Y-71044118D01*
X103183328Y-71168600D01*
X103186400Y-71382850D01*
X103345150Y-71541600D01*
X104419400Y-71541600D01*
X104419400Y-71521600D01*
X104673400Y-71521600D01*
X104673400Y-71541600D01*
X105747650Y-71541600D01*
X105906400Y-71382850D01*
X105909472Y-71168600D01*
X105897212Y-71044118D01*
X105860902Y-70924420D01*
X105801937Y-70814106D01*
X105786813Y-70795678D01*
X109284532Y-70785557D01*
X109178063Y-70892026D01*
G37*
%TD.AperFunction*%
%TD*%
M02*
