%TF.GenerationSoftware,KiCad,Pcbnew,5.1.9+dfsg1-1*%
%TF.CreationDate,2021-05-21T09:37:11+02:00*%
%TF.ProjectId,vscp-din-m1-wireless-p1,76736370-2d64-4696-9e2d-6d312d776972,rev?*%
%TF.SameCoordinates,Original*%
%TF.FileFunction,Legend,Bot*%
%TF.FilePolarity,Positive*%
%FSLAX46Y46*%
G04 Gerber Fmt 4.6, Leading zero omitted, Abs format (unit mm)*
G04 Created by KiCad (PCBNEW 5.1.9+dfsg1-1) date 2021-05-21 09:37:11*
%MOMM*%
%LPD*%
G01*
G04 APERTURE LIST*
%ADD10C,0.120000*%
%ADD11C,0.150000*%
G04 APERTURE END LIST*
D10*
%TO.C,R8*%
X114657136Y-89917600D02*
X115111264Y-89917600D01*
X114657136Y-91387600D02*
X115111264Y-91387600D01*
%TO.C,R4*%
X111411652Y-91387600D02*
X110889148Y-91387600D01*
X111411652Y-89917600D02*
X110889148Y-89917600D01*
%TO.C,R3*%
X112596600Y-72188336D02*
X112596600Y-72642464D01*
X111126600Y-72188336D02*
X111126600Y-72642464D01*
%TO.C,R2*%
X111126600Y-76300064D02*
X111126600Y-75845936D01*
X112596600Y-76300064D02*
X112596600Y-75845936D01*
%TO.C,C4*%
X88698400Y-72930652D02*
X88698400Y-72408148D01*
X90168400Y-72930652D02*
X90168400Y-72408148D01*
%TO.C,C3*%
X103811400Y-72879852D02*
X103811400Y-72357348D01*
X105281400Y-72879852D02*
X105281400Y-72357348D01*
%TO.C,R8*%
D11*
X115025466Y-93086180D02*
X115358800Y-92609990D01*
X115596895Y-93086180D02*
X115596895Y-92086180D01*
X115215942Y-92086180D01*
X115120704Y-92133800D01*
X115073085Y-92181419D01*
X115025466Y-92276657D01*
X115025466Y-92419514D01*
X115073085Y-92514752D01*
X115120704Y-92562371D01*
X115215942Y-92609990D01*
X115596895Y-92609990D01*
X114454038Y-92514752D02*
X114549276Y-92467133D01*
X114596895Y-92419514D01*
X114644514Y-92324276D01*
X114644514Y-92276657D01*
X114596895Y-92181419D01*
X114549276Y-92133800D01*
X114454038Y-92086180D01*
X114263561Y-92086180D01*
X114168323Y-92133800D01*
X114120704Y-92181419D01*
X114073085Y-92276657D01*
X114073085Y-92324276D01*
X114120704Y-92419514D01*
X114168323Y-92467133D01*
X114263561Y-92514752D01*
X114454038Y-92514752D01*
X114549276Y-92562371D01*
X114596895Y-92609990D01*
X114644514Y-92705228D01*
X114644514Y-92895704D01*
X114596895Y-92990942D01*
X114549276Y-93038561D01*
X114454038Y-93086180D01*
X114263561Y-93086180D01*
X114168323Y-93038561D01*
X114120704Y-92990942D01*
X114073085Y-92895704D01*
X114073085Y-92705228D01*
X114120704Y-92609990D01*
X114168323Y-92562371D01*
X114263561Y-92514752D01*
%TO.C,R4*%
X111418666Y-93035380D02*
X111752000Y-92559190D01*
X111990095Y-93035380D02*
X111990095Y-92035380D01*
X111609142Y-92035380D01*
X111513904Y-92083000D01*
X111466285Y-92130619D01*
X111418666Y-92225857D01*
X111418666Y-92368714D01*
X111466285Y-92463952D01*
X111513904Y-92511571D01*
X111609142Y-92559190D01*
X111990095Y-92559190D01*
X110561523Y-92368714D02*
X110561523Y-93035380D01*
X110799619Y-91987761D02*
X111037714Y-92702047D01*
X110418666Y-92702047D01*
%TO.C,R3*%
X114168180Y-71969333D02*
X113691990Y-71636000D01*
X114168180Y-71397904D02*
X113168180Y-71397904D01*
X113168180Y-71778857D01*
X113215800Y-71874095D01*
X113263419Y-71921714D01*
X113358657Y-71969333D01*
X113501514Y-71969333D01*
X113596752Y-71921714D01*
X113644371Y-71874095D01*
X113691990Y-71778857D01*
X113691990Y-71397904D01*
X113168180Y-72302666D02*
X113168180Y-72921714D01*
X113549133Y-72588380D01*
X113549133Y-72731238D01*
X113596752Y-72826476D01*
X113644371Y-72874095D01*
X113739609Y-72921714D01*
X113977704Y-72921714D01*
X114072942Y-72874095D01*
X114120561Y-72826476D01*
X114168180Y-72731238D01*
X114168180Y-72445523D01*
X114120561Y-72350285D01*
X114072942Y-72302666D01*
%TO.C,R2*%
X113963980Y-75906333D02*
X113487790Y-75573000D01*
X113963980Y-75334904D02*
X112963980Y-75334904D01*
X112963980Y-75715857D01*
X113011600Y-75811095D01*
X113059219Y-75858714D01*
X113154457Y-75906333D01*
X113297314Y-75906333D01*
X113392552Y-75858714D01*
X113440171Y-75811095D01*
X113487790Y-75715857D01*
X113487790Y-75334904D01*
X113059219Y-76287285D02*
X113011600Y-76334904D01*
X112963980Y-76430142D01*
X112963980Y-76668238D01*
X113011600Y-76763476D01*
X113059219Y-76811095D01*
X113154457Y-76858714D01*
X113249695Y-76858714D01*
X113392552Y-76811095D01*
X113963980Y-76239666D01*
X113963980Y-76858714D01*
%TO.C,C4*%
X91470542Y-72502733D02*
X91518161Y-72455114D01*
X91565780Y-72312257D01*
X91565780Y-72217019D01*
X91518161Y-72074161D01*
X91422923Y-71978923D01*
X91327685Y-71931304D01*
X91137209Y-71883685D01*
X90994352Y-71883685D01*
X90803876Y-71931304D01*
X90708638Y-71978923D01*
X90613400Y-72074161D01*
X90565780Y-72217019D01*
X90565780Y-72312257D01*
X90613400Y-72455114D01*
X90661019Y-72502733D01*
X90899114Y-73359876D02*
X91565780Y-73359876D01*
X90518161Y-73121780D02*
X91232447Y-72883685D01*
X91232447Y-73502733D01*
%TO.C,C3*%
X105869257Y-72785266D02*
X105821638Y-72832885D01*
X105774019Y-72975742D01*
X105774019Y-73070980D01*
X105821638Y-73213838D01*
X105916876Y-73309076D01*
X106012114Y-73356695D01*
X106202590Y-73404314D01*
X106345447Y-73404314D01*
X106535923Y-73356695D01*
X106631161Y-73309076D01*
X106726400Y-73213838D01*
X106774019Y-73070980D01*
X106774019Y-72975742D01*
X106726400Y-72832885D01*
X106678780Y-72785266D01*
X106774019Y-72451933D02*
X106774019Y-71832885D01*
X106393066Y-72166219D01*
X106393066Y-72023361D01*
X106345447Y-71928123D01*
X106297828Y-71880504D01*
X106202590Y-71832885D01*
X105964495Y-71832885D01*
X105869257Y-71880504D01*
X105821638Y-71928123D01*
X105774019Y-72023361D01*
X105774019Y-72309076D01*
X105821638Y-72404314D01*
X105869257Y-72451933D01*
%TD*%
M02*
