%TF.GenerationSoftware,KiCad,Pcbnew,5.1.9+dfsg1-1*%
%TF.CreationDate,2021-05-21T09:37:11+02:00*%
%TF.ProjectId,vscp-din-m1-wireless-p1,76736370-2d64-4696-9e2d-6d312d776972,rev?*%
%TF.SameCoordinates,Original*%
%TF.FileFunction,Paste,Top*%
%TF.FilePolarity,Positive*%
%FSLAX46Y46*%
G04 Gerber Fmt 4.6, Leading zero omitted, Abs format (unit mm)*
G04 Created by KiCad (PCBNEW 5.1.9+dfsg1-1) date 2021-05-21 09:37:11*
%MOMM*%
%LPD*%
G01*
G04 APERTURE LIST*
%ADD10R,2.500000X1.000000*%
%ADD11R,1.000000X1.800000*%
%ADD12R,2.000000X0.900000*%
%ADD13R,0.900000X2.000000*%
%ADD14R,5.000000X5.000000*%
G04 APERTURE END LIST*
%TO.C,R19*%
G36*
G01*
X74237800Y-116705801D02*
X74237800Y-115805799D01*
G75*
G02*
X74487799Y-115555800I249999J0D01*
G01*
X75012801Y-115555800D01*
G75*
G02*
X75262800Y-115805799I0J-249999D01*
G01*
X75262800Y-116705801D01*
G75*
G02*
X75012801Y-116955800I-249999J0D01*
G01*
X74487799Y-116955800D01*
G75*
G02*
X74237800Y-116705801I0J249999D01*
G01*
G37*
G36*
G01*
X72412800Y-116705801D02*
X72412800Y-115805799D01*
G75*
G02*
X72662799Y-115555800I249999J0D01*
G01*
X73187801Y-115555800D01*
G75*
G02*
X73437800Y-115805799I0J-249999D01*
G01*
X73437800Y-116705801D01*
G75*
G02*
X73187801Y-116955800I-249999J0D01*
G01*
X72662799Y-116955800D01*
G75*
G02*
X72412800Y-116705801I0J249999D01*
G01*
G37*
%TD*%
D10*
%TO.C,U2*%
X122600000Y-71500000D03*
X122600000Y-73500000D03*
X122600000Y-75500000D03*
X122600000Y-77500000D03*
X122600000Y-79500000D03*
X122600000Y-81500000D03*
X122600000Y-83500000D03*
X122600000Y-85500000D03*
D11*
X120000000Y-87000000D03*
X118000000Y-87000000D03*
X116000000Y-87000000D03*
X114000000Y-87000000D03*
X112000000Y-87000000D03*
X110000000Y-87000000D03*
D10*
X107400000Y-85500000D03*
X107400000Y-83500000D03*
X107400000Y-81500000D03*
X107400000Y-79500000D03*
X107400000Y-77500000D03*
X107400000Y-75500000D03*
X107400000Y-73500000D03*
X107400000Y-71500000D03*
%TD*%
%TO.C,R18*%
G36*
G01*
X83166000Y-106179199D02*
X83166000Y-107079201D01*
G75*
G02*
X82916001Y-107329200I-249999J0D01*
G01*
X82390999Y-107329200D01*
G75*
G02*
X82141000Y-107079201I0J249999D01*
G01*
X82141000Y-106179199D01*
G75*
G02*
X82390999Y-105929200I249999J0D01*
G01*
X82916001Y-105929200D01*
G75*
G02*
X83166000Y-106179199I0J-249999D01*
G01*
G37*
G36*
G01*
X84991000Y-106179199D02*
X84991000Y-107079201D01*
G75*
G02*
X84741001Y-107329200I-249999J0D01*
G01*
X84215999Y-107329200D01*
G75*
G02*
X83966000Y-107079201I0J249999D01*
G01*
X83966000Y-106179199D01*
G75*
G02*
X84215999Y-105929200I249999J0D01*
G01*
X84741001Y-105929200D01*
G75*
G02*
X84991000Y-106179199I0J-249999D01*
G01*
G37*
%TD*%
%TO.C,R17*%
G36*
G01*
X74022000Y-106255399D02*
X74022000Y-107155401D01*
G75*
G02*
X73772001Y-107405400I-249999J0D01*
G01*
X73246999Y-107405400D01*
G75*
G02*
X72997000Y-107155401I0J249999D01*
G01*
X72997000Y-106255399D01*
G75*
G02*
X73246999Y-106005400I249999J0D01*
G01*
X73772001Y-106005400D01*
G75*
G02*
X74022000Y-106255399I0J-249999D01*
G01*
G37*
G36*
G01*
X75847000Y-106255399D02*
X75847000Y-107155401D01*
G75*
G02*
X75597001Y-107405400I-249999J0D01*
G01*
X75071999Y-107405400D01*
G75*
G02*
X74822000Y-107155401I0J249999D01*
G01*
X74822000Y-106255399D01*
G75*
G02*
X75071999Y-106005400I249999J0D01*
G01*
X75597001Y-106005400D01*
G75*
G02*
X75847000Y-106255399I0J-249999D01*
G01*
G37*
%TD*%
%TO.C,R16*%
G36*
G01*
X84778800Y-95852401D02*
X84778800Y-94952399D01*
G75*
G02*
X85028799Y-94702400I249999J0D01*
G01*
X85553801Y-94702400D01*
G75*
G02*
X85803800Y-94952399I0J-249999D01*
G01*
X85803800Y-95852401D01*
G75*
G02*
X85553801Y-96102400I-249999J0D01*
G01*
X85028799Y-96102400D01*
G75*
G02*
X84778800Y-95852401I0J249999D01*
G01*
G37*
G36*
G01*
X82953800Y-95852401D02*
X82953800Y-94952399D01*
G75*
G02*
X83203799Y-94702400I249999J0D01*
G01*
X83728801Y-94702400D01*
G75*
G02*
X83978800Y-94952399I0J-249999D01*
G01*
X83978800Y-95852401D01*
G75*
G02*
X83728801Y-96102400I-249999J0D01*
G01*
X83203799Y-96102400D01*
G75*
G02*
X82953800Y-95852401I0J249999D01*
G01*
G37*
%TD*%
%TO.C,R15*%
G36*
G01*
X74616900Y-114445201D02*
X74616900Y-113545199D01*
G75*
G02*
X74866899Y-113295200I249999J0D01*
G01*
X75391901Y-113295200D01*
G75*
G02*
X75641900Y-113545199I0J-249999D01*
G01*
X75641900Y-114445201D01*
G75*
G02*
X75391901Y-114695200I-249999J0D01*
G01*
X74866899Y-114695200D01*
G75*
G02*
X74616900Y-114445201I0J249999D01*
G01*
G37*
G36*
G01*
X72791900Y-114445201D02*
X72791900Y-113545199D01*
G75*
G02*
X73041899Y-113295200I249999J0D01*
G01*
X73566901Y-113295200D01*
G75*
G02*
X73816900Y-113545199I0J-249999D01*
G01*
X73816900Y-114445201D01*
G75*
G02*
X73566901Y-114695200I-249999J0D01*
G01*
X73041899Y-114695200D01*
G75*
G02*
X72791900Y-114445201I0J249999D01*
G01*
G37*
%TD*%
%TO.C,R14*%
G36*
G01*
X83966000Y-109517601D02*
X83966000Y-108617599D01*
G75*
G02*
X84215999Y-108367600I249999J0D01*
G01*
X84741001Y-108367600D01*
G75*
G02*
X84991000Y-108617599I0J-249999D01*
G01*
X84991000Y-109517601D01*
G75*
G02*
X84741001Y-109767600I-249999J0D01*
G01*
X84215999Y-109767600D01*
G75*
G02*
X83966000Y-109517601I0J249999D01*
G01*
G37*
G36*
G01*
X82141000Y-109517601D02*
X82141000Y-108617599D01*
G75*
G02*
X82390999Y-108367600I249999J0D01*
G01*
X82916001Y-108367600D01*
G75*
G02*
X83166000Y-108617599I0J-249999D01*
G01*
X83166000Y-109517601D01*
G75*
G02*
X82916001Y-109767600I-249999J0D01*
G01*
X82390999Y-109767600D01*
G75*
G02*
X82141000Y-109517601I0J249999D01*
G01*
G37*
%TD*%
%TO.C,R13*%
G36*
G01*
X74693100Y-109644601D02*
X74693100Y-108744599D01*
G75*
G02*
X74943099Y-108494600I249999J0D01*
G01*
X75468101Y-108494600D01*
G75*
G02*
X75718100Y-108744599I0J-249999D01*
G01*
X75718100Y-109644601D01*
G75*
G02*
X75468101Y-109894600I-249999J0D01*
G01*
X74943099Y-109894600D01*
G75*
G02*
X74693100Y-109644601I0J249999D01*
G01*
G37*
G36*
G01*
X72868100Y-109644601D02*
X72868100Y-108744599D01*
G75*
G02*
X73118099Y-108494600I249999J0D01*
G01*
X73643101Y-108494600D01*
G75*
G02*
X73893100Y-108744599I0J-249999D01*
G01*
X73893100Y-109644601D01*
G75*
G02*
X73643101Y-109894600I-249999J0D01*
G01*
X73118099Y-109894600D01*
G75*
G02*
X72868100Y-109644601I0J249999D01*
G01*
G37*
%TD*%
%TO.C,R12*%
G36*
G01*
X74695000Y-111956001D02*
X74695000Y-111055999D01*
G75*
G02*
X74944999Y-110806000I249999J0D01*
G01*
X75470001Y-110806000D01*
G75*
G02*
X75720000Y-111055999I0J-249999D01*
G01*
X75720000Y-111956001D01*
G75*
G02*
X75470001Y-112206000I-249999J0D01*
G01*
X74944999Y-112206000D01*
G75*
G02*
X74695000Y-111956001I0J249999D01*
G01*
G37*
G36*
G01*
X72870000Y-111956001D02*
X72870000Y-111055999D01*
G75*
G02*
X73119999Y-110806000I249999J0D01*
G01*
X73645001Y-110806000D01*
G75*
G02*
X73895000Y-111055999I0J-249999D01*
G01*
X73895000Y-111956001D01*
G75*
G02*
X73645001Y-112206000I-249999J0D01*
G01*
X73119999Y-112206000D01*
G75*
G02*
X72870000Y-111956001I0J249999D01*
G01*
G37*
%TD*%
%TO.C,R11*%
G36*
G01*
X131222800Y-89643799D02*
X131222800Y-90543801D01*
G75*
G02*
X130972801Y-90793800I-249999J0D01*
G01*
X130447799Y-90793800D01*
G75*
G02*
X130197800Y-90543801I0J249999D01*
G01*
X130197800Y-89643799D01*
G75*
G02*
X130447799Y-89393800I249999J0D01*
G01*
X130972801Y-89393800D01*
G75*
G02*
X131222800Y-89643799I0J-249999D01*
G01*
G37*
G36*
G01*
X133047800Y-89643799D02*
X133047800Y-90543801D01*
G75*
G02*
X132797801Y-90793800I-249999J0D01*
G01*
X132272799Y-90793800D01*
G75*
G02*
X132022800Y-90543801I0J249999D01*
G01*
X132022800Y-89643799D01*
G75*
G02*
X132272799Y-89393800I249999J0D01*
G01*
X132797801Y-89393800D01*
G75*
G02*
X133047800Y-89643799I0J-249999D01*
G01*
G37*
%TD*%
%TO.C,R10*%
G36*
G01*
X131246300Y-86113199D02*
X131246300Y-87013201D01*
G75*
G02*
X130996301Y-87263200I-249999J0D01*
G01*
X130471299Y-87263200D01*
G75*
G02*
X130221300Y-87013201I0J249999D01*
G01*
X130221300Y-86113199D01*
G75*
G02*
X130471299Y-85863200I249999J0D01*
G01*
X130996301Y-85863200D01*
G75*
G02*
X131246300Y-86113199I0J-249999D01*
G01*
G37*
G36*
G01*
X133071300Y-86113199D02*
X133071300Y-87013201D01*
G75*
G02*
X132821301Y-87263200I-249999J0D01*
G01*
X132296299Y-87263200D01*
G75*
G02*
X132046300Y-87013201I0J249999D01*
G01*
X132046300Y-86113199D01*
G75*
G02*
X132296299Y-85863200I249999J0D01*
G01*
X132821301Y-85863200D01*
G75*
G02*
X133071300Y-86113199I0J-249999D01*
G01*
G37*
%TD*%
%TO.C,R9*%
G36*
G01*
X122141401Y-91294000D02*
X121241399Y-91294000D01*
G75*
G02*
X120991400Y-91044001I0J249999D01*
G01*
X120991400Y-90518999D01*
G75*
G02*
X121241399Y-90269000I249999J0D01*
G01*
X122141401Y-90269000D01*
G75*
G02*
X122391400Y-90518999I0J-249999D01*
G01*
X122391400Y-91044001D01*
G75*
G02*
X122141401Y-91294000I-249999J0D01*
G01*
G37*
G36*
G01*
X122141401Y-93119000D02*
X121241399Y-93119000D01*
G75*
G02*
X120991400Y-92869001I0J249999D01*
G01*
X120991400Y-92343999D01*
G75*
G02*
X121241399Y-92094000I249999J0D01*
G01*
X122141401Y-92094000D01*
G75*
G02*
X122391400Y-92343999I0J-249999D01*
G01*
X122391400Y-92869001D01*
G75*
G02*
X122141401Y-93119000I-249999J0D01*
G01*
G37*
%TD*%
%TO.C,R7*%
G36*
G01*
X76600000Y-86549999D02*
X76600000Y-87450001D01*
G75*
G02*
X76350001Y-87700000I-249999J0D01*
G01*
X75824999Y-87700000D01*
G75*
G02*
X75575000Y-87450001I0J249999D01*
G01*
X75575000Y-86549999D01*
G75*
G02*
X75824999Y-86300000I249999J0D01*
G01*
X76350001Y-86300000D01*
G75*
G02*
X76600000Y-86549999I0J-249999D01*
G01*
G37*
G36*
G01*
X78425000Y-86549999D02*
X78425000Y-87450001D01*
G75*
G02*
X78175001Y-87700000I-249999J0D01*
G01*
X77649999Y-87700000D01*
G75*
G02*
X77400000Y-87450001I0J249999D01*
G01*
X77400000Y-86549999D01*
G75*
G02*
X77649999Y-86300000I249999J0D01*
G01*
X78175001Y-86300000D01*
G75*
G02*
X78425000Y-86549999I0J-249999D01*
G01*
G37*
%TD*%
%TO.C,R6*%
G36*
G01*
X127362000Y-86087799D02*
X127362000Y-86987801D01*
G75*
G02*
X127112001Y-87237800I-249999J0D01*
G01*
X126586999Y-87237800D01*
G75*
G02*
X126337000Y-86987801I0J249999D01*
G01*
X126337000Y-86087799D01*
G75*
G02*
X126586999Y-85837800I249999J0D01*
G01*
X127112001Y-85837800D01*
G75*
G02*
X127362000Y-86087799I0J-249999D01*
G01*
G37*
G36*
G01*
X129187000Y-86087799D02*
X129187000Y-86987801D01*
G75*
G02*
X128937001Y-87237800I-249999J0D01*
G01*
X128411999Y-87237800D01*
G75*
G02*
X128162000Y-86987801I0J249999D01*
G01*
X128162000Y-86087799D01*
G75*
G02*
X128411999Y-85837800I249999J0D01*
G01*
X128937001Y-85837800D01*
G75*
G02*
X129187000Y-86087799I0J-249999D01*
G01*
G37*
%TD*%
%TO.C,R5*%
G36*
G01*
X80612401Y-87280800D02*
X79712399Y-87280800D01*
G75*
G02*
X79462400Y-87030801I0J249999D01*
G01*
X79462400Y-86505799D01*
G75*
G02*
X79712399Y-86255800I249999J0D01*
G01*
X80612401Y-86255800D01*
G75*
G02*
X80862400Y-86505799I0J-249999D01*
G01*
X80862400Y-87030801D01*
G75*
G02*
X80612401Y-87280800I-249999J0D01*
G01*
G37*
G36*
G01*
X80612401Y-89105800D02*
X79712399Y-89105800D01*
G75*
G02*
X79462400Y-88855801I0J249999D01*
G01*
X79462400Y-88330799D01*
G75*
G02*
X79712399Y-88080800I249999J0D01*
G01*
X80612401Y-88080800D01*
G75*
G02*
X80862400Y-88330799I0J-249999D01*
G01*
X80862400Y-88855801D01*
G75*
G02*
X80612401Y-89105800I-249999J0D01*
G01*
G37*
%TD*%
%TO.C,R1*%
G36*
G01*
X105021801Y-76003200D02*
X104121799Y-76003200D01*
G75*
G02*
X103871800Y-75753201I0J249999D01*
G01*
X103871800Y-75228199D01*
G75*
G02*
X104121799Y-74978200I249999J0D01*
G01*
X105021801Y-74978200D01*
G75*
G02*
X105271800Y-75228199I0J-249999D01*
G01*
X105271800Y-75753201D01*
G75*
G02*
X105021801Y-76003200I-249999J0D01*
G01*
G37*
G36*
G01*
X105021801Y-77828200D02*
X104121799Y-77828200D01*
G75*
G02*
X103871800Y-77578201I0J249999D01*
G01*
X103871800Y-77053199D01*
G75*
G02*
X104121799Y-76803200I249999J0D01*
G01*
X105021801Y-76803200D01*
G75*
G02*
X105271800Y-77053199I0J-249999D01*
G01*
X105271800Y-77578201D01*
G75*
G02*
X105021801Y-77828200I-249999J0D01*
G01*
G37*
%TD*%
%TO.C,C6*%
G36*
G01*
X83990600Y-112870000D02*
X83990600Y-111920000D01*
G75*
G02*
X84240600Y-111670000I250000J0D01*
G01*
X84740600Y-111670000D01*
G75*
G02*
X84990600Y-111920000I0J-250000D01*
G01*
X84990600Y-112870000D01*
G75*
G02*
X84740600Y-113120000I-250000J0D01*
G01*
X84240600Y-113120000D01*
G75*
G02*
X83990600Y-112870000I0J250000D01*
G01*
G37*
G36*
G01*
X82090600Y-112870000D02*
X82090600Y-111920000D01*
G75*
G02*
X82340600Y-111670000I250000J0D01*
G01*
X82840600Y-111670000D01*
G75*
G02*
X83090600Y-111920000I0J-250000D01*
G01*
X83090600Y-112870000D01*
G75*
G02*
X82840600Y-113120000I-250000J0D01*
G01*
X82340600Y-113120000D01*
G75*
G02*
X82090600Y-112870000I0J250000D01*
G01*
G37*
%TD*%
%TO.C,C5*%
G36*
G01*
X134358400Y-116745600D02*
X133408400Y-116745600D01*
G75*
G02*
X133158400Y-116495600I0J250000D01*
G01*
X133158400Y-115995600D01*
G75*
G02*
X133408400Y-115745600I250000J0D01*
G01*
X134358400Y-115745600D01*
G75*
G02*
X134608400Y-115995600I0J-250000D01*
G01*
X134608400Y-116495600D01*
G75*
G02*
X134358400Y-116745600I-250000J0D01*
G01*
G37*
G36*
G01*
X134358400Y-118645600D02*
X133408400Y-118645600D01*
G75*
G02*
X133158400Y-118395600I0J250000D01*
G01*
X133158400Y-117895600D01*
G75*
G02*
X133408400Y-117645600I250000J0D01*
G01*
X134358400Y-117645600D01*
G75*
G02*
X134608400Y-117895600I0J-250000D01*
G01*
X134608400Y-118395600D01*
G75*
G02*
X134358400Y-118645600I-250000J0D01*
G01*
G37*
%TD*%
%TO.C,C1*%
G36*
G01*
X111636000Y-91153000D02*
X111636000Y-90203000D01*
G75*
G02*
X111886000Y-89953000I250000J0D01*
G01*
X112386000Y-89953000D01*
G75*
G02*
X112636000Y-90203000I0J-250000D01*
G01*
X112636000Y-91153000D01*
G75*
G02*
X112386000Y-91403000I-250000J0D01*
G01*
X111886000Y-91403000D01*
G75*
G02*
X111636000Y-91153000I0J250000D01*
G01*
G37*
G36*
G01*
X109736000Y-91153000D02*
X109736000Y-90203000D01*
G75*
G02*
X109986000Y-89953000I250000J0D01*
G01*
X110486000Y-89953000D01*
G75*
G02*
X110736000Y-90203000I0J-250000D01*
G01*
X110736000Y-91153000D01*
G75*
G02*
X110486000Y-91403000I-250000J0D01*
G01*
X109986000Y-91403000D01*
G75*
G02*
X109736000Y-91153000I0J250000D01*
G01*
G37*
%TD*%
D12*
%TO.C,U1*%
X101500000Y-71745000D03*
X101500000Y-73015000D03*
X101500000Y-74285000D03*
X101500000Y-75555000D03*
X101500000Y-76825000D03*
X101500000Y-78095000D03*
X101500000Y-79365000D03*
X101500000Y-80635000D03*
X101500000Y-81905000D03*
X101500000Y-83175000D03*
X101500000Y-84445000D03*
X101500000Y-85715000D03*
X101500000Y-86985000D03*
X101500000Y-88255000D03*
D13*
X98715000Y-89255000D03*
X97445000Y-89255000D03*
X96175000Y-89255000D03*
X94905000Y-89255000D03*
X93635000Y-89255000D03*
X92365000Y-89255000D03*
X91095000Y-89255000D03*
X89825000Y-89255000D03*
X88555000Y-89255000D03*
X87285000Y-89255000D03*
D12*
X84500000Y-88255000D03*
X84500000Y-86985000D03*
X84500000Y-85715000D03*
X84500000Y-84445000D03*
X84500000Y-83175000D03*
X84500000Y-81905000D03*
X84500000Y-80635000D03*
X84500000Y-79365000D03*
X84500000Y-78095000D03*
X84500000Y-76825000D03*
X84500000Y-75555000D03*
X84500000Y-74285000D03*
X84500000Y-73015000D03*
X84500000Y-71745000D03*
D14*
X92000000Y-79245000D03*
%TD*%
M02*
