M48
; DRILL file {KiCad 5.1.9+dfsg1-1} date Fri May 21 09:36:54 2021
; FORMAT={-:-/ absolute / inch / decimal}
; #@! TF.CreationDate,2021-05-21T09:36:54+02:00
; #@! TF.GenerationSoftware,Kicad,Pcbnew,5.1.9+dfsg1-1
; #@! TF.FileFunction,Plated,1,2,PTH
FMAT,2
INCH
T1C0.0157
T2C0.0295
T3C0.0315
T4C0.0394
%
G90
G05
T1
X2.827Y-4.437
X3.018Y-3.3711
X3.047Y-3.714
X3.152Y-4.225
X3.16Y-4.652
X3.168Y-3.946
X3.181Y-4.361
X3.311Y-3.584
X3.418Y-2.874
X3.43Y-3.101
X3.437Y-3.602
X3.438Y-3.416
X3.473Y-3.245
X3.538Y-3.722
X3.621Y-3.312
X3.817Y-3.244
X3.846Y-2.852
X3.898Y-3.115
X4.101Y-3.25
X4.116Y-3.116
X4.254Y-4.054
X4.33Y-2.817
X4.411Y-3.258
X4.419Y-3.138
X4.528Y-3.077
X4.564Y-2.929
X4.564Y-3.252
X4.658Y-3.072
X4.672Y-3.769
X4.811Y-4.047
X4.92Y-3.443
T2
X4.915Y-3.601
X4.965Y-3.601
X5.015Y-3.601
T3
X4.0945Y-3.6614
X4.1929Y-3.6614
T4
X2.839Y-3.425
X2.839Y-3.525
X2.839Y-3.625
X2.839Y-3.725
X2.839Y-3.825
X2.839Y-3.925
X3.06Y-4.652
X3.16Y-4.652
X3.26Y-4.652
X3.36Y-4.652
X4.795Y-4.651
X4.895Y-4.651
X4.995Y-4.651
X5.095Y-4.651
T0
M30
